<svg xmlns="http://www.w3.org/2000/svg" version="1.1" xmlns:xlink="http://www.w3.org/1999/xlink" width="512" height="512" x="0" y="0" viewBox="0 0 24 24" style="enable-background:new 0 0 512 512" xml:space="preserve" class=""><g><path d="M21.75 17a.753.753 0 0 1-.75.75h-4.154a.75.75 0 0 1 0-1.5h2.343l-6.012-6.013a.252.252 0 0 0-.354 0l-2.586 2.586a1.75 1.75 0 0 1-2.474 0L2.47 7.53a.75.75 0 1 1 1.06-1.06l5.293 5.293a.252.252 0 0 0 .354 0l2.586-2.586a1.75 1.75 0 0 1 2.474 0l6.013 6.012v-2.343a.75.75 0 0 1 1.5 0z" fill="#f44336" opacity="1" data-original="#000000" class=""></path></g></svg>