<svg id="Icon" viewBox="0 0 24 24" xmlns="http://www.w3.org/2000/svg"><path d="m19.035 3.25h-14.07c-.619 0-1.192.327-1.495.854-.296.515-.294 1.128.005 1.641.023.039.05.076.08.111l5.768 6.706v6.516c0 .569.293 1.094.782 1.402.284.18.606.271.93.271.257 0 .516-.058.757-.173l1.928-.92c.592-.284.959-.858.959-1.5v-5.596l5.768-6.706c.03-.035.057-.072.08-.111.299-.513.301-1.126.005-1.641-.303-.527-.876-.854-1.495-.854z" fill="#fdbd22"/><path d="m11.034 20.751c-.323 0-.646-.091-.93-.271-.489-.309-.782-.833-.782-1.402v-6.516l-5.767-6.706c-.03-.035-.057-.072-.08-.111-.299-.513-.301-1.126-.005-1.641.303-.527.876-.854 1.495-.854h14.07c.619 0 1.192.327 1.495.854.296.515.294 1.128-.005 1.641-.023.039-.05.076-.08.111l-5.768 6.706v5.596c0 .642-.367 1.216-.959 1.5l-1.928.92c-.241.115-.5.173-.757.173zm-6.28-15.8 5.887 6.844c.117.137.182.31.182.489v6.794c0 .055.027.1.082.134.035.022.127.066.24.013l1.927-.92c.065-.031.106-.088.106-.146v-5.874c0-.18.064-.353.182-.489l5.887-6.844c.006-.025.007-.06-.017-.1-.018-.03-.071-.102-.194-.102h-14.071c-.123 0-.177.071-.194.102-.023.04-.022.074-.017.1zm15.123.416h.01z" fill="#182039"/></svg>