<svg xmlns="http://www.w3.org/2000/svg" version="1.1" xmlns:xlink="http://www.w3.org/1999/xlink" width="512" height="512" x="0" y="0" viewBox="0 0 512 512" style="enable-background:new 0 0 512 512" xml:space="preserve" class=""><g><path d="M318.314 463.959H10.969C4.911 463.959 0 459.048 0 452.989V11.607C0 5.55 4.911.639 10.969.639h307.344c6.058 0 10.969 4.911 10.969 10.969V452.99c0 6.058-4.911 10.969-10.968 10.969zM21.939 442.02h285.406V22.577H21.939V442.02z" style="" fill="#67afff" data-original="#4f2410" class="" opacity="1"></path><path d="M176.449 48.474 14.042 1.078A10.969 10.969 0 0 0 0 11.607v441.382a10.97 10.97 0 0 0 7.896 10.53l162.408 47.397c7.009 2.045 14.043-3.214 14.043-10.53V59.004a10.972 10.972 0 0 0-7.898-10.53z" style="" fill="#2cb2b3" data-original="#632c15" class="" opacity="1"></path><path d="M149.318 323.443c-6.058 0-10.969-4.911-10.969-10.969v-69.725c0-6.058 4.911-10.969 10.969-10.969s10.969 4.911 10.969 10.969v69.725c.001 6.057-4.91 10.969-10.969 10.969z" style="" fill="#80391b" data-original="#80391b"></path><path d="M191.111 249.65a18.188 18.188 0 0 1-13.628-6.113c-6.693-7.522-6.02-19.047 1.503-25.74l69.745-62.052a18.229 18.229 0 0 1 9.934-4.479l90.535-10.927c10.003-1.209 19.079 5.919 20.286 15.916 1.206 9.997-5.919 19.079-15.916 20.285l-84.866 10.243-65.48 58.256a18.166 18.166 0 0 1-12.113 4.611z" style="" fill="#252d5c" data-original="#252d5c"></path><path d="M341.579 478.067c-11.053-3.924-16.831-16.066-12.907-27.118l32.042-90.246-53.573-84.139c-6.299-9.893-3.386-23.021 6.508-29.32 9.891-6.299 23.02-3.386 29.319 6.507l59.139 92.883a21.232 21.232 0 0 1 2.098 18.511l-35.51 100.014c-3.904 11.004-16.016 16.849-27.116 12.908z" style="" fill="#414b82" data-original="#414b82"></path><path d="m400.355 144.46-45.289-17.292c-14.026-5.356-29.737 1.673-35.092 15.699l-49.751 130.298-25.609 88.966-45.263 86.038c-5.461 10.38-1.473 23.221 8.907 28.682 10.403 5.473 23.234 1.45 28.682-8.907l46.255-87.924a21.2 21.2 0 0 0 1.59-3.932l25.587-87.592 5.765 2.201 54.807 6.996 45.109-118.139c5.357-14.027-1.672-29.739-15.698-35.094z" style="" fill="#53618c" data-original="#53618c"></path><path d="m316.139 290.695-45.914-17.532 49.751-130.297c5.356-14.026 21.066-21.054 35.092-15.699l45.289 17.292c14.026 5.356 21.054 21.066 15.699 35.092L370.947 297.69l-54.808-6.995z" style="" fill="#1b224a" data-original="#1b224a"></path><circle cx="403.766" cy="87.135" r="40.238" style="" fill="#ffb69e" data-original="#ffb69e"></circle><path d="m185.089 212.368-6.103 5.43c-7.523 6.693-8.195 18.217-1.503 25.739 6.711 7.543 18.236 8.178 25.74 1.503l5.713-5.082-23.847-27.59z" style="" fill="#ffffff" data-original="#ffffff"></path><path d="M178.986 217.798c-7.523 6.693-8.195 18.217-1.503 25.739 6.711 7.543 18.236 8.178 25.74 1.503l-24.237-27.242z" style="" fill="#ffb69e" data-original="#ffb69e"></path><path d="M469.267 311.312h-41.062a7.999 7.999 0 0 1-7.999-7.999v-39.462a7.999 7.999 0 0 1 7.999-7.999h41.062a7.999 7.999 0 0 1 7.999 7.999v39.462a7.999 7.999 0 0 1-7.999 7.999zm-33.063-15.998h25.064V271.85h-25.064v23.464z" style="" fill="#59250f" data-original="#59250f"></path><path d="M512 293.904v69.139c0 5.547-4.497 10.044-10.044 10.044H395.514c-5.547 0-10.044-4.497-10.044-10.044v-69.14c0-5.547 4.497-10.044 10.044-10.044h106.442c5.547.001 10.044 4.497 10.044 10.045z" style="" fill="#80391b" data-original="#80391b"></path><path d="M451.922 278.554a18.215 18.215 0 0 1-6.04-.516l-70.548-18.132a18.234 18.234 0 0 1-12.681-11.665l-29.186-83.856c-3.311-9.51 1.716-19.902 11.226-23.212 9.508-3.316 19.902 1.716 23.212 11.226l25.973 74.625 61.08 15.699c9.753 2.507 15.626 12.444 13.12 22.196-1.984 7.724-8.633 13.014-16.156 13.635z" style="" fill="#252d5c" data-original="#252d5c"></path><path d="m454.96 242.722-9.069-2.331-8.725 35.406 8.717 2.241c9.761 2.51 19.693-3.379 22.196-13.12 2.506-9.753-3.366-19.689-13.119-22.196z" style="" fill="#ffffff" data-original="#ffffff"></path><path d="m454.96 242.722-9.077 35.316c9.761 2.51 19.693-3.379 22.196-13.12 2.506-9.753-3.366-19.689-13.119-22.196z" style="" fill="#ffb69e" data-original="#ffb69e"></path></g></svg>