<svg xmlns="http://www.w3.org/2000/svg" version="1.1" xmlns:xlink="http://www.w3.org/1999/xlink" width="512" height="512" x="0" y="0" viewBox="0 0 512 512" style="enable-background:new 0 0 512 512" xml:space="preserve" class=""><g><g fill-rule="evenodd" clip-rule="evenodd"><circle cx="256" cy="256" r="240" fill="#2cb2b3" transform="rotate(-45 255.972 256.066)" opacity="1" data-original="#0cb0ff" class=""></circle><path fill="#19a1a2" d="M489.181 312.96C465.16 411.632 380.159 486.414 276.35 495.133L160.534 379.317c-5.731-4.735-9.399-11.89-9.399-19.861V232.302c0-14.172 11.593-25.765 25.762-25.765h26.774l-13.911-13.911v-19.384C189.76 136.809 219.564 107 256 107c19.357 0 36.843 8.413 48.983 21.763z" opacity="1" data-original="#0092d8" class=""></path><path fill="#ebe5e5" d="M256 253.36c-12.334 0-22.34 9.997-22.34 22.337 0 7.78 3.976 14.625 10.006 18.631l-9.553 40.51a2.793 2.793 0 0 0 .545 2.462 2.814 2.814 0 0 0 2.272 1.096h38.14c.914 0 1.704-.382 2.272-1.096a2.798 2.798 0 0 0 .543-2.462l-9.55-40.51c6.027-4.006 10.003-10.851 10.003-18.631-.001-12.339-9.998-22.337-22.338-22.337zm-79.104-46.823H335.1c14.172 0 25.765 11.592 25.765 25.765v127.154c0 14.17-11.593 25.762-25.765 25.762H176.896c-14.169 0-25.762-11.593-25.762-25.762V232.302c0-14.172 11.593-25.765 25.762-25.765zm114.321-13.911v-19.384c0-19.313-15.91-35.217-35.217-35.217-19.308 0-35.22 15.904-35.22 35.217v19.384h-31.02v-19.384C189.76 136.809 219.564 107 256 107s66.245 29.809 66.245 66.242v19.384z" opacity="1" data-original="#ffffff" class=""></path></g></g></svg>