<?xml version="1.0" encoding="utf-8"?>
<!-- Generator: Adobe Illustrator 23.0.5, SVG Export Plug-In . SVG Version: 6.00 Build 0)  -->
<svg version="1.1" id="Layer_1" xmlns="http://www.w3.org/2000/svg" xmlns:xlink="http://www.w3.org/1999/xlink" x="0px" y="0px"
	 viewBox="0 0 4452.8 3692.9" style="enable-background:new 0 0 4452.8 3692.9;" xml:space="preserve">
<style type="text/css">
	.st0{fill:#F8F8FF;}
	.st1{fill:#D7D7FF;}
	.st2{fill:#A9A9FF;}
	.st3{fill:#212C40;}
	.st4{fill:#FAC795;}
	.st5{fill:#553230;}
	.st6{fill:#FFFFFF;}
	.st7{fill:#55312F;}
	.st8{fill:#FA9926;}
	.st9{fill:#E07A14;}
	.st10{fill:#3A3AE0;}
	.st11{fill:#55C955;}
	.st12{fill:#DB3030;}
	.st13{fill:#F95D5D;}
	.st14{fill:#3BB23B;}
	.st15{fill:#F09E58;}
	.st16{fill:#FAC896;}
	.st17{fill:#B1B1EF;}
	.st18{fill:#EBEBFF;}
	.st19{fill:#7878F9;}
	.st20{fill:#FFAE55;}
	.st21{opacity:0.6;}
	.st22{fill:#FFFFFF;stroke:#000000;stroke-miterlimit:10;}
</style>
<g id="Healthcare_Insurance">
	<g>
		<g>
			<g>
				<g>
					<path class="st0" d="M4377.7,3157.7v467.1H77.7v-706.4c0-456.7,250-884.9,670.5-1158.8c1.8-1.2,3.7-2.4,5.5-3.6
						c389-257.5,464.2-694.6,868.5-940c358.1-217.4,942.8-215.8,1298.6,3.6c213.3,131.5,336.7,320,442.6,505.7
						c106,185.6,203.8,378.2,382.5,533.4c1.6,1.4,3.1,2.7,4.7,4.1C4150,2204.8,4377.7,2670.2,4377.7,3157.7z"/>
				</g>
			</g>
			<g>
				<g>
					<path class="st1" d="M4377.7,3624.7H77.8c0-42.9,13.2-84.2,37-119.8c23.9-35.7,58.4-65.8,101-86.3
						c428.9-206.6,1234-374.5,2156.3-425.7c521.4-29.1,1005.2-16.5,1404.9,28.4C4120.5,3059.9,4377.7,3318.6,4377.7,3624.7z"/>
				</g>
			</g>
			<g>
				<g>
					<path class="st2" d="M1970.7,3282.4c0,12.7-117.7,23-262.9,23s-263-10.3-263-23s117.8-23,263-23S1970.7,3269.7,1970.7,3282.4z"
						/>
				</g>
			</g>
			<g>
				<g>
					<path class="st2" d="M1469.7,3374.1c0,26.7-138.7,48.3-309.8,48.3s-309.9-21.6-309.9-48.3c0-26.7,138.8-48.3,309.9-48.3
						S1469.7,3347.4,1469.7,3374.1z"/>
				</g>
			</g>
			<g>
				<g>
					<path class="st2" d="M2614.4,3350.9c0,10.7-130.7,19.4-291.9,19.4c-161.2,0-291.9-8.7-291.9-19.4c0-10.7,130.7-19.3,291.9-19.3
						C2483.6,3331.6,2614.4,3340.2,2614.4,3350.9z"/>
				</g>
			</g>
			<g>
				<g>
					<g>
						<path class="st3" d="M2580.8,1565.5c-6.4,53.9-55.3,92.3-109.1,85.8c-53.9-6.4-92.3-55.3-85.9-109.1
							c6.4-53.9,55.3-92.3,109.2-85.9C2548.8,1462.7,2587.2,1511.6,2580.8,1565.5z"/>
					</g>
				</g>
				<g>
					<g>
						<path class="st3" d="M2412.1,1576.9c-6.4,53.9-55.3,92.3-109.1,85.8c-53.9-6.4-92.3-55.3-85.9-109.1
							c6.4-53.9,55.3-92.3,109.2-85.9C2380.1,1474.2,2418.5,1523.1,2412.1,1576.9z"/>
					</g>
				</g>
				<g>
					<g>
						<path class="st3" d="M2371.4,1448.1c-5.9,49.2-50.5,84.3-99.8,78.4c-49.2-5.9-84.4-50.5-78.5-99.8
							c5.9-49.2,50.6-84.4,99.8-78.5C2342.2,1354.2,2377.3,1398.9,2371.4,1448.1z"/>
					</g>
				</g>
				<g>
					<g>
						<path class="st3" d="M2438.3,1376.9c-5.9,49.2-50.5,84.3-99.8,78.4c-49.2-5.9-84.4-50.5-78.5-99.8
							c5.9-49.2,50.6-84.4,99.8-78.5C2409.1,1282.9,2444.2,1327.6,2438.3,1376.9z"/>
					</g>
				</g>
				<g>
					<g>
						<path class="st3" d="M2571.6,1424.5c-5.9,49.2-50.5,84.3-99.8,78.4c-49.2-5.9-84.4-50.5-78.5-99.8
							c5.9-49.2,50.6-84.4,99.8-78.5C2542.4,1330.5,2577.5,1375.2,2571.6,1424.5z"/>
					</g>
				</g>
				<g>
					<g>
						
							<ellipse transform="matrix(0.1188 -0.9929 0.9929 0.1188 596.1538 3655.9053)" class="st4" cx="2357.8" cy="1492.1" rx="109.3" ry="93.9"/>
					</g>
				</g>
				<g>
					<g>
						<path class="st3" d="M2266.3,1466.5c0,0,57.8-8.9,76.4-72.4c0,0-0.8,106,89,92.1l53.5-12.3l-45.9-93.2l-102.9-32.9l-90.3,83.3
							L2266.3,1466.5z"/>
					</g>
				</g>
				<g>
					<g>
						<path class="st4" d="M2465,1489.1c1.1,16.5-3.6,30.5-20.1,31.6c-16.6,1.1-31-11.4-32.1-27.9c-1.1-16.6,11.4-31,28-32.1
							C2457.3,1459.6,2463.8,1472.5,2465,1489.1z"/>
					</g>
				</g>
				<g>
					<g>
						<path class="st5" d="M2304.4,1502.2c-0.4,3.5-3.6,6-7.2,5.6c-3.6-0.4-6.1-3.6-5.7-7.1c0.4-3.6,3.6-6.1,7.2-5.7
							C2302.3,1495.5,2304.8,1498.7,2304.4,1502.2z"/>
					</g>
				</g>
				<g>
					<g>
						<path class="st5" d="M2311.2,1477.9c1.7,0.5,3.6,1.5,3.8,3.8c0.2,1.9-1,3.7-2.4,4.4s-2.9,0.6-4.3,0.4
							c-19-2.1-19.8-1.8-21.4-3.6c-0.9-1-1.6-3.8-0.5-5.1c1-1.1,3.6-1,4.8-1.2c4.3-0.7,8.6-0.8,12.9-0.2
							C2306.5,1476.7,2308.9,1477.2,2311.2,1477.9z"/>
					</g>
				</g>
				<g>
					<g>
						<path class="st5" d="M2357.6,1506.4c-0.4,3.5-3.6,6-7.2,5.6c-3.6-0.4-6.1-3.6-5.7-7.1c0.4-3.6,3.6-6.1,7.2-5.7
							C2355.5,1499.6,2358,1502.8,2357.6,1506.4z"/>
					</g>
				</g>
				<g>
					<g>
						<path class="st5" d="M2364.4,1482c1.7,0.5,3.6,1.5,3.8,3.8c0.2,1.9-1,3.7-2.4,4.4s-2.9,0.6-4.3,0.4c-19-2.1-19.8-1.8-21.4-3.6
							c-0.9-1-1.6-3.8-0.5-5.1c1-1.1,3.6-1,4.8-1.2c4.3-0.7,8.6-0.8,12.9-0.2C2359.7,1480.8,2362.1,1481.3,2364.4,1482z"/>
					</g>
				</g>
				<g>
					<g>
						<path class="st5" d="M2325.7,1524.3c-2.5-0.7-5.5,0.5-8.8-1c-4.3-2-4.9-7.2-0.6-10c1.2-0.8,2.5-1.2,3.5-1.8
							c4.1-2.2,5.5-6.7,5.2-11.4c-0.2-2.7,4-3.1,4.2-0.3c0.9,13.4-9.1,16-10.6,16.9c-1.5,1-1.3,2,0,2.6c2,0.9,5.1-0.1,8.2,0.7
							c1.1,0.3,1.8,1.5,1.4,2.6C2328,1523.9,2326.9,1524.6,2325.7,1524.3z"/>
					</g>
				</g>
				<g>
					<g>
						<path class="st6" d="M2310.7,1540.3c3.9,1.5,13.4,4.2,23.7,0.4c1-0.4,2,0.8,1.4,1.7c-10.4,18-23.6,15.3-26.7-0.8
							C2308.9,1540.7,2309.8,1539.9,2310.7,1540.3z"/>
					</g>
				</g>
				<g>
					<g>
						<path class="st7" d="M2448.2,1506.5c8.7-12,6.6-27.8-0.7-33.4c-7.1-5.6-16.9-0.4-13.8,2.9c0.8,0.9,2.2,0.9,3,0.1
							c2.2-2,6-1.4,8.2,0.3c5.3,4.2,7.3,17.4-0.1,27.6c-0.7,1-0.5,2.3,0.5,3C2446.2,1507.6,2447.6,1507.4,2448.2,1506.5z"/>
					</g>
				</g>
			</g>
			<g>
				<g>
					<g>
						<g>
							<path class="st8" d="M2375.3,2863.3c9.9,33.6,26.3,72.5,14.2,132.8c-2.6,12.5-6.3,26.1-11.6,40.7
								c-42.3,115.9-68.9,208.9-68.9,208.9l-69.5,0.2c0,0-8.6-281.5-51.1-529.9c-31.9-186.5,18.8-380.7,46.1-465.9
								c8.9-28.3,15.4-44.6,15.4-44.6h211.4c129.9,279.3-24.8,420.1-76.7,552.6c-7.7,19.7-13.2,39.3-15.4,59.2
								c-0.1,0.8-0.2,1.4-0.3,2.2C2367.6,2833.9,2370.8,2848.1,2375.3,2863.3z"/>
						</g>
					</g>
					<g>
						<g>
							<path class="st9" d="M2369.3,2817.2c-4.2-30.2-8.8-60.4-13.9-90.3c-42.5-248.4,82.3-510.5,82.3-510.5h28.8
								C2604.7,2527.9,2386.4,2663.2,2369.3,2817.2z"/>
						</g>
					</g>
					<g>
						<g>
							<path class="st10" d="M2239.7,3245.6c0,0-4.6,50.5-17.3,59.8c-23.5,17.1-96.6,9.6-102.3,26.6c-3.1,9.4,43.6,21.7,54,22.7
								c50.4,4.9,109.5,3.8,140.1-7c25.9-9.1-5.1-102.2-5.1-102.2L2239.7,3245.6L2239.7,3245.6z"/>
						</g>
					</g>
				</g>
				<g>
					<g>
						<g>
							<path class="st8" d="M2567.3,3036.8c-42.3,115.9-68.9,208.9-68.9,208.9l-69.5,0.2c0,0-7.7-250.8-44.2-487.8
								c-2.1-14.1-4.4-28.1-6.8-42.1c-31.8-186.1,18.6-379.9,45.9-465.4c9.1-28.6,15.7-45.1,15.7-45.1h211.4
								c149.2,320.8-77.1,457.2-92.4,614C2553.3,2872.7,2609.6,2920.8,2567.3,3036.8z"/>
						</g>
					</g>
					<g>
						<g>
							<path class="st9" d="M2633.2,2216.5c-0.5,26.7-296.9,45-398.6,33.6c8.9-28.3,15.4-44.6,15.4-44.6h383.1
								C2633.2,2212.6,2633.2,2216.5,2633.2,2216.5z"/>
						</g>
					</g>
					<g>
						<g>
							<path class="st10" d="M2429.1,3245.6c0,0-4.6,50.5-17.3,59.8c-23.5,17.1-96.6,9.6-102.3,26.6c-3.1,9.4,43.6,21.7,54,22.7
								c50.4,4.9,109.5,3.8,140.1-7c25.9-9.1-5.1-102.2-5.1-102.2L2429.1,3245.6L2429.1,3245.6z"/>
						</g>
					</g>
				</g>
			</g>
			<g>
				<g>
					<path class="st11" d="M2660.3,2209c-0.7,32-420.4,42-419.8,10.1c-124.1-503.1,94.1-572.7,94.1-572.7
						c134.6-32.8,215.5,20.5,263.6,105.7c27.9,49.4,44.7,109.5,54.6,169.7C2676.2,2065.2,2660.3,2209,2660.3,2209z"/>
				</g>
			</g>
			<g>
				<g>
					<g>
						<path class="st12" d="M3020.2,2321.1v296.7c0,18.8-15.3,34.1-34.1,34.1h-33.4c18.8,0,34.1-15.3,34.1-34.1v-296.7
							c0-18.8-15.3-34.1-34.1-34.1h33.4C3004.9,2287,3020.2,2302.3,3020.2,2321.1z"/>
					</g>
				</g>
				<g>
					<g>
						<g>
							<path class="st12" d="M2841.8,2316.3h-187.5v-74.8c0-15.4,12.6-28,28-28h131.5c15.4,0,28,12.6,28,28V2316.3z M2679.8,2290.7
								h136.4v-49.2c0-1.3-1.1-2.4-2.4-2.4h-131.5c-1.3,0-2.4,1.1-2.4,2.4L2679.8,2290.7L2679.8,2290.7z"/>
						</g>
					</g>
				</g>
				<g>
					<g>
						<path class="st13" d="M2986.7,2321.1v296.7c0,18.8-15.3,34.1-34.1,34.1h-437.1c-18.8,0-34.1-15.3-34.1-34.1v-296.7
							c0-18.8,15.3-34.1,34.1-34.1h437.1C2971.5,2287,2986.7,2302.3,2986.7,2321.1z"/>
					</g>
				</g>
				<g>
					<g>
						<path class="st6" d="M2827,2469.5c0,51.3-41.6,92.9-92.9,92.9c-51.3,0-92.9-41.6-92.9-92.9c0-51.3,41.6-92.9,92.9-92.9
							C2785.4,2376.6,2827,2418.2,2827,2469.5z"/>
					</g>
				</g>
				<g>
					<g>
						<g>
							<path class="st13" d="M2827.9,2316.3h-187.5v-74.8c0-15.4,12.6-28,28-28h131.5c15.4,0,28,12.6,28,28V2316.3z M2665.9,2290.7
								h136.4v-49.2c0-1.3-1.1-2.4-2.4-2.4h-131.5c-1.3,0-2.4,1.1-2.4,2.4L2665.9,2290.7L2665.9,2290.7z"/>
						</g>
					</g>
				</g>
			</g>
			<g>
				<g>
					<path class="st14" d="M2652.8,1921.8c-16.5-19.9-39.5-32.5-61.7-44.5c-18.8-10.2-37.5-20.5-56.4-30.5
						c-13.5-7.2-30.2-9.5-29.4-29c1.4-35.5,43-62.4,72.5-65.9c6.8-0.9,13.6-0.8,20.4,0.2C2626,1801.5,2642.8,1861.6,2652.8,1921.8z"
						/>
				</g>
			</g>
			<g>
				<g>
					<path class="st11" d="M2393.7,1766.3c32.8,80,237.5,27.3,286,153.2c48.5,125.9,46.5,236,46.5,236l84.2,4.8
						c0,0,44.3-302.9-55.9-392.5c-114.2-102.1-215.6-113.5-277.8-121.3C2439.7,1641.8,2379.6,1731.9,2393.7,1766.3z"/>
				</g>
			</g>
			<g>
				<g>
					<path class="st11" d="M2353.8,1642.2c-70.4-19.4-200,188.6-324.1,135.5c-124.1-53.1-201.5-131.3-201.5-131.3l-62.1,57
						c0,0,168.5,254.7,320.2,233.7s240.4-67.9,277.5-135.6C2381.6,1768.8,2389.7,1652.1,2353.8,1642.2z"/>
				</g>
			</g>
			<g>
				<g>
					<path class="st4" d="M2447.5,1518.5l-3.3,120.1c4.9,72.3-31.4,166.3-75.9,264.6c-20.2-95.4-28.5-184.4-13.3-261v-69.9
						L2447.5,1518.5z"/>
				</g>
			</g>
			<g>
				<g>
					<path class="st6" d="M2348,1697.7c-3.8,62.9,4.7,132.4,20.2,205.5c33.2-73.3,61.8-144.2,72.2-205.5H2348z"/>
				</g>
			</g>
			<g>
				<g>
					<path class="st15" d="M2414.5,1586.1c-1,1.9-19.4,33-59.6,31.5v-16.5C2364.4,1601.1,2395.4,1599.9,2414.5,1586.1z"/>
				</g>
			</g>
			<g>
				<g>
					<path class="st16" d="M1829,1647.3c0,0,11-51.4,8.2-63.9c-2-8.8-14.3-20.8-23.1-18.9c-13.7,2.8-18.6,51.6-18.6,51.6
						s-18.3-59.9-36.2-65.5c-25.7-8-86.1,41.2-72.1,80.2c19.8,55.1,78.7,72.8,78.7,72.8L1829,1647.3z"/>
				</g>
			</g>
			<g>
				<g>
					<path class="st16" d="M2810.4,2160.3c0,0,29,51.4-3.9,99.7c-20.1,29.6-97.1,15.5-107.8-0.9c-10.2-15.7,9.5-45.7,9.5-45.7
						l-20,0.3c0,0-20.1-14.6-14.8-21.9c7.6-10.4,53.3-36.2,53.3-36.2L2810.4,2160.3z"/>
				</g>
			</g>
			<g>
				<g>
					<g>
						<path class="st17" d="M1663.1,1729.8c-68.5,0-124.3-55.8-124.3-124.3c0-7,5.6-12.6,12.6-12.6s12.6,5.6,12.6,12.6
							c0,54.7,44.5,99.1,99.1,99.1c54.6,0,99.1-44.5,99.1-99.1V437.8c0-7,5.6-12.6,12.6-12.6s12.6,5.6,12.6,12.6v1167.7
							C1787.4,1674.1,1731.6,1729.8,1663.1,1729.8z"/>
					</g>
				</g>
				<g>
					<g>
						<g>
							<path class="st17" d="M1663.1,1751.3c-80.4,0-145.8-65.4-145.8-145.8c0-18.8,15.3-34.1,34.1-34.1s34.1,15.3,34.1,34.1
								c0,42.8,34.8,77.6,77.6,77.6s77.6-34.8,77.6-77.6v-191.8c0-18.8,15.3-34.1,34.1-34.1s34.1,15.3,34.1,34.1v191.8
								C1808.9,1685.9,1743.5,1751.3,1663.1,1751.3z"/>
						</g>
					</g>
				</g>
				<g>
					<g>
						<g>
							<g>
								<path class="st18" d="M1774.8,479.6c333.7,0.1,604.1,270.4,604.1,604.1c-66.7-66.8-174.9-66.7-241.6,0
									c-0.4-0.4-0.8-0.7-1.2-1.2C2135.7,749.3,1974,479.6,1774.8,479.6z"/>
							</g>
						</g>
						<g>
							<g>
								<path class="st18" d="M1774.7,479.6c-199.4,0.1-360.9,269.9-361.3,603c-0.4,0.4-0.7,0.7-1.1,1.1
									c-66.7-66.8-174.9-66.7-241.6,0C1170.7,750,1441.2,479.6,1774.7,479.6z"/>
							</g>
						</g>
						<g>
							<g>
								<path class="st2" d="M1774.8,479.6c199.2,0,360.9,269.8,361.3,602.9c-66.8-65.6-174.1-65.1-240.4,1.2
									c-0.2-0.2-0.5-0.5-0.7-0.7C1894.8,749.6,1841.1,479.6,1774.8,479.6z"/>
							</g>
						</g>
						<g>
							<g>
								<path class="st2" d="M1774.7,479.6c-66.2,0.4-119.9,270.2-120,603.4c-0.2,0.2-0.5,0.5-0.7,0.7
									c-66.3-66.5-173.7-66.7-240.6-1.1C1413.8,749.5,1575.3,479.7,1774.7,479.6z"/>
							</g>
						</g>
						<g>
							<g>
								<path class="st18" d="M1774.7,479.6h0.1c66.3,0,120,270,120.1,603.4c-66.5-65.8-173.7-65.7-240.2,0
									C1654.8,749.7,1708.5,479.9,1774.7,479.6z"/>
							</g>
						</g>
					</g>
				</g>
			</g>
			<g>
				<g>
					<g>
						<path class="st2" d="M3818.4,3246.5c0,13.6-125.4,24.7-280.1,24.7c-154.8,0-280.1-11.1-280.1-24.7
							c0-13.6,125.4-24.6,280.1-24.6C3693,3221.9,3818.4,3232.9,3818.4,3246.5z"/>
					</g>
				</g>
				<g>
					<g>
						<g>
							<g>
								<g>
									<path class="st2" d="M3495.9,2925.6l0.7-2.7c38.5-52.9,18.5-134.9-15.5-190.8c-9.3-15.3-21.6-33.4-13.8-49.6
										c5.5-11.4,18.9-16.2,29.5-23.2c31-20.5,39.7-63,34.6-99.8c-5-36.8-20.7-71.4-27.3-108c-7.4-40.5-3.4-83.1,11.4-121.5
										c6.6-17.3,17.9-35.6,36.1-38.7c18.3-3.1,35.5,11,44.3,27.3c33.9,62.7-18.5,147.4,20.9,208c19,29.2,59.2,48.6,15.5,108.5
										c-12.4,16.9-27,33.3-31.5,53.8c-5.2,23.9,4.6,48.2,8.7,72.3C3621.2,2829.3,3558.9,2897.2,3495.9,2925.6z"/>
								</g>
							</g>
						</g>
						<g>
							<g>
								<g>
									<g>
										<path class="st2" d="M3342.8,2721c-4.9,13-13.1,25.8-10.9,40.7c3.2,21.3,23.9,31.7,40.5,40.4
											c57.7,31.7,121,79.2,141.7,140.9h7.4c13.1-67.3,11.8-145.9-31.8-191.8c-16.8-17.5-38-33.5-45.7-57.8
											c-6.6-20.8-1.8-43.2,1.6-64.3c11.9-75.8-26.1-75-55-99.7c-27.5-23.5-35.9-66.6-38.7-107c-3.2-40.5-3.2-84.4-21.3-118.3
											c-9.5-17.6-26.7-32.2-44.7-24.8c-18,7.4-28.5,33.1-33.3,56.5c-11,52.2-6.5,107.1,11.7,152.3
											c16.4,40.9,42.4,73.6,61.5,110.8C3344.6,2636.4,3357,2682.9,3342.8,2721z"/>
									</g>
								</g>
							</g>
							<g>
								<g>
									<g>
										<path class="st6" d="M3410.3,2712.5c0.2,19.9-3.7,40.9,2.3,60.6c8.5,28,34.5,45.9,54.1,66.3
											c26.6,27.8,43.7,65.1,48.6,103.6h5.6c-4.8-39.9-22.3-77.9-50.3-107.2c-4.9-5.1-10.2-10.1-15.4-15
											c-15.4-14.5-31.4-29.5-37.4-49.3c-5.7-18.7-1.8-38.8-2.1-59.1c-1.2-94-84.3-159.9-120.2-240.8
											c-20.9-47-22.1-93.9-3.3-128.7c0.7-1.3,0.2-2.9-1.1-3.6c-1.3-0.7-2.9-0.2-3.6,1.1c-19.6,36.3-18.4,84.9,3.1,133.4
											C3326.9,2555.8,3409.1,2620.4,3410.3,2712.5z"/>
									</g>
								</g>
							</g>
						</g>
						<g>
							<g>
								<g>
									<path class="st6" d="M3488.5,2943h6.1c49.9-90,64.2-111.3,67.5-140.8c4.8-42.8-20.6-85.8-8.4-125.6
										c4.9-15.8,15.8-30.2,21.7-46.3c8.2-22.4,6.7-47,4.4-70.2c-6.6-67.4-19.2-134.7-37.3-199.9c-0.9-3.4-6-2-5.1,1.4
										c18,65,30.5,131.9,37.1,199.1c2.2,22.6,3.8,46.5-4.1,67.9c-5.9,15.9-16.6,29.9-21.8,46.6c-12.8,41.6,12.9,84.7,8.2,126.5
										C3553.7,2829.1,3541.9,2846.7,3488.5,2943z"/>
								</g>
							</g>
						</g>
						<g>
							<g>
								<g>
									<g>
										<path class="st2" d="M3556.4,2943c22.9-63.3,92.1-108.1,153.9-136.5c17.2-7.4,38.6-16.4,43.3-37.3
											c3.3-14.8-3.9-28.1-7.9-41.4c-11.5-39.1,4.3-84.5,26-120.6c21.7-35.8,50-66.5,69.3-106.1c21.3-43.8,29.8-98.2,22.6-151.1
											c-3.1-23.7-11.7-50.2-29.2-58.8c-17.5-8.6-35.6,4.6-46.4,21.5c-20.5,32.5-23.7,76.3-29.8,116.5
											c-18.1,125.9-70.2,103-97.1,137.9c-26.8,34.7,1.6,85.7-14.4,125.8c-9.5,23.8-31.7,38.1-49.8,54.4
											c-48.4,44-54.2,126.1-44.7,195.8L3556.4,2943L3556.4,2943z"/>
									</g>
								</g>
							</g>
							<g>
								<g>
									<g>
										<path class="st6" d="M3557,2943c7.8-47.4,29.5-92.5,62.1-127.8c5.7-6.1,11.8-12.2,17.8-18c49-48.1,51.9-65.2,51.5-107.8
											c-0.4-39.6,1.4-55.8,48.2-106.5c5.8-6.3,11.8-12.8,17.4-19.4c46.5-55,69.6-127.7,63.5-199.5c-0.3-3.5-5.6-3-5.3,0.4
											c6,70.4-16.7,141.7-62.3,195.6c-24.2,28.6-56.3,55.1-64.5,92.8c-5.3,24.5,0.7,50.9-5.1,74.3c-8.6,34.4-40.6,58.1-65,84.5
											c-33.6,36.2-55.8,82.6-63.6,131.4L3557,2943L3557,2943z"/>
									</g>
								</g>
							</g>
						</g>
					</g>
					<g>
						<g>
							<path class="st10" d="M3739.7,2908.8v65.9c0,5.7-4.6,10.3-10.3,10.3h-375.7c-5.7,0-10.3-4.6-10.3-10.3v-65.9
								c0-5.7,4.6-10.3,10.3-10.3h375.7C3735.1,2898.5,3739.7,2903.1,3739.7,2908.8z"/>
						</g>
					</g>
					<g>
						<g>
							<path class="st19" d="M3715.4,2985l-53.7,250c-2.6,12-13.2,20.6-25.6,20.6h-189.3c-12.3,0-23-8.6-25.6-20.6l-53.7-250H3715.4
								z"/>
						</g>
					</g>
				</g>
			</g>
			<g>
				<g>
					<g>
						<path class="st1" d="M3819.6,1047.8v956.4c0,30.8-24.9,55.7-55.7,55.7h-764.4c-30.8,0-55.7-24.9-55.7-55.7v-956.4
							c0-30.8,24.9-55.7,55.7-55.7h764.4C3794.6,992.1,3819.6,1017,3819.6,1047.8z"/>
					</g>
				</g>
				<g>
					<g>
						<path class="st6" d="M2999.5,2012.8c-4.7,0-8.6-3.9-8.6-8.6v-956.4c0-4.7,3.9-8.6,8.6-8.6h764.4c4.8,0,8.6,3.9,8.6,8.6v956.4
							c0,4.7-3.9,8.6-8.6,8.6H2999.5z"/>
					</g>
				</g>
				<g>
					<g>
						<path class="st2" d="M3555.9,957v84.7c0,8.4-6.8,15.1-15.1,15.1h-318.2c-8.4,0-15.1-6.8-15.1-15.1V957
							c0-8.4,6.8-15.1,15.1-15.1h318.2C3549.1,941.8,3555.9,948.6,3555.9,957z"/>
					</g>
				</g>
				<g>
					<g>
						<g>
							<g>
								<path class="st2" d="M3171.6,1136.4v85.9c0,6.1-5,11.1-11.1,11.1h-85.9c-6.1,0-11.1-5-11.1-11.1v-85.9
									c0-6.1,5-11.1,11.1-11.1h85.9C3166.7,1125.3,3171.6,1130.3,3171.6,1136.4z"/>
							</g>
						</g>
						<g>
							<g>
								<g>
									<path class="st2" d="M3699.8,1158.4L3699.8,1158.4c0,3.9-3.2,7.1-7.1,7.1h-439.6c-3.9,0-7.1-3.2-7.1-7.1l0,0
										c0-3.9,3.2-7.1,7.1-7.1h439.6C3696.7,1151.4,3699.8,1154.5,3699.8,1158.4z"/>
								</g>
							</g>
							<g>
								<g>
									<path class="st2" d="M3503.3,1193.1h-250.1c-3.9,0-7.1,3.2-7.1,7.1l0,0c0,3.9,3.2,7.1,7.1,7.1h250.1c3.9,0,7.1-3.2,7.1-7.1
										l0,0C3510.3,1196.3,3507.2,1193.1,3503.3,1193.1z"/>
								</g>
							</g>
							<g>
								<g>
									<path class="st2" d="M3578.8,1200.2L3578.8,1200.2c0,3.9,3.2,7.1,7.1,7.1h47.5c3.9,0,7.1-3.2,7.1-7.1l0,0
										c0-3.9-3.2-7.1-7.1-7.1h-47.5C3582,1193.1,3578.8,1196.3,3578.8,1200.2z"/>
								</g>
							</g>
						</g>
					</g>
					<g>
						<g>
							<g>
								<path class="st2" d="M3171.6,1309.1v85.9c0,6.1-5,11.1-11.1,11.1h-85.9c-6.1,0-11.1-5-11.1-11.1v-85.9
									c0-6.1,5-11.1,11.1-11.1h85.9C3166.7,1298,3171.6,1303,3171.6,1309.1z"/>
							</g>
						</g>
						<g>
							<g>
								<g>
									<path class="st2" d="M3699.8,1331.1L3699.8,1331.1c0,3.9-3.2,7.1-7.1,7.1h-439.6c-3.9,0-7.1-3.2-7.1-7.1l0,0
										c0-3.9,3.2-7.1,7.1-7.1h439.6C3696.7,1324.1,3699.8,1327.2,3699.8,1331.1z"/>
								</g>
							</g>
							<g>
								<g>
									<path class="st2" d="M3503.3,1365.8h-250.1c-3.9,0-7.1,3.2-7.1,7.1l0,0c0,3.9,3.2,7.1,7.1,7.1h250.1c3.9,0,7.1-3.2,7.1-7.1
										l0,0C3510.3,1368.9,3507.2,1365.8,3503.3,1365.8z"/>
								</g>
							</g>
							<g>
								<g>
									<path class="st2" d="M3578.8,1372.9L3578.8,1372.9c0,3.9,3.2,7.1,7.1,7.1h47.5c3.9,0,7.1-3.2,7.1-7.1l0,0
										c0-3.9-3.2-7.1-7.1-7.1h-47.5C3582,1365.8,3578.8,1368.9,3578.8,1372.9z"/>
								</g>
							</g>
						</g>
					</g>
					<g>
						<g>
							<g>
								<path class="st2" d="M3171.6,1481.8v85.9c0,6.1-5,11.1-11.1,11.1h-85.9c-6.1,0-11.1-5-11.1-11.1v-85.9
									c0-6.1,5-11.1,11.1-11.1h85.9C3166.7,1470.7,3171.6,1475.7,3171.6,1481.8z"/>
							</g>
						</g>
						<g>
							<g>
								<g>
									<path class="st2" d="M3699.8,1503.8L3699.8,1503.8c0,3.9-3.2,7.1-7.1,7.1h-439.6c-3.9,0-7.1-3.2-7.1-7.1l0,0
										c0-3.9,3.2-7.1,7.1-7.1h439.6C3696.7,1496.8,3699.8,1499.9,3699.8,1503.8z"/>
								</g>
							</g>
							<g>
								<g>
									<path class="st2" d="M3503.3,1538.5h-250.1c-3.9,0-7.1,3.2-7.1,7.1l0,0c0,3.9,3.2,7.1,7.1,7.1h250.1c3.9,0,7.1-3.2,7.1-7.1
										l0,0C3510.3,1541.6,3507.2,1538.5,3503.3,1538.5z"/>
								</g>
							</g>
							<g>
								<g>
									<path class="st2" d="M3578.8,1545.6L3578.8,1545.6c0,3.9,3.2,7.1,7.1,7.1h47.5c3.9,0,7.1-3.2,7.1-7.1l0,0
										c0-3.9-3.2-7.1-7.1-7.1h-47.5C3582,1538.5,3578.8,1541.6,3578.8,1545.6z"/>
								</g>
							</g>
						</g>
					</g>
					<g>
						<g>
							<g>
								<path class="st2" d="M3171.6,1654.5v85.9c0,6.1-5,11.1-11.1,11.1h-85.9c-6.1,0-11.1-5-11.1-11.1v-85.9
									c0-6.1,5-11.1,11.1-11.1h85.9C3166.7,1643.4,3171.6,1648.4,3171.6,1654.5z"/>
							</g>
						</g>
						<g>
							<g>
								<g>
									<path class="st2" d="M3699.8,1676.5L3699.8,1676.5c0,3.9-3.2,7.1-7.1,7.1h-439.6c-3.9,0-7.1-3.2-7.1-7.1l0,0
										c0-3.9,3.2-7.1,7.1-7.1h439.6C3696.7,1669.5,3699.8,1672.6,3699.8,1676.5z"/>
								</g>
							</g>
							<g>
								<g>
									<path class="st2" d="M3503.3,1711.2h-250.1c-3.9,0-7.1,3.2-7.1,7.1l0,0c0,3.9,3.2,7.1,7.1,7.1h250.1c3.9,0,7.1-3.2,7.1-7.1
										l0,0C3510.3,1714.3,3507.2,1711.2,3503.3,1711.2z"/>
								</g>
							</g>
							<g>
								<g>
									<path class="st2" d="M3578.8,1718.3L3578.8,1718.3c0,3.9,3.2,7.1,7.1,7.1h47.5c3.9,0,7.1-3.2,7.1-7.1l0,0
										c0-3.9-3.2-7.1-7.1-7.1h-47.5C3582,1711.2,3578.8,1714.3,3578.8,1718.3z"/>
								</g>
							</g>
						</g>
					</g>
					<g>
						<g>
							<g>
								<path class="st2" d="M3171.6,1827.2v85.9c0,6.1-5,11.1-11.1,11.1h-85.9c-6.1,0-11.1-5-11.1-11.1v-85.9
									c0-6.1,5-11.1,11.1-11.1h85.9C3166.7,1816.1,3171.6,1821.1,3171.6,1827.2z"/>
							</g>
						</g>
						<g>
							<g>
								<g>
									<path class="st2" d="M3699.8,1849.2L3699.8,1849.2c0,3.9-3.2,7.1-7.1,7.1h-439.6c-3.9,0-7.1-3.2-7.1-7.1l0,0
										c0-3.9,3.2-7.1,7.1-7.1h439.6C3696.7,1842.2,3699.8,1845.3,3699.8,1849.2z"/>
								</g>
							</g>
							<g>
								<g>
									<path class="st2" d="M3503.3,1883.9h-250.1c-3.9,0-7.1,3.2-7.1,7.1l0,0c0,3.9,3.2,7.1,7.1,7.1h250.1c3.9,0,7.1-3.2,7.1-7.1
										l0,0C3510.3,1887,3507.2,1883.9,3503.3,1883.9z"/>
								</g>
							</g>
							<g>
								<g>
									<path class="st2" d="M3578.8,1891L3578.8,1891c0,3.9,3.2,7.1,7.1,7.1h47.5c3.9,0,7.1-3.2,7.1-7.1l0,0
										c0-3.9-3.2-7.1-7.1-7.1h-47.5C3582,1883.9,3578.8,1887,3578.8,1891z"/>
								</g>
							</g>
						</g>
					</g>
				</g>
				<g>
					<g>
						<g>
							<g>
								<path class="st6" d="M3114.7,1193.2c-1.8,0-3.6-0.7-5-2l-10.9-10.7c-2.8-2.7-2.8-7.2-0.1-10c2.7-2.8,7.2-2.8,10-0.1l6,5.9
									l16.8-15.9c2.8-2.7,7.3-2.6,10,0.3c2.7,2.8,2.6,7.3-0.3,10l-21.7,20.6C3118.2,1192.5,3116.4,1193.2,3114.7,1193.2z"/>
							</g>
						</g>
					</g>
					<g>
						<g>
							<g>
								<path class="st6" d="M3114.7,1369.3c-1.8,0-3.6-0.7-5-2l-10.9-10.7c-2.8-2.7-2.8-7.2-0.1-10c2.7-2.8,7.2-2.8,10-0.1l6,5.9
									l16.8-15.9c2.8-2.7,7.3-2.6,10,0.3c2.7,2.8,2.6,7.3-0.3,10l-21.7,20.6C3118.2,1368.7,3116.4,1369.3,3114.7,1369.3z"/>
							</g>
						</g>
					</g>
					<g>
						<g>
							<g>
								<path class="st6" d="M3114.7,1542.1c-1.8,0-3.6-0.7-5-2l-10.9-10.7c-2.8-2.7-2.8-7.2-0.1-10c2.7-2.8,7.2-2.8,10-0.1l6,5.9
									l16.8-15.9c2.8-2.7,7.3-2.6,10,0.3c2.7,2.8,2.6,7.3-0.3,10l-21.7,20.6C3118.2,1541.4,3116.4,1542.1,3114.7,1542.1z"/>
							</g>
						</g>
					</g>
					<g>
						<g>
							<g>
								<path class="st6" d="M3114.7,1711.5c-1.8,0-3.6-0.7-5-2l-10.9-10.7c-2.8-2.7-2.8-7.2-0.1-10c2.7-2.8,7.2-2.8,10-0.1l6,5.9
									l16.8-15.9c2.8-2.7,7.3-2.6,10,0.3c2.7,2.8,2.6,7.3-0.3,10l-21.7,20.6C3118.2,1710.8,3116.4,1711.5,3114.7,1711.5z"/>
							</g>
						</g>
					</g>
					<g>
						<g>
							<g>
								<path class="st6" d="M3114.7,1887.4c-1.8,0-3.6-0.7-5-2l-10.9-10.7c-2.8-2.7-2.8-7.2-0.1-10c2.7-2.8,7.2-2.8,10-0.1l6,5.9
									l16.8-15.9c2.8-2.7,7.3-2.6,10,0.3c2.7,2.8,2.6,7.3-0.3,10l-21.7,20.6C3118.2,1886.8,3116.4,1887.4,3114.7,1887.4z"/>
							</g>
						</g>
					</g>
				</g>
			</g>
			<g>
				<g>
					<g>
						<path class="st19" d="M2024.4,2565.5c11.6,1.7,20.3,11.6,20.3,23.3v341.9c0,77-37.3,149.2-100.1,193.7l-223.1,158.2
							c-8.2,5.8-19.1,5.8-27.3,0l-223.1-158.2c-62.8-44.5-100.1-116.7-100.1-193.7v-341.9c0-11.7,8.6-21.6,20.3-23.3
							c59.3-8.8,106.3-55.7,115.1-115.1c1.7-11.6,11.6-20.3,23.3-20.3H1886c11.7,0,21.6,8.6,23.3,20.3
							C1918.1,2509.8,1965,2556.7,2024.4,2565.5z"/>
					</g>
				</g>
				<g>
					<g>
						<g>
							<circle class="st6" cx="1707.7" cy="2809.3" r="168.3"/>
						</g>
					</g>
				</g>
				<g>
					<g>
						<g>
							<path class="st11" d="M1686.6,2863c-5.8,0-11.7-2.5-15.8-7.2l-31.4-36.4c-7.5-8.7-6.5-21.8,2.1-29.3
								c8.7-7.5,21.8-6.5,29.3,2.1l18.4,21.3l58-45.9c9-7.1,22.1-5.6,29.2,3.4c7.1,9,5.6,22.1-3.4,29.2l-73.6,58.3
								C1695.7,2861.5,1691.1,2863,1686.6,2863z"/>
						</g>
					</g>
				</g>
			</g>
			<g>
				<g>
					<circle class="st19" cx="2947.7" cy="995.6" r="120.7"/>
				</g>
			</g>
			<g>
				<g>
					<path class="st6" d="M3001.5,1013.4l-33.3-19.2l35.8-20.7c4.9-2.8,6.6-9.1,3.8-14c-2.8-4.9-9.1-6.6-14-3.8l-35.8,20.7v-38.5
						c0-5.7-4.6-10.3-10.3-10.3s-10.3,4.6-10.3,10.3v38.5l-35.8-20.7c-4.9-2.8-11.2-1.2-14,3.8c-2.8,4.9-1.2,11.2,3.8,14l35.8,20.7
						l-33.3,19.2c-4.9,2.8-6.6,9.1-3.8,14c2.8,4.9,9.1,6.6,14,3.8l33.3-19.2v41.3c0,5.7,4.6,10.3,10.3,10.3s10.3-4.6,10.3-10.3
						v-41.3l33.3,19.2c4.9,2.8,11.2,1.2,14-3.8C3008.1,1022.5,3006.4,1016.2,3001.5,1013.4z"/>
				</g>
			</g>
			<g>
				<g>
					<g>
						<g>
							<path class="st8" d="M1370.8,3278.5c0,22.3-97.9,40.4-218.6,40.4c-120.8,0-218.6-18.1-218.6-40.4
								c0-22.3,97.9-40.4,218.6-40.4C1273,3238.2,1370.8,3256.3,1370.8,3278.5z"/>
						</g>
					</g>
					<g>
						<g>
							<path class="st20" d="M1308.1,3278.5c0,15.9-69.8,28.8-155.9,28.8c-86.1,0-155.9-12.9-155.9-28.8
								c0-15.9,69.8-28.8,155.9-28.8C1238.3,3249.8,1308.1,3262.7,1308.1,3278.5z"/>
						</g>
					</g>
					<g>
						<g>
							<path class="st20" d="M1370.8,3278.5v75.2c0,22.3-97.9,40.4-218.6,40.4c-120.8,0-218.6-18.1-218.6-40.4v-75.2
								c0,22.3,97.9,40.4,218.6,40.4C1273,3318.9,1370.8,3300.8,1370.8,3278.5z"/>
						</g>
					</g>
					<g>
						<g>
							<g>
								<path class="st8" d="M963.4,3298.9v75.2c-3.2-1-6.1-2-8.8-3.1v-75.2C957.2,3296.9,960.2,3297.9,963.4,3298.9z"/>
							</g>
						</g>
						<g>
							<g>
								<path class="st8" d="M1011.7,3309.5v75.2c-3-0.5-6-1-8.8-1.4V3308C1005.7,3308.5,1008.7,3309,1011.7,3309.5z"/>
							</g>
						</g>
						<g>
							<g>
								<path class="st8" d="M1060,3315.2v75.2c-3-0.2-5.9-0.5-8.8-0.8v-75.2C1054.1,3314.6,1057,3314.9,1060,3315.2z"/>
							</g>
						</g>
						<g>
							<g>
								<path class="st8" d="M1108.3,3318.1v75.2c-3-0.1-5.9-0.2-8.8-0.3v-75.2C1102.4,3317.9,1105.3,3318,1108.3,3318.1z"/>
							</g>
						</g>
						<g>
							<g>
								<path class="st8" d="M1156.6,3318.9v75.2c-1.5,0-2.9,0-4.4,0s-3,0-4.4,0v-75.2c1.5,0,2.9,0,4.4,0
									S1155.2,3318.9,1156.6,3318.9z"/>
							</g>
						</g>
						<g>
							<g>
								<path class="st8" d="M1204.9,3317.7v75.2c-2.9,0.1-5.8,0.2-8.8,0.3v-75.2C1199.1,3318,1202,3317.9,1204.9,3317.7z"/>
							</g>
						</g>
						<g>
							<g>
								<path class="st8" d="M1253.2,3314.3v75.2c-2.9,0.3-5.8,0.6-8.8,0.8v-75.2C1247.4,3314.9,1250.3,3314.6,1253.2,3314.3z"/>
							</g>
						</g>
						<g>
							<g>
								<path class="st8" d="M1301.6,3308v75.2c-2.9,0.5-5.8,1-8.8,1.4v-75.2C1295.8,3309,1298.7,3308.5,1301.6,3308z"/>
							</g>
						</g>
						<g>
							<g>
								<path class="st8" d="M1349.9,3295.8v75.2c-2.7,1.1-5.6,2.1-8.8,3.1v-75.2C1344.2,3297.9,1347.2,3296.9,1349.9,3295.8z"/>
							</g>
						</g>
					</g>
				</g>
				<g>
					<g>
						<g>
							<path class="st8" d="M1286.1,3168.4c0,22.3-97.7,40.3-218.3,40.3c-120.6,0-218.3-18.1-218.3-40.3
								c0-22.3,97.7-40.3,218.3-40.3C1188.4,3128.1,1286.1,3146.1,1286.1,3168.4z"/>
						</g>
					</g>
					<g>
						<g>
							<path class="st20" d="M1223.5,3168.4c0,15.9-69.7,28.8-155.7,28.8c-86,0-155.7-12.9-155.7-28.8c0-15.9,69.7-28.7,155.7-28.7
								C1153.8,3139.6,1223.5,3152.5,1223.5,3168.4z"/>
						</g>
					</g>
					<g>
						<g>
							<path class="st20" d="M1286.1,3168.4v75.1c0,22.3-97.7,40.3-218.3,40.3c-120.6,0-218.3-18-218.3-40.3v-75.1
								c0,22.3,97.7,40.3,218.3,40.3C1188.4,3208.7,1286.1,3190.6,1286.1,3168.4z"/>
						</g>
					</g>
					<g>
						<g>
							<g>
								<path class="st8" d="M879.2,3188.7v75.1c-3.2-1-6.1-2-8.8-3.1v-75.1C873.1,3186.7,876,3187.7,879.2,3188.7z"/>
							</g>
						</g>
						<g>
							<g>
								<path class="st8" d="M927.5,3199.3v75.1c-3-0.5-5.9-1-8.8-1.4v-75.1C921.5,3198.3,924.4,3198.8,927.5,3199.3z"/>
							</g>
						</g>
						<g>
							<g>
								<path class="st8" d="M975.7,3204.9v75.1c-3-0.2-5.9-0.5-8.8-0.8v-75.1C969.8,3204.4,972.7,3204.7,975.7,3204.9z"/>
							</g>
						</g>
						<g>
							<g>
								<path class="st8" d="M1023.9,3207.9v75.1c-3-0.1-5.9-0.2-8.8-0.3v-75.1C1018,3207.6,1021,3207.8,1023.9,3207.9z"/>
							</g>
						</g>
						<g>
							<g>
								<path class="st8" d="M1072.2,3208.7v75.1c-1.5,0-2.9,0-4.4,0c-1.5,0-3,0-4.4,0v-75.1c1.5,0,2.9,0,4.4,0
									C1069.3,3208.7,1070.7,3208.7,1072.2,3208.7z"/>
							</g>
						</g>
						<g>
							<g>
								<path class="st8" d="M1120.4,3207.5v75.1c-2.9,0.1-5.8,0.2-8.8,0.3v-75.1C1114.6,3207.8,1117.5,3207.6,1120.4,3207.5z"/>
							</g>
						</g>
						<g>
							<g>
								<path class="st8" d="M1168.7,3204.1v75.1c-2.9,0.3-5.8,0.6-8.8,0.8v-75.1C1162.9,3204.7,1165.8,3204.4,1168.7,3204.1z"/>
							</g>
						</g>
						<g>
							<g>
								<path class="st8" d="M1216.9,3197.8v75.1c-2.9,0.5-5.8,1-8.8,1.4v-75.1C1211.1,3198.8,1214.1,3198.3,1216.9,3197.8z"/>
							</g>
						</g>
						<g>
							<g>
								<path class="st8" d="M1265.2,3185.6v75.1c-2.7,1.1-5.6,2.1-8.8,3.1v-75.1C1259.5,3187.7,1262.5,3186.7,1265.2,3185.6z"/>
							</g>
						</g>
					</g>
				</g>
				<g>
					<g>
						<g>
							<path class="st8" d="M1366.1,3068.7c0,22.3-97.7,40.3-218.3,40.3c-120.6,0-218.3-18.1-218.3-40.3
								c0-22.3,97.7-40.3,218.3-40.3C1268.4,3028.4,1366.1,3046.4,1366.1,3068.7z"/>
						</g>
					</g>
					<g>
						<g>
							<path class="st20" d="M1303.5,3068.7c0,15.9-69.7,28.8-155.7,28.8c-86,0-155.7-12.9-155.7-28.8c0-15.9,69.7-28.7,155.7-28.7
								C1233.8,3039.9,1303.5,3052.8,1303.5,3068.7z"/>
						</g>
					</g>
					<g>
						<g>
							<path class="st20" d="M1366.1,3068.7v75.1c0,22.3-97.7,40.3-218.3,40.3c-120.6,0-218.3-18.1-218.3-40.3v-75.1
								c0,22.3,97.7,40.3,218.3,40.3C1268.4,3109,1366.1,3091,1366.1,3068.7z"/>
						</g>
					</g>
					<g>
						<g>
							<g>
								<path class="st8" d="M959.2,3089v75.1c-3.2-1-6.1-2-8.8-3.1v-75.1C953.1,3087,956.1,3088,959.2,3089z"/>
							</g>
						</g>
						<g>
							<g>
								<path class="st8" d="M1007.5,3099.6v75.1c-3-0.5-5.9-1-8.8-1.4v-75.1C1001.5,3098.6,1004.5,3099.1,1007.5,3099.6z"/>
							</g>
						</g>
						<g>
							<g>
								<path class="st8" d="M1055.7,3105.2v75.1c-3-0.2-5.9-0.5-8.8-0.8v-75.1C1049.8,3104.7,1052.7,3105,1055.7,3105.2z"/>
							</g>
						</g>
						<g>
							<g>
								<path class="st8" d="M1104,3108.2v75.1c-3-0.1-5.9-0.2-8.8-0.3v-75.1C1098.1,3107.9,1101,3108.1,1104,3108.2z"/>
							</g>
						</g>
						<g>
							<g>
								<path class="st8" d="M1152.2,3109v75.1c-1.5,0-2.9,0-4.4,0s-3,0-4.4,0V3109c1.5,0,2.9,0,4.4,0S1150.8,3109,1152.2,3109z"/>
							</g>
						</g>
						<g>
							<g>
								<path class="st8" d="M1200.4,3107.8v75.1c-2.9,0.1-5.8,0.2-8.8,0.3v-75.1C1194.6,3108.1,1197.6,3107.9,1200.4,3107.8z"/>
							</g>
						</g>
						<g>
							<g>
								<path class="st8" d="M1248.7,3104.4v75.1c-2.9,0.3-5.8,0.6-8.8,0.8v-75.1C1242.9,3105,1245.8,3104.7,1248.7,3104.4z"/>
							</g>
						</g>
						<g>
							<g>
								<path class="st8" d="M1296.9,3098.1v75.1c-2.9,0.5-5.8,1-8.8,1.4v-75.1C1291.2,3099.1,1294.1,3098.6,1296.9,3098.1z"/>
							</g>
						</g>
						<g>
							<g>
								<path class="st8" d="M1345.2,3085.9v75.1c-2.7,1.1-5.6,2.1-8.8,3.1V3089C1339.6,3088,1342.5,3087,1345.2,3085.9z"/>
							</g>
						</g>
					</g>
				</g>
			</g>
			<g>
				<g>
					<g>
						<path class="st11" d="M438.5,1423.6c-30.8,0-55.3,24.8-55.3,55.6c0,30.4,24.5,55.3,55.3,55.3c30.4,0,55.3-24.9,55.3-55.3
							C493.8,1448.4,468.9,1423.6,438.5,1423.6z M438.5,1517.2c-21.1,0-38.1-17.1-38.1-38.1c0-21.1,17-38.3,38.1-38.3
							c20.9,0,38,17.1,38,38.3C476.5,1500.1,459.3,1517.2,438.5,1517.2z"/>
					</g>
				</g>
			</g>
			<g>
				<g>
					<path class="st2" d="M590.7,1599.2c0,2.9-2.6,5.5-5.6,5.5c-17.8,0-32.7,14.2-32.7,31.7c0,2.9-2.2,5.5-5.2,5.5
						c-3.3,0-6.3-2.6-6.3-5.5c0-17.5-14.5-31.7-32.3-31.7c-3,0-5.6-2.6-5.6-5.5c0-3.3,2.6-5.5,5.6-5.5c17.8,0,32.3-14.6,32.3-32.1
						c0-2.9,2.6-5.5,5.6-5.5c3.3,0,5.9,2.6,5.9,5.5c0,17.5,14.9,32.1,32.7,32.1C588.1,1593.7,590.7,1595.9,590.7,1599.2z"/>
				</g>
			</g>
			<g>
				<g>
					<path class="st1" d="M660.5,1457.1c0,21.3-17.5,38.8-38.8,38.8c-21.6,0-38.8-17.5-38.8-38.8c0-21.6,17.2-39,38.8-39
						C643,1418.1,660.5,1435.6,660.5,1457.1z"/>
				</g>
			</g>
			<g>
				<g>
					<path class="st13" d="M2776.6,2484.4l-28-16.1l30-17.3c4.1-2.4,5.5-7.7,3.2-11.8c-2.4-4.1-7.6-5.5-11.8-3.2l-30,17.3v-32.3
						c0-4.8-3.9-8.6-8.6-8.6s-8.6,3.9-8.6,8.6v32.3l-30-17.3c-4.1-2.4-9.4-1-11.8,3.2c-2.4,4.1-1,9.4,3.2,11.8l30,17.3l-28,16.1
						c-4.1,2.4-5.5,7.7-3.2,11.8c1.6,2.8,4.5,4.3,7.5,4.3c1.5,0,2.9-0.4,4.3-1.2l28-16.1v34.7c0,4.8,3.9,8.6,8.6,8.6
						s8.6-3.9,8.6-8.6v-34.7l28,16.1c1.4,0.8,2.8,1.2,4.3,1.2c3,0,5.9-1.5,7.5-4.3C2782.2,2492.1,2780.7,2486.8,2776.6,2484.4z"/>
				</g>
			</g>
			<g class="st21">
				<g>
					<g>
						<path class="st13" d="M1368.1,2012.4c0,21.5-17.6,39-39,39c-21.7,0-39-17.6-39-39c0-21.7,17.3-39.2,39-39.2
							C1350.5,1973.1,1368.1,1990.7,1368.1,2012.4z"/>
					</g>
				</g>
			</g>
			<g>
				<g>
					<g>
						<path class="st8" d="M1230.4,2205.5c-19.7,0-35.7-16-35.7-35.7c0-19.7,16-35.7,35.7-35.7c19.6,0,35.5,16,35.5,35.7
							C1265.9,2189.4,1250,2205.5,1230.4,2205.5z M1230.5,2147c-12.5,0-22.7,10.2-22.7,22.8s10.2,22.7,22.7,22.7
							c12.3,0,22.4-10.2,22.4-22.7S1242.8,2147,1230.5,2147z"/>
					</g>
				</g>
			</g>
			<g>
				<g>
					<g>
						<g>
							<path class="st2" d="M595.2,3036.1c-4.2,1-13.8,3.2-16.7,3.9h-95.1c-9-1.6-17.9-3.3-26.7-5.6c-28.8-7.6-71.7-26.5-66.4-55.3
								c2.7-14.6,17.5-22.9,30.8-23.6c11.9-0.7,23,3.3,33.1,7.3c-0.8-3.5-5.8-8.4-12.2-9.5c-8.4-1.6-17.8,0.3-26.9-3.9
								c-9.8-4.6-15.6-16.6-13-27.2c1.7-7,12.1-10.6,19.3-13.2c-13.7-7.1-38.3-23.2-34.2-45.3c1.8-9.1,6.7-17.7,5.9-25.9
								c-1.3-13.8-17.1-21.5-31.7-28.5c-45.5-22-86-62.5-117.2-117c-27.7-48.5-45.4-102.2-62.5-154.2c-8.3-25.2-6.3-42.4,6.1-51.1
								c11.1-7.8,26.1-4.1,35.3,2.6c22.6,16.4,40.6,75.3,131.2,159.3c78.8,72.8,93.3,75.4,136.6,188.4c15,39,30.4,79.4,57.5,111.3
								c18.6,21.9,51.6,47.9,49.6,84.2C597.8,3034.4,596.7,3035.7,595.2,3036.1z"/>
						</g>
					</g>
				</g>
				<g>
					<g>
						<g>
							<path class="st6" d="M564.5,3039.9c-25.9-42.4-70.4-72.5-92.2-118.7c-4.4-9.4-7.7-19.2-11-28.8c-10.4-31-16.2-44.5-53.7-89.5
								l-166.2-199.7c-2.8-3.5,2.4-7.9,5.3-4.4c186.2,223.8,196.6,232.7,211.1,264.8c8,17.6,12.5,37.2,20.7,54.6
								c21.4,45.6,68.4,77.3,93.9,121.6L564.5,3039.9L564.5,3039.9z"/>
						</g>
					</g>
				</g>
				<g>
					<g>
						<g>
							<path class="st2" d="M661.8,3000.1c-1.1,14.2,9.2,27.5-6.3,39.8h-72.3c-7.1-9.8-6.8-21.6-5.2-33.7
								c6.7-48.2,23.2-69,30.4-95.5c9-33.2,0.6-70.6,5.1-105.2c5.9-47.2,35.6-92.1,26.3-138.9c-0.8-4.4,5.6-5.8,6.7-1.7l39,135.5
								c12.6,43.9,25.4,91.9,4.8,134.3C682.1,2952,664,2969.3,661.8,3000.1z"/>
						</g>
					</g>
				</g>
				<g>
					<g>
						<g>
							<path class="st6" d="M631.4,2986.9c-5.8,17-8.3,35.2-10.2,53.1h-7c4.6-42.5,9.6-54.3,19.5-77.2
								c22.6-51.5,13.6-44.8-1.2-170.5c-0.2-1.9,1.1-3.7,3-4c1.9-0.2,3.7,1.1,3.9,3c14.4,107.3,16.4,115.3,14.5,131.9
								C651.1,2946,638.8,2965.6,631.4,2986.9z"/>
						</g>
					</g>
				</g>
				<g>
					<g>
						<g>
							<path class="st2" d="M589.3,3039.9h-68c-29.2-24.4-33.3-54.2-37.1-91.6c-4.3-44-7.8-54-29.1-90.3
								c-22.2-37.9-29.1-53.1-32.6-120.5c-3.2-56.5-5.7-70.8-32.9-131c-4.5-10-9.2-20.2-13.3-30.6c-8-19.8-32.6-108.1-19-116.3
								c5.2-3.1,10.5,3.2,12.3,5.3c7.2,8.4,145.9,179.2,150,184.3c16.6,20.4,37.2,45.7,40.7,75.9c2.3,19.5-3.2,40.3,0.4,59
								c4.1,21.5,19.2,39,29.7,60c22.9,46,14.6,101.8,18.2,124.4c1.7,10.8,2.3,15.3-4.8,34C602.2,3006.3,596.6,3023.2,589.3,3039.9z
								"/>
						</g>
					</g>
				</g>
				<g>
					<g>
						<g>
							<path class="st6" d="M571.1,3039.9h-6.8c-2-29,2.1-49.6,0.3-77c-4.5-66.6-46.9-126.6-62.5-192.7
								c-10.1-44-9.3-97.3-42.6-130.6c-9.2-9.3-19.9-15.7-28.4-26.3c-8.5-10.6-13.7-27-6-39.5c2.3-3.9,8.3-0.5,5.9,3.6
								c-6,9.7-1.5,22.8,5.5,31.5c7.9,9.7,18.4,16.2,27.9,25.7c35.3,35.3,34.6,92.1,44.4,133.9c15.1,65.3,58,125.6,62.5,193.9
								C573.2,2988.5,569.3,3015.1,571.1,3039.9z"/>
						</g>
					</g>
				</g>
			</g>
			<g>
				<g>
					<g>
						<path class="st20" d="M3674.3,509.5c-31.3,0-56.3,25.3-56.3,56.6c0,30.9,25,56.3,56.3,56.3c30.9,0,56.3-25.3,56.3-56.3
							C3730.6,534.8,3705.3,509.5,3674.3,509.5z M3674.3,608.8c-23.8,0-42.7-19.3-42.7-42.8c0-23.7,18.9-43,42.7-43
							c23.4,0,42.7,19.3,42.7,43C3717,589.5,3697.8,608.8,3674.3,608.8z"/>
					</g>
				</g>
			</g>
			<g>
				<g>
					<path class="st2" d="M3850.6,715.2c0,3-2.6,5.6-5.7,5.6c-18.1,0-33.2,14.4-33.2,32.2c0,3-2.3,5.6-5.3,5.6
						c-3.4,0-6.4-2.6-6.4-5.6c0-17.8-14.7-32.2-32.8-32.2c-3,0-5.7-2.6-5.7-5.6c0-3.3,2.6-5.6,5.7-5.6c18.1,0,32.8-14.8,32.8-32.6
						c0-3,2.6-5.6,5.7-5.6c3.4,0,6,2.6,6,5.6c0,17.8,15.1,32.6,33.2,32.6C3848,709.7,3850.6,711.9,3850.6,715.2z"/>
				</g>
			</g>
			<g>
				<g>
					<path class="st11" d="M3889.3,556.4c0,14.4-11.8,26.3-26.3,26.3c-14.6,0-26.3-11.8-26.3-26.3c0-14.6,11.7-26.4,26.3-26.4
						C3877.5,530,3889.3,541.8,3889.3,556.4z"/>
				</g>
			</g>
		</g>
		<g>
			<g>
				<path class="st18" d="M201.8,847.3h754.4C974.7,737.6,908,656.2,825,700.6c-16-73.1-72.7-113.1-141.7-88.8
					c-3.8-73.9-36.7-124.2-90.2-124.2c-66.5,0-143.1,77.7-185.5,182c-33.4-39.8-75.9-64.9-117.7-64.9c-77.4,0-123.5,85.9-102.9,192
					C190.4,814.2,195.4,831.2,201.8,847.3z"/>
			</g>
		</g>
		<g>
			<g>
				<path class="st1" d="M2617.8,419.3h589.4c6.1-43.6-4.8-85.1-31.2-105.9c-20.9-16.4-47-16.5-71.6-3.4
					c-4.8-21.9-14.4-40.9-29-54.6c-22.3-20.9-51.8-24.9-81.3-14.5c-2.9-57.5-28.5-96.6-70.1-96.6c-51.7,0-111.3,60.4-144.3,141.6
					c-26-31-59-50.5-91.6-50.5c-60.2,0-96,66.8-80,149.3C2610.4,396.7,2613.7,408.3,2617.8,419.3z"/>
			</g>
		</g>
	</g>
</g>
<path class="st22" d="M6103.1-228.8"/>
</svg>
