<?xml version="1.0" encoding="UTF-8"?>
<!DOCTYPE svg PUBLIC "-//W3C//DTD SVG 1.1//EN" "http://www.w3.org/Graphics/SVG/1.1/DTD/svg11.dtd">
<!-- Creator: CorelDRAW 2021 (64-Bit) -->
<svg xmlns="http://www.w3.org/2000/svg" xml:space="preserve" width="69.6285mm" height="23.1187mm" version="1.1" style="shape-rendering:geometricPrecision; text-rendering:geometricPrecision; image-rendering:optimizeQuality; fill-rule:evenodd; clip-rule:evenodd"
viewBox="0 0 7012.27 2328.28"
 xmlns:xlink="http://www.w3.org/1999/xlink"
 xmlns:xodm="http://www.corel.com/coreldraw/odm/2003">
 <defs>
  <style type="text/css">
   <![CDATA[
    .fil4 {fill:#00BBCE}
    .fil0 {fill:#99FFFF}
    .fil5 {fill:#FEDB00}
    .fil6 {fill:#FF7800}
    .fil2 {fill:#FF7900}
    .fil1 {fill:#FFDC00}
    .fil3 {fill:white}
    .fil7 {fill:white;fill-rule:nonzero}
   ]]>
  </style>
 </defs>
 <g id="Layer_x0020_1">
  <metadata id="CorelCorpID_0Corel-Layer"/>
  <g id="_1904908902944">
   <path class="fil0" d="M498.04 1066.63c0,-386.6 313.41,-700.01 700,-700.01 271.97,0 507.71,155.1 623.6,381.66 100.87,-67.41 199.06,-142.74 293.45,-226.68 -186.03,-312.34 -527.1,-521.6 -917.05,-521.6 -589.07,0 -1066.62,477.56 -1066.62,1066.63 0,64.59 5.73,127.82 16.73,189.23 118.54,-3.08 241.96,-12.44 368.25,-29.29 -12.01,-51.37 -18.36,-104.92 -18.36,-159.95z"/>
   <path class="fil1" d="M516.4 1226.57c-126.29,16.85 -249.71,26.2 -368.25,29.29 -49.4,1.29 -97.96,1.49 -145.53,0.69 53.08,23.63 105.87,43.59 158.27,60.13 140.27,44.3 277.86,64.16 411.63,64.5 501.16,1.3 948.66,-271.34 1281.46,-559.54 104.97,-90.91 198.53,-183.36 278.76,-269.26 204.21,-218.6 322.1,-394.72 322.1,-394.72 -105.53,136.21 -219.56,257.05 -339.75,363.92 -94.39,83.94 -192.58,159.27 -293.45,226.68 -415.71,277.81 -876.99,421.17 -1305.25,478.3z"/>
   <path class="fil2" d="M1853.99 821.65c-332.81,288.2 -780.3,560.84 -1281.46,559.54 -133.77,-0.34 -271.36,-20.2 -411.63,-64.5 -52.4,-16.55 -105.18,-36.51 -158.27,-60.13 0,0 -38.27,191.74 177.4,555.45 0,0 78.51,-14.39 208.01,-51.41 102.43,-29.28 236.77,-72.72 389.37,-134.39 329.7,-133.25 744.66,-351.6 1107.33,-696.14 98.81,-93.86 193.74,-197.09 282,-310.52 107.62,-138.3 205.33,-291.77 288.11,-461.89 0,0 -117.89,176.12 -322.1,394.72 -80.24,85.9 -173.79,178.35 -278.76,269.26z"/>
   <path class="fil3" d="M2264.67 1066.63c0,-35.58 -1.74,-70.76 -5.15,-105.45l-381.11 270.8c-74.3,306.8 -350.73,534.67 -680.37,534.67 -157.86,0 -303.54,-52.27 -420.63,-140.43 -152.61,61.66 -286.94,105.11 -389.37,134.39 160.13,186.74 383.72,317.47 637.34,358.75 650.36,105.86 1239.29,-396.86 1239.29,-1052.72z"/>
   <path class="fil4" d="M1198.04 2133.25c307.07,0 583.83,-129.76 778.46,-337.44 -45.31,-5.37 -91.4,-8.13 -138.14,-8.13 -316.46,0 -603.39,126.48 -812.98,331.66 56.21,9.15 113.88,13.91 172.67,13.91z"/>
   <path class="fil5" d="M4699.15 716.19l0 1176.23c0,8.72 23.46,32.18 32.18,32.18l125.13 0c8.48,0 24.52,-17.41 29.77,-23.87 10.5,-12.94 6.03,-20.71 5.98,-51.21l0 -786.53c0.49,0.72 1.11,1.05 1.3,2.28 0.19,1.23 1.03,1.79 1.28,2.29l9.37 19.25c4.89,10.34 6.88,17.21 11.85,27.47l72.79 163.16c70.43,156.78 145.07,330.35 216.82,483.91 19.54,41.8 54.25,128.36 72.7,163.26l107.26 0 46.48 -107.26c8.57,-17.65 15.71,-35.39 24.01,-54.66 8.09,-18.8 16.59,-34.99 24.53,-54.11 50.26,-120.98 114.34,-254.13 167,-376.43 8.3,-19.27 15.44,-37 24,-54.66l96.53 -214.5 0 779.38c0,15.24 -3.37,42.46 1.76,55.44 2.89,7.32 22.37,26.79 30.41,26.79l128.71 0c8.72,0 32.17,-23.46 32.17,-32.18l0 -1176.23c0,-9.74 -22.43,-29.37 -29.46,-31.31l-192.19 -0.87c-4.72,20.26 -39.32,90.71 -49.99,114.47 -8.77,19.52 -16.38,37.56 -25.15,57.08 -8.18,18.21 -17.87,37.21 -25.99,56.23 -55.87,130.63 -124.29,269.45 -178.76,396.85l-76.42 170.26c-11.86,25.4 -42.72,95.51 -47.68,116.78l-7.16 0c-1.34,-16.14 -84.36,-202.63 -97.73,-231.18l-276.46 -628.06c-5.68,-12.18 -15.1,-52.43 -29.8,-52.43l-193.06 0c-8.72,0 -32.18,23.45 -32.18,32.18z"/>
   <path class="fil0" d="M3959.09 1238.16l-150.15 0 0 -371.81c97.69,0 239.89,-12.49 308.57,38.21 21.27,15.71 31.86,27.6 44.26,52.27 6.26,12.47 10.2,20.88 13.39,36.65 9.38,46.26 5.51,91.25 -12.1,130.48 -35.81,79.81 -105.99,114.2 -203.99,114.2zm-346.78 -521.97l0 1176.23c0,8.72 23.45,32.18 32.18,32.18l132.28 0c8.72,0 32.18,-23.46 32.18,-32.18l0 -471.93c59.11,0 121.74,-5.89 172.9,20.15 64.93,33.04 116.15,133.27 152.64,194.16 47.68,79.55 133.68,218.48 171.41,289.79l185.91 0c14.01,-60.14 54.83,6.92 -43.6,-149.46 -31.11,-49.44 -59.26,-95.48 -90.2,-145.77 -36.57,-59.44 -127.69,-216.57 -181.91,-261.41 -7.88,-6.52 -11.38,-7.32 -16.79,-15.39 28.78,-6.7 66.57,-31.26 88.41,-47.44 54.25,-40.22 92.47,-91.26 115.86,-155.85 30.52,-84.27 26.24,-185.9 -8.6,-267.67 -21.07,-49.46 -40.46,-68.85 -74.98,-103.77 -53.03,-53.67 -160.66,-93.82 -267.26,-93.82l-368.25 0c-8.73,0 -32.18,23.45 -32.18,32.18z"/>
   <path class="fil3" d="M6240.04 1009.35c0,122.06 59.57,208.78 153.74,275.27 62.55,44.17 208.85,116.44 281.24,154.93 51.1,27.17 133.46,82.4 133.46,156.12l0 25.03c0,182.08 -293.72,165.46 -461.22,82.25 -12.83,-6.36 -19.56,-10.65 -31.44,-18.6 -10.91,-7.29 -19.56,-14.22 -29.31,-20.75l-46.48 17.88 0 185.91c54.77,28.97 71.48,40.59 140.94,55.69 162.27,35.28 362.7,39.14 502.61,-59.25 65.27,-45.88 128.68,-132.15 128.68,-243.13 0,-90.8 -5.39,-124.25 -56.44,-200.98 -61.34,-92.2 -192.23,-161.15 -290.35,-210.16 -94.33,-47.13 -221.66,-95.89 -221.66,-210.94 0,-159.93 234.91,-168.29 366.77,-130.81 47.08,13.37 73.71,28.71 108.73,52.16l46.44 -25.11 0.03 -175.1c-16.34,-4.36 -36.39,-25.48 -113.44,-40.28 -74.02,-14.22 -121.77,-13.34 -197.59,-13.34 -106.19,0 -206.96,36 -287.53,91.44l-48.04 44.91c-47.83,59.59 -79.16,110.58 -79.16,206.87z"/>
   <path class="fil6" d="M2965.21 1946.03c97.32,0 142.27,0.14 238.63,-22.35 42.58,-9.94 111.88,-34.86 143.9,-56.3l0 -157.31c-14.6,-3.4 -19.98,-11.28 -33.33,-17.17 -15.28,-6.73 -21.79,3.3 -34.54,10.06 -166.61,88.29 -439.88,93.02 -566.48,-69.98 -17.49,-22.52 -29.64,-37.25 -43.74,-63.52 -38.68,-72.04 -66.78,-192.36 -55.78,-271.5 3.49,-25.16 -0.13,-49.44 9.07,-98.18 14.95,-79.17 51.51,-166.71 107.18,-221.74 39.38,-38.93 71.82,-69.85 125.75,-92.34 101.38,-42.29 222.23,-49.3 332.29,-17.07 55.58,16.28 112.24,45.89 120.27,47.77 9.53,-6.38 27.36,-18.66 39.33,-21.45l0 -171.61c-28.77,-6.7 -53.6,-26.23 -124.21,-40.24 -191.99,-38.1 -391.39,-19.32 -551.49,93.88 -29.34,20.74 -57.3,45 -83.15,70.59 -106.66,105.59 -179.17,283.57 -177.86,433.48 0.11,12.21 0.38,22.99 -1.1,34.94l4.36 104.84c4.75,49.66 13.88,86.78 25.34,128.38 39.51,143.38 145.5,271 277.68,337.25 62.19,31.17 156.3,59.58 247.89,59.58z"/>
   <path class="fil7" d="M2469.58 2240.83l0 44.3 -29 0 0 -128.63 45.41 0c32.43,0 48.62,13.66 48.62,41 0,12.92 -4.65,23.35 -13.96,31.35 -9.31,7.96 -21.71,11.97 -37.26,11.97l-13.81 0zm0 -62.1l0 40.11 11.39 0c15.43,0 23.14,-6.77 23.14,-20.27 0,-13.22 -7.71,-19.84 -23.14,-19.84l-11.39 0z"/>
   <path id="_1" class="fil7" d="M2594.44 2287.37c-15.31,0 -27.34,-4.29 -36.09,-12.86 -8.76,-8.57 -13.13,-20.24 -13.13,-34.94 0,-15.19 4.52,-27.1 13.62,-35.67 9.09,-8.57 21.41,-12.86 36.87,-12.86 15.25,0 27.22,4.29 35.88,12.86 8.67,8.57 13.01,19.93 13.01,34.05 0,15.25 -4.46,27.31 -13.4,36.15 -8.94,8.85 -21.19,13.26 -36.75,13.26zm0.74 -74.62c-6.7,0 -11.9,2.3 -15.61,6.89 -3.71,4.62 -5.58,11.14 -5.58,19.57 0,17.63 7.14,26.45 21.38,26.45 13.56,0 20.35,-9.06 20.35,-27.15 0,-17.18 -6.86,-25.75 -20.54,-25.75z"/>
   <path id="_2" class="fil7" d="M2796.01 2193.28l-26.46 91.86 -29.79 0 -13.54 -53.83c-0.89,-3.59 -1.41,-7.5 -1.53,-11.75l-0.52 0c-0.42,4.68 -1.01,8.48 -1.8,11.39l-14.54 54.19 -29.4 0 -25.93 -91.86 28.87 0 12.65 59.92c0.6,2.82 1.07,6.21 1.34,10.22l0.55 0c0.3,-4.19 0.83,-7.71 1.62,-10.59l15.77 -59.55 27.01 0 14.17 59.92c0.37,1.5 0.77,4.95 1.26,10.41l0.64 0c0.27,-3.46 0.77,-6.96 1.41,-10.41l11.93 -59.92 26.28 0z"/>
   <path id="_3" class="fil7" d="M2892 2247.29l-59.92 0c0.96,13.32 9.38,19.99 25.21,19.99 10.1,0 18.98,-2.39 26.64,-7.16l0 20.45c-8.48,4.53 -19.51,6.8 -33.1,6.8 -14.81,0 -26.34,-4.1 -34.53,-12.34 -8.18,-8.21 -12.28,-19.69 -12.28,-34.39 0,-15.25 4.4,-27.34 13.28,-36.25 8.85,-8.91 19.72,-13.35 32.64,-13.35 13.38,0 23.76,3.98 31.08,11.91 7.32,7.96 10.99,18.76 10.99,32.39l0 11.94zm-26.27 -17.42c0,-13.13 -5.33,-19.72 -15.98,-19.72 -4.53,0 -8.48,1.87 -11.79,5.64 -3.33,3.77 -5.33,8.48 -6.06,14.08l33.84 0z"/>
   <path id="_4" class="fil7" d="M2968.8 2218.85c-3.43,-1.87 -7.41,-2.79 -11.94,-2.79 -6.15,0 -10.97,2.27 -14.45,6.77 -3.46,4.53 -5.21,10.66 -5.21,18.43l0 43.88 -28.32 0 0 -91.86 28.32 0 0 17.05 0.37 0c4.49,-12.46 12.55,-18.67 24.21,-18.67 3,0 5.33,0.36 7.02,1.07l0 26.12z"/>
   <path id="_5" class="fil7" d="M3064.51 2247.29l-59.92 0c0.96,13.32 9.38,19.99 25.21,19.99 10.1,0 18.98,-2.39 26.64,-7.16l0 20.45c-8.48,4.53 -19.51,6.8 -33.1,6.8 -14.81,0 -26.34,-4.1 -34.53,-12.34 -8.18,-8.21 -12.28,-19.69 -12.28,-34.39 0,-15.25 4.4,-27.34 13.28,-36.25 8.85,-8.91 19.72,-13.35 32.64,-13.35 13.38,0 23.76,3.98 31.08,11.91 7.32,7.96 10.99,18.76 10.99,32.39l0 11.94zm-26.27 -17.42c0,-13.13 -5.33,-19.72 -15.98,-19.72 -4.53,0 -8.48,1.87 -11.79,5.64 -3.33,3.77 -5.33,8.48 -6.06,14.08l33.84 0z"/>
   <path id="_6" class="fil7" d="M3171.25 2285.13l-28.35 0 0 -12.65 -0.34 0c-6.46,9.92 -15.95,14.88 -28.44,14.88 -11.48,0 -20.73,-4.04 -27.72,-12.16 -7.01,-8.09 -10.49,-19.42 -10.49,-33.96 0,-15.19 3.86,-27.34 11.57,-36.5 7.71,-9.15 17.82,-13.72 30.31,-13.72 11.84,0 20.08,4.23 24.76,12.74l0.34 0 0 -54.62 28.35 0 0 135.98zm-27.81 -44.67l0 -6.92c0,-5.97 -1.74,-10.93 -5.2,-14.88 -3.46,-3.95 -8,-5.9 -13.54,-5.9 -6.27,0 -11.21,2.45 -14.73,7.37 -3.51,4.96 -5.3,11.73 -5.3,20.33 0,8.09 1.72,14.3 5.12,18.65 3.43,4.37 8.15,6.55 14.18,6.55 5.75,0 10.44,-2.3 14.05,-6.89 3.62,-4.62 5.42,-10.72 5.42,-18.31z"/>
   <path id="_7" class="fil7" d="M3274.51 2274.45l-0.37 0 0 10.69 -28.32 0 0 -135.98 28.32 0 0 57.93 0.37 0c7.01,-10.69 16.96,-16.04 29.88,-16.04 11.81,0 20.94,4.07 27.34,12.19 6.4,8.15 9.62,19.26 9.62,33.38 0,15.31 -3.74,27.58 -11.21,36.87 -7.5,9.28 -17.48,13.9 -29.98,13.9 -11.3,0 -19.84,-4.29 -25.65,-12.92zm-0.81 -38.73l0 9.4c0,5.94 1.69,10.85 5.12,14.73 3.4,3.89 7.77,5.81 13.1,5.81 6.44,0 11.46,-2.48 15.01,-7.46 3.56,-5 5.36,-12.07 5.36,-21.22 0,-7.59 -1.65,-13.54 -4.89,-17.83 -3.27,-4.26 -7.91,-6.4 -13.97,-6.4 -5.66,0 -10.37,2.1 -14.11,6.36 -3.74,4.23 -5.61,9.77 -5.61,16.6z"/>
   <path id="_8" class="fil7" d="M3447.19 2193.28l-37.32 99.21c-8.97,23.85 -22.48,35.79 -40.55,35.79 -6.86,0 -12.52,-0.77 -16.96,-2.33l0 -22.6c3.8,2.21 7.87,3.3 12.31,3.3 7.29,0 12.38,-3.42 15.25,-10.31l4.84 -11.39 -37.32 -91.68 31.41 0 17.11 55.88c1.08,3.45 1.93,7.56 2.52,12.31l0.36 0c0.55,-3.49 1.53,-7.53 2.97,-12.13l17.3 -56.07 28.08 0z"/>
   <path id="_9" class="fil7" d="M3506.14 2280.21l0 -28.72c5.2,4.37 10.87,7.65 16.96,9.83 6.09,2.17 12.25,3.27 18.46,3.27 3.68,0 6.86,-0.34 9.56,-0.98 2.72,-0.67 4.99,-1.56 6.83,-2.76 1.83,-1.17 3.18,-2.54 4.07,-4.1 0.92,-1.59 1.35,-3.31 1.35,-5.18 0,-2.52 -0.7,-4.74 -2.15,-6.71 -1.44,-1.99 -3.39,-3.83 -5.88,-5.48 -2.48,-1.68 -5.42,-3.31 -8.84,-4.84 -3.4,-1.56 -7.08,-3.15 -11.03,-4.77 -10.04,-4.16 -17.54,-9.28 -22.47,-15.34 -4.93,-6.03 -7.38,-13.32 -7.38,-21.86 0,-6.71 1.32,-12.46 4.01,-17.27 2.7,-4.83 6.37,-8.78 11,-11.9 4.65,-3.09 10.01,-5.39 16.1,-6.86 6.09,-1.47 12.55,-2.21 19.38,-2.21 6.71,0 12.65,0.42 17.83,1.22 5.15,0.8 9.92,2.05 14.3,3.74l0 26.83c-2.18,-1.5 -4.5,-2.82 -7.05,-3.96 -2.54,-1.13 -5.17,-2.07 -7.87,-2.84 -2.66,-0.74 -5.36,-1.29 -8.03,-1.66 -2.66,-0.33 -5.17,-0.51 -7.55,-0.51 -3.31,0 -6.28,0.3 -8.97,0.92 -2.7,0.64 -4.96,1.53 -6.83,2.66 -1.84,1.14 -3.28,2.49 -4.32,4.08 -1.01,1.59 -1.5,3.36 -1.5,5.33 0,2.18 0.55,4.1 1.68,5.78 1.14,1.72 2.76,3.34 4.87,4.87 2.07,1.5 4.62,3 7.62,4.47 2.97,1.47 6.36,2.97 10.13,4.53 5.15,2.15 9.74,4.44 13.84,6.86 4.11,2.42 7.62,5.18 10.53,8.21 2.94,3.06 5.18,6.55 6.74,10.46 1.56,3.9 2.33,8.46 2.33,13.66 0,7.2 -1.35,13.2 -4.07,18.1 -2.73,4.87 -6.41,8.82 -11.09,11.82 -4.65,3.03 -10.07,5.21 -16.25,6.52 -6.21,1.32 -12.74,1.96 -19.63,1.96 -7.04,0 -13.75,-0.58 -20.12,-1.77 -6.36,-1.2 -11.9,-3 -16.56,-5.39z"/>
   <path id="_10" class="fil7" d="M3670.66 2179.29c-10.11,0 -18.19,3.83 -24.22,11.48 -5.97,7.59 -8.97,17.66 -8.97,30.22 0,12.67 2.97,22.74 8.88,30.24 5.96,7.41 13.84,11.12 23.58,11.12 10.07,0 17.97,-3.59 23.79,-10.78 5.85,-7.29 8.79,-17.3 8.79,-30.04 0,-13.22 -2.82,-23.55 -8.42,-30.96 -5.64,-7.52 -13.44,-11.29 -23.43,-11.29zm22.96 103.43c3.09,3.33 6.06,6.09 8.88,8.24 2.81,2.18 5.63,3.86 8.48,5.11 2.85,1.26 5.75,2.15 8.72,2.61 3,0.48 6.28,0.74 9.8,0.74 0.95,0 1.99,-0.06 3.12,-0.15 1.14,-0.1 2.3,-0.22 3.46,-0.43 1.16,-0.21 2.3,-0.46 3.36,-0.74 1.08,-0.24 2.05,-0.58 2.97,-0.92l0 24.37c-1.92,0.55 -4.56,1.1 -7.96,1.62 -3.37,0.55 -7.47,0.83 -12.32,0.83 -5.87,0 -11.26,-0.98 -16.19,-2.88 -4.92,-1.92 -9.68,-4.53 -14.18,-7.87 -4.52,-3.3 -8.9,-7.19 -13.19,-11.69 -4.29,-4.47 -8.72,-9.32 -13.31,-14.45 -8.79,-0.22 -16.79,-2.05 -23.95,-5.46 -7.19,-3.42 -13.32,-7.99 -18.4,-13.78 -5.09,-5.75 -9,-12.55 -11.79,-20.33 -2.78,-7.74 -4.16,-16.1 -4.16,-25.01 0,-20.39 5.84,-36.84 17.57,-49.33 11.78,-12.56 27.49,-18.86 47.09,-18.86 18.25,0 33,6.06 44.3,18.13 11.36,11.96 17.06,27.8 17.06,47.45 0,15.37 -3.46,28.6 -10.41,39.65 -6.92,10.94 -16.6,18.65 -28.96,23.15z"/>
   <path id="_11" class="fil7" d="M3859.22 2229.44c0,38.6 -18.01,57.93 -53.99,57.93 -34.94,0 -52.39,-18.86 -52.39,-56.59l0 -74.27 29.06 0 0 74.62c0,20.82 8.14,31.23 24.4,31.23 15.95,0 23.94,-10.04 23.94,-30.16l0 -75.68 28.97 0 0 72.93z"/>
   <path id="_12" class="fil7" d="M4000.33 2285.13l-31.56 0 -9.15 -28.63 -45.75 0 -9.05 28.63 -31.42 0 46.85 -128.63 34.35 0 45.74 128.63zm-47.36 -50.86l-13.81 -43.23c-1.02,-3.24 -1.74,-7.1 -2.18,-11.57l-0.7 0c-0.3,3.77 -1.04,7.5 -2.24,11.21l-13.99 43.6 32.91 0z"/>
   <path id="_13" class="fil7" d="M4124.32 2285.13l-33.28 0 -20 -33.1c-1.5,-2.51 -2.94,-4.74 -4.31,-6.73 -1.38,-1.96 -2.76,-3.65 -4.17,-5.06 -1.41,-1.41 -2.88,-2.48 -4.41,-3.24 -1.53,-0.74 -3.18,-1.11 -4.95,-1.11l-7.81 0 0 49.24 -29 0 0 -128.63 45.93 0c31.23,0 46.85,11.66 46.85,34.97 0,4.5 -0.7,8.63 -2.08,12.43 -1.38,3.8 -3.31,7.23 -5.82,10.29 -2.51,3.03 -5.54,5.66 -9.09,7.87 -3.59,2.24 -7.53,3.95 -11.91,5.21l0 0.36c1.93,0.61 3.77,1.56 5.58,2.91 1.8,1.35 3.51,2.91 5.21,4.71 1.68,1.81 3.27,3.74 4.8,5.79 1.53,2.05 2.91,4.07 4.17,6.06l24.31 38.03zm-78.94 -106.92l0 35.79 12.55 0c6.21,0 11.21,-1.8 14.98,-5.39 3.83,-3.65 5.75,-8.18 5.75,-13.54 0,-11.26 -6.73,-16.87 -20.2,-16.87l-13.07 0z"/>
   <polygon id="_14" class="fil7" points="4213.47,2285.13 4136.31,2285.13 4136.31,2156.51 4210.5,2156.51 4210.5,2180.08 4165.31,2180.08 4165.31,2208.71 4207.38,2208.71 4207.38,2232.19 4165.31,2232.19 4165.31,2261.62 4213.47,2261.62 "/>
   <polygon id="_15" class="fil7" points="4324.51,2156.51 4324.51,2178.92 4313.76,2178.92 4313.76,2262.72 4324.51,2262.72 4324.51,2285.13 4274.01,2285.13 4274.01,2262.72 4284.76,2262.72 4284.76,2178.92 4274.01,2178.92 4274.01,2156.51 "/>
   <path id="_16" class="fil7" d="M4458.71 2285.13l-29.25 0 -53.03 -80.83c-3.09,-4.72 -5.26,-8.27 -6.46,-10.67l-0.34 0c0.46,4.53 0.7,11.49 0.7,20.8l0 70.7 -27.37 0 0 -128.63 31.23 0 51.05 78.29c2.33,3.54 4.47,7.04 6.46,10.5l0.37 0c-0.49,-2.97 -0.74,-8.88 -0.74,-17.67l0 -71.12 27.37 0 0 128.63z"/>
   <path id="_17" class="fil7" d="M4482.2 2280.21l0 -28.72c5.2,4.37 10.87,7.65 16.96,9.83 6.09,2.17 12.25,3.27 18.46,3.27 3.68,0 6.86,-0.34 9.56,-0.98 2.72,-0.67 4.99,-1.56 6.83,-2.76 1.83,-1.17 3.18,-2.54 4.07,-4.1 0.92,-1.59 1.35,-3.31 1.35,-5.18 0,-2.52 -0.7,-4.74 -2.15,-6.71 -1.44,-1.99 -3.39,-3.83 -5.88,-5.48 -2.48,-1.68 -5.42,-3.31 -8.84,-4.84 -3.4,-1.56 -7.08,-3.15 -11.03,-4.77 -10.04,-4.16 -17.54,-9.28 -22.47,-15.34 -4.93,-6.03 -7.38,-13.32 -7.38,-21.86 0,-6.71 1.32,-12.46 4.01,-17.27 2.7,-4.83 6.37,-8.78 11,-11.9 4.65,-3.09 10.01,-5.39 16.1,-6.86 6.09,-1.47 12.55,-2.21 19.38,-2.21 6.71,0 12.65,0.42 17.83,1.22 5.15,0.8 9.92,2.05 14.3,3.74l0 26.83c-2.18,-1.5 -4.5,-2.82 -7.05,-3.96 -2.54,-1.13 -5.17,-2.07 -7.87,-2.84 -2.66,-0.74 -5.36,-1.29 -8.03,-1.66 -2.66,-0.33 -5.17,-0.51 -7.55,-0.51 -3.31,0 -6.28,0.3 -8.97,0.92 -2.7,0.64 -4.96,1.53 -6.83,2.66 -1.84,1.14 -3.28,2.49 -4.32,4.08 -1.01,1.59 -1.5,3.36 -1.5,5.33 0,2.18 0.55,4.1 1.68,5.78 1.14,1.72 2.76,3.34 4.87,4.87 2.07,1.5 4.62,3 7.62,4.47 2.97,1.47 6.36,2.97 10.13,4.53 5.15,2.15 9.74,4.44 13.84,6.86 4.11,2.42 7.62,5.18 10.53,8.21 2.94,3.06 5.18,6.55 6.74,10.46 1.56,3.9 2.33,8.46 2.33,13.66 0,7.2 -1.35,13.2 -4.07,18.1 -2.73,4.87 -6.41,8.82 -11.09,11.82 -4.65,3.03 -10.07,5.21 -16.25,6.52 -6.21,1.32 -12.74,1.96 -19.63,1.96 -7.04,0 -13.75,-0.58 -20.12,-1.77 -6.36,-1.2 -11.9,-3 -16.56,-5.39z"/>
   <path id="_18" class="fil7" d="M4695.95 2229.44c0,38.6 -18.01,57.93 -53.99,57.93 -34.94,0 -52.39,-18.86 -52.39,-56.59l0 -74.27 29.06 0 0 74.62c0,20.82 8.14,31.23 24.4,31.23 15.95,0 23.94,-10.04 23.94,-30.16l0 -75.68 28.97 0 0 72.93z"/>
   <path id="_19" class="fil7" d="M4831.87 2285.13l-33.28 0 -20 -33.1c-1.5,-2.51 -2.94,-4.74 -4.31,-6.73 -1.38,-1.96 -2.76,-3.65 -4.17,-5.06 -1.41,-1.41 -2.88,-2.48 -4.41,-3.24 -1.53,-0.74 -3.18,-1.11 -4.95,-1.11l-7.81 0 0 49.24 -29 0 0 -128.63 45.93 0c31.23,0 46.85,11.66 46.85,34.97 0,4.5 -0.7,8.63 -2.08,12.43 -1.38,3.8 -3.31,7.23 -5.82,10.29 -2.51,3.03 -5.54,5.66 -9.09,7.87 -3.59,2.24 -7.53,3.95 -11.91,5.21l0 0.36c1.93,0.61 3.77,1.56 5.58,2.91 1.8,1.35 3.51,2.91 5.21,4.71 1.68,1.81 3.27,3.74 4.8,5.79 1.53,2.05 2.91,4.07 4.17,6.06l24.31 38.03zm-78.94 -106.92l0 35.79 12.55 0c6.21,0 11.21,-1.8 14.98,-5.39 3.83,-3.65 5.75,-8.18 5.75,-13.54 0,-11.26 -6.73,-16.87 -20.2,-16.87l-13.07 0z"/>
   <path id="_20" class="fil7" d="M4957 2285.13l-31.56 0 -9.15 -28.63 -45.75 0 -9.05 28.63 -31.42 0 46.85 -128.63 34.35 0 45.74 128.63zm-47.36 -50.86l-13.81 -43.23c-1.02,-3.24 -1.74,-7.1 -2.18,-11.57l-0.7 0c-0.3,3.77 -1.04,7.5 -2.24,11.21l-13.99 43.6 32.91 0z"/>
   <path id="_21" class="fil7" d="M5088.79 2285.13l-29.25 0 -53.03 -80.83c-3.09,-4.72 -5.26,-8.27 -6.46,-10.67l-0.34 0c0.46,4.53 0.7,11.49 0.7,20.8l0 70.7 -27.37 0 0 -128.63 31.23 0 51.05 78.29c2.33,3.54 4.47,7.04 6.46,10.5l0.37 0c-0.49,-2.97 -0.74,-8.88 -0.74,-17.67l0 -71.12 27.37 0 0 128.63z"/>
   <path id="_22" class="fil7" d="M5210.41 2280.57c-9.37,4.53 -21.65,6.8 -36.78,6.8 -19.72,0 -35.24,-5.79 -46.54,-17.39 -11.33,-11.6 -16.96,-27.07 -16.96,-46.39 0,-20.58 6.33,-37.26 19.04,-50.06 12.71,-12.8 29.21,-19.2 49.48,-19.2 12.56,0 23.15,1.59 31.75,4.77l0 27.9c-8.6,-5.15 -18.4,-7.71 -29.43,-7.71 -12.07,0 -21.83,3.8 -29.24,11.39 -7.41,7.59 -11.12,17.88 -11.12,30.86 0,12.44 3.49,22.36 10.5,29.73 6.98,7.38 16.41,11.09 28.26,11.09 11.3,0 21.65,-2.76 31.02,-8.27l0 26.49z"/>
   <polygon id="_23" class="fil7" points="5309.98,2285.13 5232.82,2285.13 5232.82,2156.51 5307.01,2156.51 5307.01,2180.08 5261.82,2180.08 5261.82,2208.71 5303.89,2208.71 5303.89,2232.19 5261.82,2232.19 5261.82,2261.62 5309.98,2261.62 "/>
   <path id="_24" class="fil7" d="M5381.26 2285.13l0 -128.63 46.85 0c14.36,0 25.39,2.63 33.1,7.9 7.71,5.24 11.57,12.68 11.57,22.23 0,6.95 -2.36,13.01 -7.04,18.22 -4.72,5.21 -10.69,8.82 -18.01,10.85l0 0.36c9.15,1.14 16.48,4.53 21.95,10.13 5.45,5.64 8.21,12.47 8.21,20.54 0,11.79 -4.23,21.13 -12.65,28.05 -8.45,6.89 -19.96,10.35 -34.54,10.35l-49.45 0zm29 -107.29l0 30.49 12.73 0c5.97,0 10.69,-1.44 14.12,-4.35 3.45,-2.91 5.18,-6.89 5.18,-11.97 0,-9.46 -7.08,-14.17 -21.19,-14.17l-10.84 0zm0 52.02l0 33.93 15.7 0c6.68,0 11.94,-1.56 15.74,-4.68 3.8,-3.09 5.69,-7.35 5.69,-12.74 0,-5.15 -1.86,-9.15 -5.6,-12.1 -3.77,-2.94 -8.97,-4.41 -15.68,-4.41l-15.85 0z"/>
   <path id="_25" class="fil7" d="M5606.99 2285.13l-33.28 0 -20 -33.1c-1.5,-2.51 -2.94,-4.74 -4.31,-6.73 -1.38,-1.96 -2.76,-3.65 -4.17,-5.06 -1.41,-1.41 -2.88,-2.48 -4.41,-3.24 -1.53,-0.74 -3.18,-1.11 -4.95,-1.11l-7.81 0 0 49.24 -29 0 0 -128.63 45.93 0c31.23,0 46.85,11.66 46.85,34.97 0,4.5 -0.7,8.63 -2.08,12.43 -1.38,3.8 -3.31,7.23 -5.82,10.29 -2.51,3.03 -5.54,5.66 -9.09,7.87 -3.59,2.24 -7.53,3.95 -11.91,5.21l0 0.36c1.93,0.61 3.77,1.56 5.58,2.91 1.8,1.35 3.51,2.91 5.21,4.71 1.68,1.81 3.27,3.74 4.8,5.79 1.53,2.05 2.91,4.07 4.17,6.06l24.31 38.03zm-78.94 -106.92l0 35.79 12.55 0c6.21,0 11.21,-1.8 14.98,-5.39 3.83,-3.65 5.75,-8.18 5.75,-13.54 0,-11.26 -6.73,-16.87 -20.2,-16.87l-13.07 0z"/>
   <path id="_26" class="fil7" d="M5673.37 2287.37c-18.43,0 -33.44,-6 -45.04,-17.98 -11.61,-12 -17.39,-27.61 -17.39,-46.87 0,-20.33 5.87,-36.78 17.66,-49.33 11.79,-12.56 27.37,-18.86 46.82,-18.86 18.37,0 33.21,6.03 44.54,18.03 11.33,12.03 17,27.9 17,47.56 0,20.21 -5.88,36.53 -17.63,48.9 -11.73,12.37 -27.07,18.55 -45.96,18.55zm1.26 -108.08c-10.17,0 -18.25,3.8 -24.22,11.45 -5.97,7.62 -8.97,17.69 -8.97,30.25 0,12.73 3,22.81 8.97,30.24 5.97,7.41 13.81,11.12 23.49,11.12 10.01,0 17.91,-3.62 23.79,-10.81 5.85,-7.23 8.79,-17.21 8.79,-30.01 0,-13.34 -2.85,-23.73 -8.52,-31.14 -5.69,-7.41 -13.46,-11.11 -23.32,-11.11z"/>
   <path id="_27" class="fil7" d="M5865.26 2285.13l-36.62 0 -37.47 -55.88c-0.74,-1.07 -1.87,-3.45 -3.43,-7.1l-0.42 0 0 62.98 -29 0 0 -128.63 29 0 0 60.81 0.42 0c0.74,-1.69 1.93,-4.08 3.62,-7.17l35.52 -53.64 34.53 0 -44.86 61.35 48.71 67.27z"/>
   <polygon id="_28" class="fil7" points="5954.71,2285.13 5877.54,2285.13 5877.54,2156.51 5951.73,2156.51 5951.73,2180.08 5906.55,2180.08 5906.55,2208.71 5948.61,2208.71 5948.61,2232.19 5906.55,2232.19 5906.55,2261.62 5954.71,2261.62 "/>
   <path id="_29" class="fil7" d="M6083.25 2285.13l-33.28 0 -20 -33.1c-1.5,-2.51 -2.94,-4.74 -4.31,-6.73 -1.38,-1.96 -2.76,-3.65 -4.17,-5.06 -1.41,-1.41 -2.88,-2.48 -4.41,-3.24 -1.53,-0.74 -3.18,-1.11 -4.95,-1.11l-7.81 0 0 49.24 -29 0 0 -128.63 45.93 0c31.23,0 46.85,11.66 46.85,34.97 0,4.5 -0.7,8.63 -2.08,12.43 -1.38,3.8 -3.31,7.23 -5.82,10.29 -2.51,3.03 -5.54,5.66 -9.09,7.87 -3.59,2.24 -7.53,3.95 -11.91,5.21l0 0.36c1.93,0.61 3.77,1.56 5.58,2.91 1.8,1.35 3.51,2.91 5.21,4.71 1.68,1.81 3.27,3.74 4.8,5.79 1.53,2.05 2.91,4.07 4.17,6.06l24.31 38.03zm-78.94 -106.92l0 35.79 12.55 0c6.21,0 11.21,-1.8 14.98,-5.39 3.83,-3.65 5.75,-8.18 5.75,-13.54 0,-11.26 -6.73,-16.87 -20.2,-16.87l-13.07 0z"/>
   <path id="_30" class="fil7" d="M6277.9 2240.83l0 44.3 -29 0 0 -128.63 45.41 0c32.43,0 48.62,13.66 48.62,41 0,12.92 -4.65,23.35 -13.96,31.35 -9.31,7.96 -21.71,11.97 -37.26,11.97l-13.81 0zm0 -62.1l0 40.11 11.39 0c15.43,0 23.14,-6.77 23.14,-20.27 0,-13.22 -7.71,-19.84 -23.14,-19.84l-11.39 0z"/>
   <path id="_31" class="fil7" d="M6468.9 2156.51l-44.33 128.63 -32.82 0 -43.79 -128.63 31.23 0 26.83 89.52c1.44,4.84 2.3,9.09 2.6,12.83l0.52 0c0.42,-4.01 1.35,-8.42 2.78,-13.19l26.65 -89.16 30.33 0z"/>
   <polygon id="_32" class="fil7" points="6574.65,2180.08 6537.95,2180.08 6537.95,2285.13 6508.89,2285.13 6508.89,2180.08 6472.39,2180.08 6472.39,2156.51 6574.65,2156.51 "/>
   <path id="_33" class="fil7" d="M6601.85 2287.37c-4.68,0 -8.57,-1.44 -11.66,-4.29 -3.12,-2.87 -4.65,-6.4 -4.65,-10.59 0,-4.31 1.59,-7.84 4.77,-10.59 3.21,-2.75 7.2,-4.13 11.97,-4.13 4.86,0 8.82,1.41 11.91,4.19 3.06,2.76 4.59,6.28 4.59,10.53 0,4.35 -1.56,7.94 -4.68,10.72 -3.16,2.79 -7.23,4.17 -12.26,4.17z"/>
   <polygon id="_34" class="fil7" points="6769.03,2285.13 6692.42,2285.13 6692.42,2156.51 6721.43,2156.51 6721.43,2261.62 6769.03,2261.62 "/>
   <polygon id="_35" class="fil7" points="6876.69,2180.08 6839.98,2180.08 6839.98,2285.13 6810.93,2285.13 6810.93,2180.08 6774.43,2180.08 6774.43,2156.51 6876.69,2156.51 "/>
   <path id="_36" class="fil7" d="M6893.99 2285.13l0 -128.63 45.59 0c45.69,0 68.53,20.88 68.53,62.7 0,20.03 -6.25,36.01 -18.71,47.98 -12.46,11.97 -29.05,17.95 -49.82,17.95l-45.59 0zm29 -105.05l0 81.53 14.35 0c12.56,0 22.39,-3.77 29.55,-11.3 7.14,-7.53 10.73,-17.79 10.73,-30.77 0,-12.26 -3.56,-21.89 -10.62,-28.9 -7.11,-7.05 -17.03,-10.56 -29.83,-10.56l-14.17 0z"/>
   <path id="_37" class="fil7" d="M6089.34 2280.21l0 -28.72c5.2,4.37 10.87,7.65 16.96,9.83 6.09,2.17 12.25,3.27 18.46,3.27 3.68,0 6.86,-0.34 9.56,-0.98 2.72,-0.67 4.99,-1.56 6.83,-2.76 1.83,-1.17 3.18,-2.54 4.07,-4.1 0.92,-1.59 1.35,-3.31 1.35,-5.18 0,-2.52 -0.7,-4.74 -2.15,-6.71 -1.44,-1.99 -3.39,-3.83 -5.88,-5.48 -2.48,-1.68 -5.42,-3.31 -8.84,-4.84 -3.4,-1.56 -7.08,-3.15 -11.03,-4.77 -10.04,-4.16 -17.54,-9.28 -22.47,-15.34 -4.93,-6.03 -7.38,-13.32 -7.38,-21.86 0,-6.71 1.32,-12.46 4.01,-17.27 2.7,-4.83 6.37,-8.78 11,-11.9 4.65,-3.09 10.01,-5.39 16.1,-6.86 6.09,-1.47 12.55,-2.21 19.38,-2.21 6.71,0 12.65,0.42 17.83,1.22 5.15,0.8 9.92,2.05 14.3,3.74l0 26.83c-2.18,-1.5 -4.5,-2.82 -7.05,-3.96 -2.54,-1.13 -5.17,-2.07 -7.87,-2.84 -2.66,-0.74 -5.36,-1.29 -8.03,-1.66 -2.66,-0.33 -5.17,-0.51 -7.55,-0.51 -3.31,0 -6.28,0.3 -8.97,0.92 -2.7,0.64 -4.96,1.53 -6.83,2.66 -1.84,1.14 -3.28,2.49 -4.32,4.08 -1.01,1.59 -1.5,3.36 -1.5,5.33 0,2.18 0.55,4.1 1.68,5.78 1.14,1.72 2.76,3.34 4.87,4.87 2.07,1.5 4.62,3 7.62,4.47 2.97,1.47 6.36,2.97 10.13,4.53 5.15,2.15 9.74,4.44 13.84,6.86 4.11,2.42 7.62,5.18 10.53,8.21 2.94,3.06 5.18,6.55 6.74,10.46 1.56,3.9 2.33,8.46 2.33,13.66 0,7.2 -1.35,13.2 -4.07,18.1 -2.73,4.87 -6.41,8.82 -11.09,11.82 -4.65,3.03 -10.07,5.21 -16.25,6.52 -6.21,1.32 -12.74,1.96 -19.63,1.96 -7.04,0 -13.75,-0.58 -20.12,-1.77 -6.36,-1.2 -11.9,-3 -16.56,-5.39z"/>
  </g>
 </g>
</svg>
