<?xml version="1.0" encoding="UTF-8"?>
<!DOCTYPE svg PUBLIC "-//W3C//DTD SVG 1.1//EN" "http://www.w3.org/Graphics/SVG/1.1/DTD/svg11.dtd">
<!-- Creator: CorelDRAW 2021 (64-Bit) -->
<svg xmlns="http://www.w3.org/2000/svg" xml:space="preserve" width="72.1482mm" height="24.0841mm" version="1.1" style="shape-rendering:geometricPrecision; text-rendering:geometricPrecision; image-rendering:optimizeQuality; fill-rule:evenodd; clip-rule:evenodd"
viewBox="0 0 7200.59 2403.66"
 xmlns:xlink="http://www.w3.org/1999/xlink"
 xmlns:xodm="http://www.corel.com/coreldraw/odm/2003">
 <defs>
  <style type="text/css">
   <![CDATA[
    .fil0 {fill:#000066}
    .fil6 {fill:#00BACE}
    .fil4 {fill:#00BBCE}
    .fil7 {fill:#7C7CDC}
    .fil3 {fill:#7D7DDD}
    .fil5 {fill:#FEDB00}
    .fil8 {fill:#FF7800}
    .fil2 {fill:#FF7900}
    .fil1 {fill:#FFDC00}
    .fil9 {fill:#262E57;fill-rule:nonzero}
   ]]>
  </style>
 </defs>
 <g id="Layer_x0020_1">
  <metadata id="CorelCorpID_0Corel-Layer"/>
  <g id="_2196984073856">
   <path class="fil0" d="M511.41 1095.27c0,-396.99 321.82,-718.81 718.81,-718.81 279.27,0 521.34,159.27 640.34,391.91 103.59,-69.21 204.42,-146.57 301.34,-232.76 -191.03,-320.73 -541.27,-535.6 -941.69,-535.6 -604.89,0 -1095.27,490.37 -1095.27,1095.27 0,66.32 5.89,131.26 17.19,194.32 121.71,-3.16 248.45,-12.76 378.12,-30.07 -12.33,-52.75 -18.85,-107.74 -18.85,-164.25z"/>
   <path class="fil1" d="M530.26 1259.51c-129.67,17.31 -256.41,26.91 -378.12,30.07 -50.73,1.33 -100.6,1.54 -149.43,0.71 54.51,24.26 108.71,44.76 162.51,61.76 144.04,45.49 285.33,65.88 422.69,66.24 514.61,1.33 974.12,-278.63 1315.87,-574.58 107.8,-93.34 203.87,-188.28 286.25,-276.47 209.69,-224.48 330.75,-405.33 330.75,-405.33 -108.37,139.87 -225.45,263.96 -348.87,373.7 -96.93,86.19 -197.76,163.55 -301.34,232.76 -426.87,285.27 -900.53,432.49 -1340.3,491.15z"/>
   <path class="fil2" d="M1903.78 843.7c-341.74,295.96 -801.26,575.91 -1315.87,574.58 -137.37,-0.36 -278.66,-20.75 -422.69,-66.24 -53.8,-17 -108,-37.5 -162.51,-61.76 0,0 -39.3,196.89 182.16,570.37 0,0 80.62,-14.78 213.59,-52.79 105.18,-30.07 243.13,-74.67 399.83,-138 338.56,-136.82 764.66,-361.04 1137.08,-714.84 101.45,-96.38 198.93,-202.38 289.56,-318.85 110.51,-142.02 210.85,-299.6 295.86,-474.29 0,0 -121.06,180.85 -330.75,405.33 -82.39,88.2 -178.46,183.14 -286.25,276.47z"/>
   <path class="fil3" d="M2325.49 1095.27c0,-36.54 -1.79,-72.66 -5.29,-108.28l-391.35 278.06c-76.29,315.05 -360.14,549.02 -698.64,549.02 -162.11,0 -311.68,-53.66 -431.94,-144.2 -156.7,63.32 -294.65,107.93 -399.83,138 164.43,191.75 394.03,326 654.47,368.38 667.83,108.7 1272.57,-407.51 1272.57,-1080.99z"/>
   <path class="fil4" d="M1230.22 2190.54c315.33,0 599.52,-133.25 799.36,-346.51 -46.52,-5.51 -93.85,-8.34 -141.86,-8.34 -324.96,0 -619.59,129.88 -834.8,340.57 57.72,9.39 116.94,14.28 177.3,14.28z"/>
   <path class="fil5" d="M4825.35 735.42l0 1207.81c0,8.96 24.07,33.04 33.03,33.04l128.5 0c8.7,0 25.18,-17.87 30.57,-24.5 10.79,-13.29 6.19,-21.27 6.14,-52.6l0 -807.65c0.51,0.73 1.15,1.08 1.33,2.34 0.2,1.27 1.06,1.85 1.33,2.36l9.61 19.75c5.02,10.63 7.07,17.68 12.17,28.21l74.75 167.55c72.32,160.99 148.97,339.21 222.65,496.9 20.05,42.94 55.7,131.82 74.65,167.65l110.13 0 47.73 -110.14c8.79,-18.12 16.13,-36.33 24.65,-56.12 8.31,-19.3 17.04,-35.93 25.19,-55.56 51.62,-124.22 117.41,-260.95 171.48,-386.54 8.52,-19.79 15.85,-37.99 24.65,-56.13l99.11 -220.26 0 800.31c0,15.66 -3.45,43.6 1.81,56.94 2.97,7.52 22.98,27.51 31.24,27.51l132.17 0c8.95,0 33.03,-24.08 33.03,-33.04l0 -1207.81c0,-10 -23.04,-30.16 -30.26,-32.15l-197.35 -0.89c-4.85,20.81 -40.38,93.14 -51.34,117.54 -9,20.04 -16.82,38.57 -25.82,58.61 -8.4,18.69 -18.34,38.2 -26.7,57.74 -57.37,134.14 -127.62,276.68 -183.56,407.49l-78.47 174.84c-12.18,26.08 -43.87,98.08 -48.95,119.91l-7.35 0c-1.38,-16.58 -86.64,-208.07 -100.35,-237.39l-283.89 -644.92c-5.84,-12.51 -15.5,-53.83 -30.6,-53.83l-198.25 0c-8.96,0 -33.03,24.07 -33.03,33.03z"/>
   <path class="fil6" d="M4065.42 1271.41l-154.19 0 0 -381.81c100.31,0 246.33,-12.82 316.85,39.24 21.85,16.13 32.73,28.34 45.45,53.67 6.44,12.79 10.48,21.44 13.76,37.64 9.62,47.5 5.65,93.69 -12.43,133.99 -36.77,81.95 -108.83,117.27 -209.46,117.27zm-356.11 -535.99l0 1207.81c0,8.96 24.07,33.04 33.04,33.04l135.83 0c8.96,0 33.04,-24.08 33.04,-33.04l0 -484.59c60.69,0 125.01,-6.05 177.54,20.69 66.67,33.93 119.26,136.85 156.73,199.38 48.95,81.68 137.27,224.35 176.01,297.57l190.9 0c14.39,-61.76 56.3,7.11 -44.77,-153.48 -31.94,-50.76 -60.84,-98.05 -92.61,-149.68 -37.55,-61.03 -131.12,-222.38 -186.8,-268.43 -8.08,-6.69 -11.69,-7.52 -17.24,-15.8 29.55,-6.89 68.35,-32.1 90.78,-48.72 55.71,-41.3 94.95,-93.71 118.97,-160.03 31.33,-86.53 26.95,-190.89 -8.83,-274.85 -21.64,-50.79 -41.54,-70.7 -76.99,-106.57 -54.46,-55.1 -164.98,-96.33 -274.46,-96.33l-378.12 0c-8.97,0 -33.04,24.07 -33.04,33.03z"/>
   <path class="fil7" d="M6407.63 1036.45c0,125.34 61.17,214.4 157.87,282.67 64.22,45.35 214.46,119.56 288.79,159.09 52.47,27.9 137.05,84.62 137.05,160.31l0 25.7c0,186.97 -301.6,169.9 -473.6,84.46 -13.17,-6.54 -20.08,-10.94 -32.29,-19.1 -11.2,-7.5 -20.09,-14.6 -30.09,-21.31l-47.73 18.35 0 190.9c56.24,29.76 73.39,41.69 144.72,57.19 166.63,36.23 372.43,40.19 516.11,-60.83 67.02,-47.12 132.13,-135.7 132.13,-249.67 0,-93.24 -5.54,-127.58 -57.96,-206.37 -62.99,-94.67 -197.4,-165.47 -298.14,-215.81 -96.87,-48.39 -227.61,-98.46 -227.61,-216.59 0,-164.23 241.2,-172.81 376.62,-134.32 48.34,13.73 75.69,29.48 111.65,53.55l47.69 -25.78 0.03 -179.8c-16.78,-4.48 -37.37,-26.16 -116.49,-41.37 -76,-14.6 -125.03,-13.7 -202.9,-13.7 -109.03,0 -212.51,36.97 -295.25,93.9l-49.33 46.12c-49.1,61.19 -81.27,113.54 -81.27,212.41z"/>
   <path class="fil8" d="M3044.84 1998.29c99.93,0 146.09,0.14 245.04,-22.94 43.73,-10.2 114.89,-35.8 147.78,-57.82l0 -161.53c-15,-3.49 -20.53,-11.58 -34.24,-17.63 -15.68,-6.92 -22.38,3.39 -35.46,10.33 -171.1,90.66 -451.7,95.51 -581.7,-71.87 -17.96,-23.12 -30.44,-38.24 -44.92,-65.21 -39.71,-73.98 -68.56,-197.53 -57.28,-278.81 3.59,-25.83 -0.13,-50.76 9.32,-100.82 15.35,-81.28 52.9,-171.19 110.05,-227.69 40.43,-39.98 73.74,-71.73 129.12,-94.82 104.11,-43.42 228.19,-50.62 341.22,-17.53 57.08,16.72 115.26,47.13 123.51,49.04 9.78,-6.55 28.09,-19.16 40.38,-22.03l0 -176.21c-29.55,-6.89 -55.04,-26.95 -127.55,-41.33 -197.14,-39.12 -401.9,-19.83 -566.29,96.41 -30.12,21.29 -58.84,46.2 -85.38,72.48 -109.52,108.43 -183.99,291.18 -182.64,445.13 0.11,12.53 0.39,23.61 -1.14,35.87l4.48 107.66c4.88,50.99 14.25,89.1 26.02,131.84 40.58,147.22 149.4,278.27 285.14,346.3 63.86,32.01 160.49,61.18 254.55,61.18z"/>
   <path class="fil9" d="M2500.13 2299.9l0 54.92 -17.02 0 0 -145.29 39.91 0c15.53,0 27.57,3.77 36.15,11.35 8.54,7.58 12.79,18.22 12.79,32.03 0,13.76 -4.74,25.04 -14.25,33.82 -9.47,8.78 -22.31,13.17 -38.42,13.17l-19.16 0zm0 -74.98l0 59.59 17.84 0c11.73,0 20.72,-2.69 26.88,-8.05 6.19,-5.37 9.27,-12.97 9.27,-22.77 0,-19.19 -11.35,-28.77 -34.03,-28.77l-19.96 0z"/>
   <path id="_1" class="fil9" d="M2640.45 2357.25c-15.32,0 -27.57,-4.85 -36.74,-14.53 -9.12,-9.68 -13.72,-22.55 -13.72,-38.56 0,-17.43 4.77,-31.02 14.28,-40.84 9.54,-9.79 22.41,-14.67 38.63,-14.67 15.46,0 27.53,4.74 36.21,14.29 8.68,9.51 13,22.72 13,39.59 0,16.57 -4.67,29.82 -14.01,39.78 -9.37,9.96 -21.93,14.94 -37.66,14.94zm1.21 -94.63c-10.65,0 -19.09,3.63 -25.32,10.9 -6.22,7.27 -9.33,17.26 -9.33,30.05 0,12.29 3.14,21.97 9.44,29.05 6.29,7.1 14.7,10.66 25.21,10.66 10.76,0 19.02,-3.49 24.8,-10.45 5.77,-6.95 8.64,-16.85 8.64,-29.67 0,-12.97 -2.87,-22.96 -8.64,-29.99 -5.78,-7.06 -14.04,-10.55 -24.8,-10.55z"/>
   <path id="_2" class="fil9" d="M2849.41 2251.07l-31.13 103.75 -17.22 0 -21.38 -74.25c-0.8,-2.87 -1.35,-6.06 -1.63,-9.65l-0.41 0c-0.18,2.46 -0.91,5.57 -2.12,9.44l-23.2 74.46 -16.6 0 -31.44 -103.75 17.43 0 21.48 78.03c0.69,2.35 1.18,5.46 1.42,9.3l0.83 0c0.21,-2.97 0.8,-6.12 1.84,-9.51l23.9 -77.82 15.18 0 21.51 78.24c0.66,2.49 1.18,5.6 1.49,9.3l0.83 0c0.14,-2.63 0.7,-5.74 1.74,-9.3l21.06 -78.24 16.43 0z"/>
   <path id="_3" class="fil9" d="M2952.03 2307.1l-73.26 0c0.28,11.55 3.39,20.47 9.34,26.77 5.95,6.26 14.11,9.41 24.52,9.41 11.69,0 22.42,-3.84 32.24,-11.56l0 15.6c-9.13,6.64 -21.21,9.93 -36.18,9.93 -14.66,0 -26.18,-4.71 -34.55,-14.11 -8.4,-9.44 -12.59,-22.7 -12.59,-39.77 0,-16.16 4.6,-29.3 13.72,-39.46 9.17,-10.17 20.55,-15.26 34.1,-15.26 13.59,0 24.07,4.4 31.51,13.18 7.44,8.74 11.14,20.96 11.14,36.56l0 8.71zm-17.02 -14.08c-0.07,-9.57 -2.39,-17.05 -6.92,-22.41 -4.56,-5.33 -10.9,-7.99 -19.02,-7.99 -7.81,0 -14.49,2.8 -19.95,8.4 -5.47,5.61 -8.85,12.94 -10.14,22l56.03 0z"/>
   <path id="_4" class="fil9" d="M3031.29 2267.88c-2.9,-2.22 -7.09,-3.32 -12.56,-3.32 -7.12,0 -13.03,3.32 -17.8,10.03 -4.74,6.68 -7.13,15.81 -7.13,27.37l0 52.88 -16.64 0 0 -103.75 16.64 0 0 21.38 0.42 0c2.35,-7.31 5.95,-12.97 10.82,-17.09 4.88,-4.08 10.31,-6.13 16.33,-6.13 4.32,0 7.6,0.49 9.92,1.42l0 17.23z"/>
   <path id="_5" class="fil9" d="M3132.7 2307.1l-73.26 0c0.28,11.55 3.39,20.47 9.34,26.77 5.95,6.26 14.11,9.41 24.52,9.41 11.69,0 22.42,-3.84 32.24,-11.56l0 15.6c-9.13,6.64 -21.21,9.93 -36.18,9.93 -14.66,0 -26.18,-4.71 -34.55,-14.11 -8.4,-9.44 -12.59,-22.7 -12.59,-39.77 0,-16.16 4.6,-29.3 13.72,-39.46 9.17,-10.17 20.55,-15.26 34.1,-15.26 13.59,0 24.07,4.4 31.51,13.18 7.44,8.74 11.14,20.96 11.14,36.56l0 8.71zm-17.02 -14.08c-0.07,-9.57 -2.39,-17.05 -6.92,-22.41 -4.56,-5.33 -10.9,-7.99 -19.02,-7.99 -7.81,0 -14.49,2.8 -19.95,8.4 -5.47,5.61 -8.85,12.94 -10.14,22l56.03 0z"/>
   <path id="_6" class="fil9" d="M3246.41 2354.83l-16.64 0 0 -17.64 -0.38 0c-7.71,13.38 -19.61,20.06 -35.69,20.06 -13,0 -23.45,-4.64 -31.23,-13.94 -7.82,-9.27 -11.73,-21.93 -11.73,-37.94 0,-17.16 4.32,-30.89 12.96,-41.23 8.65,-10.34 20.17,-15.5 34.55,-15.5 14.25,0 24.62,5.61 31.13,16.82l0.38 0 0 -64.23 16.64 0 0 153.6zm-16.64 -46.9l0 -15.32c0,-8.37 -2.76,-15.46 -8.3,-21.27 -5.53,-5.81 -12.56,-8.72 -21.06,-8.72 -10.13,0 -18.12,3.7 -23.93,11.14 -5.81,7.44 -8.71,17.71 -8.71,30.82 0,11.97 2.79,21.37 8.36,28.32 5.57,6.92 13.07,10.38 22.45,10.38 9.27,0 16.78,-3.36 22.56,-10.03 5.77,-6.68 8.64,-15.15 8.64,-25.32z"/>
   <path id="_7" class="fil9" d="M3353.94 2339.82l-0.42 0 0 15.01 -16.64 0 0 -153.6 16.64 0 0 68.07 0.42 0c8.15,-13.76 20.12,-20.65 35.86,-20.65 13.28,0 23.72,4.64 31.23,13.94 7.55,9.27 11.31,21.72 11.31,37.32 0,17.37 -4.21,31.27 -12.65,41.71 -8.43,10.41 -19.99,15.64 -34.65,15.64 -13.73,0 -24.07,-5.82 -31.09,-17.44zm-0.42 -41.85l0 14.49c0,8.57 2.76,15.88 8.37,21.86 5.57,5.99 12.62,8.96 21.2,8.96 10.06,0 17.94,-3.84 23.65,-11.56 5.71,-7.71 8.58,-18.39 8.58,-32.13 0,-11.56 -2.66,-20.58 -8.02,-27.15 -5.33,-6.54 -12.56,-9.83 -21.66,-9.83 -9.68,0 -17.43,3.36 -23.3,10.07 -5.88,6.75 -8.82,15.15 -8.82,25.28z"/>
   <path id="_8" class="fil9" d="M3541.45 2251.07l-47.73 120.35c-8.5,21.52 -20.47,32.24 -35.86,32.24 -4.33,0 -7.92,-0.45 -10.83,-1.32l0 -14.9c3.56,1.21 6.85,1.83 9.82,1.83 8.37,0 14.66,-4.98 18.85,-14.97l8.29 -19.68 -40.53 -103.55 18.43 0 28.08 79.85c0.35,1.01 1.04,3.63 2.11,7.89l0.63 0c0.34,-1.63 1,-4.19 2.01,-7.71l29.5 -80.03 17.22 0z"/>
   <path id="_9" class="fil9" d="M3611.56 2348.95l0 -20.06c2.32,2.04 5.08,3.84 8.26,5.47 3.21,1.62 6.61,3 10.13,4.11 3.56,1.11 7.13,1.97 10.69,2.59 3.59,0.59 6.92,0.9 9.93,0.9 10.48,0 18.29,-1.94 23.48,-5.85 5.15,-3.87 7.74,-9.47 7.74,-16.74 0,-3.94 -0.87,-7.34 -2.59,-10.24 -1.73,-2.9 -4.11,-5.57 -7.13,-7.95 -3.04,-2.42 -6.64,-4.7 -10.79,-6.92 -4.18,-2.18 -8.64,-4.49 -13.45,-6.92 -5.05,-2.55 -9.79,-5.19 -14.18,-7.81 -4.39,-2.62 -8.19,-5.53 -11.45,-8.71 -3.25,-3.18 -5.78,-6.79 -7.64,-10.79 -1.87,-4.01 -2.79,-8.72 -2.79,-14.11 0,-6.65 1.45,-12.39 4.35,-17.3 2.9,-4.91 6.75,-8.92 11.45,-12.11 4.74,-3.18 10.14,-5.53 16.19,-7.09 6.02,-1.56 12.21,-2.36 18.46,-2.36 14.32,0 24.77,1.73 31.34,5.19l0 19.16c-8.57,-5.95 -19.61,-8.92 -33.02,-8.92 -3.74,0 -7.44,0.38 -11.18,1.14 -3.69,0.8 -7.02,2.08 -9.92,3.8 -2.9,1.77 -5.26,4.05 -7.1,6.82 -1.83,2.76 -2.72,6.12 -2.72,10.13 0,3.7 0.69,6.92 2.08,9.62 1.38,2.69 3.42,5.15 6.12,7.4 2.69,2.22 6.02,4.39 9.89,6.47 3.87,2.12 8.37,4.39 13.42,6.89 5.22,2.59 10.13,5.29 14.8,8.12 4.67,2.83 8.74,5.99 12.24,9.41 3.53,3.45 6.3,7.26 8.37,11.45 2.08,4.18 3.07,8.99 3.07,14.38 0,7.17 -1.38,13.25 -4.18,18.19 -2.8,4.98 -6.61,9.02 -11.34,12.11 -4.78,3.11 -10.28,5.36 -16.47,6.75 -6.23,1.38 -12.76,2.08 -19.68,2.08 -2.28,0 -5.12,-0.18 -8.5,-0.56 -3.35,-0.38 -6.82,-0.9 -10.34,-1.63 -3.49,-0.69 -6.82,-1.59 -9.96,-2.62 -3.15,-1.04 -5.68,-2.22 -7.58,-3.49z"/>
   <path id="_10" class="fil9" d="M3786.18 2357.25c-4.32,0 -8.72,-0.42 -13.18,-1.25 -4.46,-0.87 -8.78,-2.15 -12.96,-3.87 -4.18,-1.7 -8.19,-3.84 -12.01,-6.37 -3.83,-2.53 -7.3,-5.5 -10.37,-8.89 -12.39,-13.48 -18.57,-31.16 -18.57,-52.98 0,-23.45 6.3,-42.1 18.85,-55.93 12.72,-13.9 30.05,-20.89 52.08,-20.89 19.75,0 35.73,6.78 48.05,20.27 12.28,13.52 18.43,31.2 18.43,53.02 0,9.16 -1.04,17.84 -3.08,25.98 -2.08,8.12 -5.18,15.49 -9.37,22.03 -4.18,6.57 -9.47,12.11 -15.8,16.67 -6.37,4.57 -13.87,7.81 -22.52,9.79 3.52,3.77 6.81,7.13 9.89,10.03 3.07,2.9 6.16,5.36 9.23,7.34 3.04,2.01 6.26,3.49 9.54,4.53 3.32,1 6.99,1.52 10.97,1.52 1.07,0 2.25,-0.07 3.52,-0.17 1.29,-0.11 2.59,-0.25 3.91,-0.49 1.32,-0.24 2.59,-0.52 3.8,-0.83 1.21,-0.31 2.32,-0.66 3.35,-1.07l0 16.43c-1.11,0.34 -2.32,0.62 -3.66,0.86 -1.35,0.25 -2.69,0.45 -4.08,0.63 -1.39,0.14 -2.76,0.27 -4.11,0.38 -1.35,0.1 -2.59,0.17 -3.74,0.17 -6.5,0 -12.31,-0.97 -17.5,-2.9 -5.15,-1.91 -10,-4.56 -14.49,-7.88 -4.5,-3.35 -8.82,-7.27 -13,-11.73 -4.18,-4.46 -8.57,-9.23 -13.17,-14.38zm2.21 -134.74c-15.25,0 -27.63,5.5 -37.18,16.5 -9.51,11.03 -14.28,25.49 -14.28,43.36 0,17.84 4.63,32.27 13.87,43.26 9.33,10.9 21.48,16.33 36.38,16.33 15.95,0 28.5,-5.19 37.7,-15.6 9.2,-10.41 13.77,-24.97 13.77,-43.68 0,-19.26 -4.43,-34.06 -13.35,-44.47 -8.92,-10.48 -21.24,-15.7 -36.91,-15.7z"/>
   <path id="_11" class="fil9" d="M3991.33 2296.06c0,40.78 -18.39,61.19 -55.23,61.19 -35.24,0 -52.88,-19.61 -52.88,-58.86l0 -88.85 17.02 0 0 87.75c0,29.77 12.59,44.68 37.7,44.68 24.24,0 36.38,-14.39 36.38,-43.16l0 -89.26 17.02 0 0 86.53z"/>
   <path id="_12" class="fil9" d="M4140.09 2354.83l-18.85 0 -15.39 -40.74 -61.63 0 -14.49 40.74 -18.92 0 55.72 -145.29 17.64 0 55.93 145.29zm-39.84 -56.03l-22.79 -61.91c-0.73,-2.04 -1.49,-5.29 -2.22,-9.72l-0.41 0c-0.66,4.12 -1.46,7.34 -2.33,9.72l-22.62 61.91 50.36 0z"/>
   <path id="_13" class="fil9" d="M4265.63 2354.83l-20.27 0 -24.34 -40.74c-2.22,-3.77 -4.36,-6.99 -6.47,-9.68 -2.12,-2.66 -4.26,-4.85 -6.44,-6.51 -2.22,-1.7 -4.56,-2.93 -7.09,-3.7 -2.53,-0.79 -5.4,-1.18 -8.58,-1.18l-13.97 0 0 61.81 -17.02 0 0 -145.29 43.37 0c6.33,0 12.21,0.8 17.57,2.39 5.36,1.6 10.03,3.98 13.97,7.23 3.98,3.25 7.06,7.31 9.27,12.11 2.25,4.85 3.35,10.48 3.35,16.99 0,5.05 -0.76,9.72 -2.29,13.93 -1.52,4.22 -3.66,7.99 -6.47,11.28 -2.79,3.32 -6.19,6.16 -10.13,8.47 -3.97,2.32 -8.4,4.15 -13.35,5.43l0 0.38c2.47,1.11 4.57,2.32 6.37,3.7 1.77,1.42 3.49,3.04 5.08,4.95 1.63,1.87 3.25,4.01 4.85,6.43 1.59,2.39 3.35,5.15 5.29,8.33l27.29 43.68zm-87.16 -129.9l0 52.71 23.1 0c4.25,0 8.19,-0.65 11.8,-1.94 3.63,-1.28 6.75,-3.11 9.37,-5.53 2.62,-2.39 4.7,-5.33 6.19,-8.82 1.49,-3.45 2.22,-7.37 2.22,-11.69 0,-7.78 -2.49,-13.83 -7.54,-18.19 -5.02,-4.35 -12.32,-6.54 -21.83,-6.54l-23.31 0z"/>
   <polygon id="_14" class="fil9" points="4362.57,2354.83 4285.58,2354.83 4285.58,2209.53 4359.35,2209.53 4359.35,2224.92 4302.6,2224.92 4302.6,2273.28 4355.1,2273.28 4355.1,2288.56 4302.6,2288.56 4302.6,2339.44 4362.57,2339.44 "/>
   <polygon id="_15" class="fil9" points="4478.6,2209.53 4478.6,2224.13 4464.42,2224.13 4464.42,2340.23 4478.6,2340.23 4478.6,2354.83 4433.23,2354.83 4433.23,2340.23 4447.4,2340.23 4447.4,2224.13 4433.23,2224.13 4433.23,2209.53 "/>
   <path id="_16" class="fil9" d="M4619.77 2354.83l-20.89 0 -74.77 -115.82c-1.9,-2.9 -3.45,-5.95 -4.66,-9.1l-0.59 0c0.52,3.11 0.79,9.75 0.79,19.96l0 104.96 -17.02 0 0 -145.29 22.11 0 72.73 113.99c3.04,4.7 5.02,7.95 5.88,9.72l0.42 0c-0.69,-4.19 -1.04,-11.32 -1.04,-21.38l0 -102.34 17.05 0 0 145.29z"/>
   <path id="_17" class="fil9" d="M4651.04 2348.95l0 -20.06c2.32,2.04 5.08,3.84 8.26,5.47 3.21,1.62 6.61,3 10.13,4.11 3.56,1.11 7.13,1.97 10.69,2.59 3.59,0.59 6.92,0.9 9.93,0.9 10.48,0 18.29,-1.94 23.48,-5.85 5.15,-3.87 7.74,-9.47 7.74,-16.74 0,-3.94 -0.87,-7.34 -2.59,-10.24 -1.73,-2.9 -4.11,-5.57 -7.13,-7.95 -3.04,-2.42 -6.64,-4.7 -10.79,-6.92 -4.18,-2.18 -8.64,-4.49 -13.45,-6.92 -5.05,-2.55 -9.79,-5.19 -14.18,-7.81 -4.39,-2.62 -8.19,-5.53 -11.45,-8.71 -3.25,-3.18 -5.78,-6.79 -7.64,-10.79 -1.87,-4.01 -2.79,-8.72 -2.79,-14.11 0,-6.65 1.45,-12.39 4.35,-17.3 2.9,-4.91 6.75,-8.92 11.45,-12.11 4.74,-3.18 10.14,-5.53 16.19,-7.09 6.02,-1.56 12.21,-2.36 18.46,-2.36 14.32,0 24.77,1.73 31.34,5.19l0 19.16c-8.57,-5.95 -19.61,-8.92 -33.02,-8.92 -3.74,0 -7.44,0.38 -11.18,1.14 -3.69,0.8 -7.02,2.08 -9.92,3.8 -2.9,1.77 -5.26,4.05 -7.1,6.82 -1.83,2.76 -2.72,6.12 -2.72,10.13 0,3.7 0.69,6.92 2.08,9.62 1.38,2.69 3.42,5.15 6.12,7.4 2.69,2.22 6.02,4.39 9.89,6.47 3.87,2.12 8.37,4.39 13.42,6.89 5.22,2.59 10.13,5.29 14.8,8.12 4.67,2.83 8.74,5.99 12.24,9.41 3.53,3.45 6.3,7.26 8.37,11.45 2.08,4.18 3.07,8.99 3.07,14.38 0,7.17 -1.38,13.25 -4.18,18.19 -2.8,4.98 -6.61,9.02 -11.34,12.11 -4.78,3.11 -10.28,5.36 -16.47,6.75 -6.23,1.38 -12.76,2.08 -19.68,2.08 -2.28,0 -5.12,-0.18 -8.5,-0.56 -3.35,-0.38 -6.82,-0.9 -10.34,-1.63 -3.49,-0.69 -6.82,-1.59 -9.96,-2.62 -3.15,-1.04 -5.68,-2.22 -7.58,-3.49z"/>
   <path id="_18" class="fil9" d="M4874.38 2296.06c0,40.78 -18.39,61.19 -55.23,61.19 -35.24,0 -52.88,-19.61 -52.88,-58.86l0 -88.85 17.02 0 0 87.75c0,29.77 12.59,44.68 37.7,44.68 24.24,0 36.38,-14.39 36.38,-43.16l0 -89.26 17.02 0 0 86.53z"/>
   <path id="_19" class="fil9" d="M5014.83 2354.83l-20.27 0 -24.34 -40.74c-2.22,-3.77 -4.36,-6.99 -6.47,-9.68 -2.12,-2.66 -4.26,-4.85 -6.44,-6.51 -2.22,-1.7 -4.56,-2.93 -7.09,-3.7 -2.53,-0.79 -5.4,-1.18 -8.58,-1.18l-13.97 0 0 61.81 -17.02 0 0 -145.29 43.37 0c6.33,0 12.21,0.8 17.57,2.39 5.36,1.6 10.03,3.98 13.97,7.23 3.98,3.25 7.06,7.31 9.27,12.11 2.25,4.85 3.35,10.48 3.35,16.99 0,5.05 -0.76,9.72 -2.29,13.93 -1.52,4.22 -3.66,7.99 -6.47,11.28 -2.79,3.32 -6.19,6.16 -10.13,8.47 -3.97,2.32 -8.4,4.15 -13.35,5.43l0 0.38c2.47,1.11 4.57,2.32 6.37,3.7 1.77,1.42 3.49,3.04 5.08,4.95 1.63,1.87 3.25,4.01 4.85,6.43 1.59,2.39 3.35,5.15 5.29,8.33l27.29 43.68zm-87.16 -129.9l0 52.71 23.1 0c4.25,0 8.19,-0.65 11.8,-1.94 3.63,-1.28 6.75,-3.11 9.37,-5.53 2.62,-2.39 4.7,-5.33 6.19,-8.82 1.49,-3.45 2.22,-7.37 2.22,-11.69 0,-7.78 -2.49,-13.83 -7.54,-18.19 -5.02,-4.35 -12.32,-6.54 -21.83,-6.54l-23.31 0z"/>
   <path id="_20" class="fil9" d="M5147.26 2354.83l-18.85 0 -15.39 -40.74 -61.63 0 -14.49 40.74 -18.92 0 55.72 -145.29 17.64 0 55.93 145.29zm-39.84 -56.03l-22.79 -61.91c-0.73,-2.04 -1.49,-5.29 -2.22,-9.72l-0.41 0c-0.66,4.12 -1.46,7.34 -2.33,9.72l-22.62 61.91 50.36 0z"/>
   <path id="_21" class="fil9" d="M5285.76 2354.83l-20.89 0 -74.77 -115.82c-1.9,-2.9 -3.45,-5.95 -4.66,-9.1l-0.59 0c0.52,3.11 0.79,9.75 0.79,19.96l0 104.96 -17.02 0 0 -145.29 22.11 0 72.73 113.99c3.04,4.7 5.02,7.95 5.88,9.72l0.42 0c-0.69,-4.19 -1.04,-11.32 -1.04,-21.38l0 -102.34 17.05 0 0 145.29z"/>
   <path id="_22" class="fil9" d="M5422.72 2348.74c-10.72,5.67 -24.11,8.51 -40.12,8.51 -20.68,0 -37.22,-6.65 -49.63,-19.96 -12.45,-13.31 -18.67,-30.78 -18.67,-52.4 0,-23.2 7.02,-41.99 20.99,-56.3 13.97,-14.36 31.72,-21.52 53.19,-21.52 13.76,0 25.18,2.01 34.24,5.99l0 18.15c-10.41,-5.81 -21.9,-8.71 -34.45,-8.71 -16.67,0 -30.19,5.57 -40.57,16.7 -10.37,11.14 -15.56,26.05 -15.56,44.69 0,17.71 4.84,31.82 14.53,42.3 9.71,10.51 22.41,15.77 38.17,15.77 14.56,0 27.22,-3.25 37.88,-9.72l0 16.5z"/>
   <polygon id="_23" class="fil9" points="5529.31,2354.83 5452.32,2354.83 5452.32,2209.53 5526.1,2209.53 5526.1,2224.92 5469.34,2224.92 5469.34,2273.28 5521.85,2273.28 5521.85,2288.56 5469.34,2288.56 5469.34,2339.44 5529.31,2339.44 "/>
   <path id="_24" class="fil9" d="M5614.14 2354.83l0 -145.29 41.33 0c12.56,0 22.56,3.08 29.89,9.2 7.37,6.16 11.06,14.18 11.06,24.03 0,8.23 -2.25,15.39 -6.71,21.48 -4.46,6.09 -10.58,10.41 -18.43,12.97l0 0.41c9.79,1.15 17.64,4.85 23.52,11.07 5.88,6.27 8.81,14.39 8.81,24.38 0,12.42 -4.46,22.49 -13.38,30.2 -8.92,7.7 -20.16,11.55 -33.75,11.55l-42.34 0zm17.02 -129.9l0 46.94 17.44 0c9.3,0 16.64,-2.26 22,-6.75 5.32,-4.5 7.98,-10.83 7.98,-19.02 0,-14.11 -9.26,-21.17 -27.87,-21.17l-19.54 0zm0 62.22l0 52.3 23.1 0c10,0 17.74,-2.39 23.24,-7.09 5.53,-4.74 8.26,-11.25 8.26,-19.47 0,-17.16 -11.69,-25.74 -35.07,-25.74l-19.54 0z"/>
   <path id="_25" class="fil9" d="M5837.25 2354.83l-20.27 0 -24.34 -40.74c-2.22,-3.77 -4.36,-6.99 -6.47,-9.68 -2.12,-2.66 -4.26,-4.85 -6.44,-6.51 -2.22,-1.7 -4.56,-2.93 -7.09,-3.7 -2.53,-0.79 -5.4,-1.18 -8.58,-1.18l-13.97 0 0 61.81 -17.02 0 0 -145.29 43.37 0c6.33,0 12.21,0.8 17.57,2.39 5.36,1.6 10.03,3.98 13.97,7.23 3.98,3.25 7.06,7.31 9.27,12.11 2.25,4.85 3.35,10.48 3.35,16.99 0,5.05 -0.76,9.72 -2.29,13.93 -1.52,4.22 -3.66,7.99 -6.47,11.28 -2.79,3.32 -6.19,6.16 -10.13,8.47 -3.97,2.32 -8.4,4.15 -13.35,5.43l0 0.38c2.47,1.11 4.57,2.32 6.37,3.7 1.77,1.42 3.49,3.04 5.08,4.95 1.63,1.87 3.25,4.01 4.85,6.43 1.59,2.39 3.35,5.15 5.29,8.33l27.29 43.68zm-87.16 -129.9l0 52.71 23.1 0c4.25,0 8.19,-0.65 11.8,-1.94 3.63,-1.28 6.75,-3.11 9.37,-5.53 2.62,-2.39 4.7,-5.33 6.19,-8.82 1.49,-3.45 2.22,-7.37 2.22,-11.69 0,-7.78 -2.49,-13.83 -7.54,-18.19 -5.02,-4.35 -12.32,-6.54 -21.83,-6.54l-23.31 0z"/>
   <path id="_26" class="fil9" d="M5915.76 2357.25c-20.61,0 -37.11,-6.79 -49.49,-20.38 -12.38,-13.55 -18.6,-31.23 -18.6,-52.98 0,-23.38 6.33,-42.03 18.95,-55.93 12.63,-13.9 29.85,-20.89 51.6,-20.89 20.06,0 36.21,6.78 48.45,20.27 12.28,13.52 18.4,31.2 18.4,53.02 0,23.69 -6.3,42.44 -18.85,56.24 -12.56,13.76 -29.36,20.65 -50.46,20.65zm1.21 -134.74c-15.25,0 -27.63,5.5 -37.18,16.5 -9.51,11.03 -14.28,25.49 -14.28,43.36 0,17.91 4.63,32.31 13.94,43.23 9.26,10.89 21.41,16.36 36.31,16.36 15.95,0 28.5,-5.19 37.7,-15.6 9.2,-10.41 13.77,-24.97 13.77,-43.68 0,-19.19 -4.43,-33.99 -13.35,-44.47 -8.92,-10.48 -21.24,-15.7 -36.91,-15.7z"/>
   <path id="_27" class="fil9" d="M6114.76 2354.83l-23.72 0 -56.13 -66.47c-2.08,-2.5 -3.39,-4.19 -3.84,-5.05l-0.42 0 0 71.52 -17.02 0 0 -145.29 17.02 0 0 68.28 0.42 0c0.93,-1.49 2.22,-3.11 3.84,-4.95l54.29 -63.32 21.2 0 -62.32 69.69 66.68 75.6z"/>
   <polygon id="_28" class="fil9" points="6210.97,2354.83 6133.99,2354.83 6133.99,2209.53 6207.76,2209.53 6207.76,2224.92 6151,2224.92 6151,2273.28 6203.51,2273.28 6203.51,2288.56 6151,2288.56 6151,2339.44 6210.97,2339.44 "/>
   <path id="_29" class="fil9" d="M6343.12 2354.83l-20.27 0 -24.34 -40.74c-2.22,-3.77 -4.36,-6.99 -6.47,-9.68 -2.12,-2.66 -4.26,-4.85 -6.44,-6.51 -2.22,-1.7 -4.56,-2.93 -7.09,-3.7 -2.53,-0.79 -5.4,-1.18 -8.58,-1.18l-13.97 0 0 61.81 -17.02 0 0 -145.29 43.37 0c6.33,0 12.21,0.8 17.57,2.39 5.36,1.6 10.03,3.98 13.97,7.23 3.98,3.25 7.06,7.31 9.27,12.11 2.25,4.85 3.35,10.48 3.35,16.99 0,5.05 -0.76,9.72 -2.29,13.93 -1.52,4.22 -3.66,7.99 -6.47,11.28 -2.79,3.32 -6.19,6.16 -10.13,8.47 -3.97,2.32 -8.4,4.15 -13.35,5.43l0 0.38c2.47,1.11 4.57,2.32 6.37,3.7 1.77,1.42 3.49,3.04 5.08,4.95 1.63,1.87 3.25,4.01 4.85,6.43 1.59,2.39 3.35,5.15 5.29,8.33l27.29 43.68zm-87.16 -129.9l0 52.71 23.1 0c4.25,0 8.19,-0.65 11.8,-1.94 3.63,-1.28 6.75,-3.11 9.37,-5.53 2.62,-2.39 4.7,-5.33 6.19,-8.82 1.49,-3.45 2.22,-7.37 2.22,-11.69 0,-7.78 -2.49,-13.83 -7.54,-18.19 -5.02,-4.35 -12.32,-6.54 -21.83,-6.54l-23.31 0z"/>
   <path id="_30" class="fil9" d="M6436.95 2299.9l0 54.92 -17.02 0 0 -145.29 39.91 0c15.53,0 27.57,3.77 36.15,11.35 8.54,7.58 12.79,18.22 12.79,32.03 0,13.76 -4.74,25.04 -14.25,33.82 -9.47,8.78 -22.31,13.17 -38.42,13.17l-19.16 0zm0 -74.98l0 59.59 17.84 0c11.73,0 20.72,-2.69 26.88,-8.05 6.19,-5.37 9.27,-12.97 9.27,-22.77 0,-19.19 -11.35,-28.77 -34.03,-28.77l-19.96 0z"/>
   <path id="_31" class="fil9" d="M6644.16 2209.53l-53.81 145.29 -18.75 0 -52.67 -145.29 18.95 0 40.22 115.2c1.28,3.7 2.25,7.99 2.93,12.86l0.39 0c0.55,-4.04 1.66,-8.4 3.35,-13.07l41.05 -114.99 18.33 0z"/>
   <polygon id="_32" class="fil9" points="6750.95,2224.92 6709,2224.92 6709,2354.83 6691.98,2354.83 6691.98,2224.92 6650.14,2224.92 6650.14,2209.53 6750.95,2209.53 "/>
   <path id="_33" class="fil9" d="M6777.3 2357.04c-3.11,0 -5.74,-1.11 -7.95,-3.32 -2.18,-2.25 -3.28,-4.91 -3.28,-8.02 0,-3.11 1.11,-5.78 3.28,-8.05 2.22,-2.26 4.84,-3.39 7.95,-3.39 3.18,0 5.88,1.14 8.12,3.39 2.22,2.28 3.32,4.94 3.32,8.05 0,3.11 -1.11,5.78 -3.32,8.02 -2.25,2.22 -4.94,3.32 -8.12,3.32z"/>
   <polygon id="_34" class="fil9" points="6950.98,2354.83 6875.62,2354.83 6875.62,2209.53 6892.64,2209.53 6892.64,2339.44 6950.98,2339.44 "/>
   <polygon id="_35" class="fil9" points="7059.2,2224.92 7017.25,2224.92 7017.25,2354.83 7000.23,2354.83 7000.23,2224.92 6958.39,2224.92 6958.39,2209.53 7059.2,2209.53 "/>
   <path id="_36" class="fil9" d="M7082.02 2354.83l0 -145.29 40.12 0c51.19,0 76.82,23.58 76.82,70.83 0,22.42 -7.13,40.43 -21.34,54.05 -14.22,13.59 -33.24,20.41 -57.11,20.41l-38.49 0zm17.02 -129.9l0 114.51 21.69 0c19.06,0 33.86,-5.12 44.48,-15.32 10.61,-10.2 15.91,-24.66 15.91,-43.37 0,-37.21 -19.79,-55.82 -59.38,-55.82l-22.7 0z"/>
  </g>
 </g>
</svg>
