<svg viewBox="0 0 512 512" xmlns="http://www.w3.org/2000/svg"><g id="Layer_6" data-name="Layer 6"><path d="m397.94 205.25h-11.94a39 39 0 0 0 0 78h11.94a26.07 26.07 0 0 1 26.06 26.05v98.7c0 10.89-18.17 26.05-36.05 26.05h-273.89a26.08 26.08 0 0 1 -26.06-26.05v-98.7a26.07 26.07 0 0 1 26.05-26.05h11.95a39 39 0 0 0 0-78h-11.94a104.17 104.17 0 0 0 -104.06 104.05v98.7a104.17 104.17 0 0 0 104.06 104h273.88c26.63 0 54.27-10.19 75.81-28 24.3-20 38.25-47.74 38.25-76v-98.7a104.17 104.17 0 0 0 -104.06-104.05z" fill="#28283f"/><path d="m256 335.9a39 39 0 0 0 39-39v-163.75l18.88 18.85a39 39 0 1 0 55.12-55.12l-85.42-85.46a39 39 0 0 0 -55.16 0l-85.42 85.46a39 39 0 0 0 55.12 55.12l18.88-18.85v163.75a39 39 0 0 0 39 39z" fill="#6fba47"/><g fill="#34344f"><path d="m347 244.25a38.86 38.86 0 0 0 9.6 25.61 276.67 276.67 0 0 0 29.66-64.61h-.26a39 39 0 0 0 -39 39z"/><path d="m88 398.93v-89.63a26.07 26.07 0 0 1 26.05-26.05h11.95a39 39 0 0 0 0-78h-11.94a104.17 104.17 0 0 0 -104.06 104.05v68.7a275.89 275.89 0 0 0 78 20.93z"/></g></g></svg>