<?xml version="1.0" encoding="UTF-8"?>
<!DOCTYPE svg PUBLIC "-//W3C//DTD SVG 1.1//EN" "http://www.w3.org/Graphics/SVG/1.1/DTD/svg11.dtd">
<!-- Creator: CorelDRAW -->
<svg xmlns="http://www.w3.org/2000/svg" xml:space="preserve" width="431.8mm" height="169.333mm" version="1.1" style="shape-rendering:geometricPrecision; text-rendering:geometricPrecision; image-rendering:optimizeQuality; fill-rule:evenodd; clip-rule:evenodd"
viewBox="0 0 43179.98 16933.32"
 xmlns:xlink="http://www.w3.org/1999/xlink"
 xmlns:xodm="http://www.corel.com/coreldraw/odm/2003">
 <defs>
  <style type="text/css">
   <![CDATA[
    .str0 {stroke:#10498A;stroke-width:145.73;stroke-miterlimit:2.61313}
    .fil4 {fill:none;fill-rule:nonzero}
    .fil0 {fill:#00A0E3}
    .fil1 {fill:#10498A}
    .fil3 {fill:#00A0E3;fill-rule:nonzero}
    .fil2 {fill:#10498A;fill-rule:nonzero}
   ]]>
  </style>
 </defs>
 <g id="Layer_x0020_1">
  <metadata id="CorelCorpID_0Corel-Layer"/>
  <path class="fil0" d="M971.01 7044.32c0,0 1611.73,-1083.4 2507.15,-2121.63 895.38,-1038.23 2148.94,-2415.06 2895.09,-3701.55 0,0 596.98,-1105.93 1134.19,-564.25 0,0 1671.43,2618.15 2716.02,3633.84 1044.65,1015.66 3551.81,3317.85 3551.81,3317.85 0,0 -1014.79,361.13 -1910.21,-586.82l-3909.91 -4198.13c0,0 -835.72,-1331.63 -2089.31,428.84 0,0 -1999.64,2099.06 -2208.65,2347.35 -208.93,248.26 -387.97,519.12 -119.37,631.96 268.61,112.85 1999.71,270.83 2536.99,1512.21 0,0 -656.61,-270.83 -925.25,-135.41 -268.64,135.41 805.88,1015.69 2477.28,835.11 0,0 -537.24,1083.37 -2566.82,180.55 0,0 -1044.65,-812.51 -2328.05,-1038.23 0,0 -1432.66,-180.59 -1581.86,-293.43 -149.27,-112.84 -179.1,-248.26 -179.1,-248.26z"/>
  <path class="fil1" d="M13488.67 8885.01c0,0 -1673.42,1124.84 -2603.05,2202.76 -929.66,1077.95 -2231.14,2507.42 -3005.85,3843.11 0,0 -619.78,1148.25 -1177.58,585.85 0,0 -1735.3,-2718.31 -2819.88,-3772.82 -1084.58,-1054.51 -3687.59,-3444.75 -3687.59,-3444.75 0,0 1053.53,-374.92 1983.23,609.29l4059.45 4358.67c0,0 867.67,1382.58 2169.16,-445.26 0,0 2076.19,-2179.35 2293.13,-2437.09 216.91,-257.77 402.84,-538.99 123.94,-656.14 -278.86,-117.18 -2076.19,-281.22 -2633.95,-1570.06 0,0 681.67,281.18 960.57,140.59 278.9,-140.59 -836.66,-1054.51 -2571.97,-867.03 0,0 557.77,-1124.81 2665,-187.48 0,0 1084.58,843.62 2417.05,1077.95 0,0 1487.45,187.48 1642.4,304.63 154.89,117.18 185.94,257.78 185.94,257.78z"/>
  <path class="fil2" d="M15078.18 13376.35l0 -3427.2 444.1 0 0 3427.2 -444.1 0zm1397.36 0l0 -3427.2 728.31 0 1231.58 3108.04 0 -3108.04 455.89 0 0 3427.2 -740.14 0 -1231.51 -3139.4 0 3139.4 -444.13 0zm3155.89 -1111.87l402.64 0c0,20.9 0.97,39.24 2.98,54.92 1.96,15.73 4.91,32.27 8.85,49.72 0,27.9 1.96,54.06 5.96,79.35 3.91,24.42 5.92,50.61 5.92,78.49 19.73,149.98 74.98,287.79 165.75,414.23 90.75,125.57 288.18,188.34 592.12,188.34 205.21,0 371.97,-52.34 500.26,-156.94 128.35,-104.64 192.49,-255.54 192.49,-450.85l0 -105.53c0,-10.44 0,-22.67 0,-36.65 0,-13.91 -1.98,-27.89 -6,-41.84 -3.88,-83.73 -31.51,-162.21 -82.85,-235.47 -51.34,-73.23 -157.85,-129.94 -319.73,-168.27 -114.5,-34.92 -244.75,-75.02 -390.79,-120.39 -146.05,-45.35 -295.99,-94.16 -449.98,-146.49 -7.91,-3.47 -16.75,-6.95 -26.66,-10.45 -9.86,-3.47 -20.7,-7 -32.51,-10.46 -130.26,-53.21 -230.98,-109.89 -302,-170.93 -71.07,-61.04 -124.36,-122.98 -159.87,-185.75 -31.55,-55.82 -52.24,-110.75 -62.18,-163.09 -9.87,-52.3 -14.78,-102.91 -14.78,-151.72 0,-6.98 0,-13.1 0,-18.31 0,-5.24 0,-11.35 0,-18.33 0,-6.98 0.94,-14.83 2.95,-23.54 1.96,-8.73 2.98,-18.31 2.98,-28.77 0,-13.96 0.98,-27.06 2.92,-39.25 1.96,-12.23 3,-23.52 3,-34.02 0,-34.86 1.97,-71.5 5.88,-109.02 3.98,-38.32 11.84,-76.7 23.68,-115.08 39.51,-169.2 141.1,-325.28 305,-467.43 163.77,-142.15 421.31,-213.63 772.64,-213.63 331.56,0 572.39,56.66 722.3,169.14 150.03,112.51 252.71,238.11 307.96,377.64 27.62,79.36 45.37,157.84 53.25,233.67 7.91,76.76 11.87,140.39 11.87,192.76l-449.99 -5.25c0,-211.07 -62.16,-362.77 -186.52,-456.1 -124.36,-93.3 -277.29,-140.39 -458.87,-140.39 -228.96,0 -396.74,59.31 -503.31,178.77 -106.5,119.47 -159.83,249.43 -159.83,391.58l-11.87 20.92c0,167.41 74.07,288.66 222.07,361.9 148.07,73.24 320.72,137.76 518.04,193.62 35.55,10.43 70.07,20.87 103.65,31.38 33.54,10.46 70.11,20.89 109.53,31.39 236.85,70.65 454,168.3 651.32,293.88 197.32,125.56 296,335.74 296,629.65 0,380.17 -109.49,649.62 -328.57,806.63 -219.12,157.84 -460.86,245.04 -725.36,262.47 -23.65,3.47 -46.37,5.27 -68.05,5.27 -21.74,0 -44.36,0 -68.07,0 -548.69,0 -883.25,-124.72 -1003.63,-375 -120.39,-249.41 -180.59,-524.97 -180.59,-825.87 0,-3.46 0,-6.08 0,-7.83 0,-1.74 0,-4.36 0,-7.85l0 -5.22zm3114.41 -2315.33l444.13 0 0 2459.2c0,272.09 66.13,454.35 198.37,546.8 132.17,92.45 312.82,138.67 541.75,138.67 264.51,0 452.94,-62.79 565.36,-188.35 112.56,-125.59 168.81,-313.99 168.81,-565.16l0 -2391.16 455.89 0 0 2600.47c0,52.34 -3.9,108.15 -11.78,167.43 -7.9,59.31 -21.77,118.63 -41.45,177.92 -51.34,139.53 -157.97,266.83 -319.76,381.96 -161.86,115.13 -420.38,172.67 -775.62,172.67 -513.22,0 -845.76,-91.58 -997.7,-274.72 -151.95,-183.09 -228,-436.89 -228,-761.27l0 -2464.46zm3333.53 3427.2l0 -3427.2 1148.71 0c23.65,3.53 48.34,5.25 73.98,5.25 25.65,0 52.3,1.72 79.92,5.2 240.77,10.49 464.78,69.77 672,179.65 207.27,109 328.67,333.17 364.13,673.23l0 62.8c0,198.84 -64.09,364.52 -192.43,495.35 -128.24,131.65 -269.34,216.24 -423.34,254.63 -19.67,6.96 -40.39,12.23 -62.19,15.68 -21.66,3.52 -42.41,5.25 -62.18,5.25 7.94,0 14.88,0.88 20.76,2.6 5.91,1.75 14.79,4.39 26.66,7.86 31.55,3.5 68.11,8.71 109.55,15.68 41.48,6.99 81.92,19.21 121.4,36.67 71.07,24.39 139.17,63.63 204.24,117.68 65.1,54.11 109.55,139.57 133.21,254.64 7.93,66.31 15.86,145.64 23.76,238.99 7.77,92.44 15.72,187.48 23.65,285.13 19.73,168.34 46.36,322.66 79.89,463.93 33.55,142.17 79.95,212.8 139.2,212.8l17.73 -10.49 0 104.67 -532.88 0c-47.34,-80.24 -77.93,-174.44 -91.72,-282.53 -13.86,-108.14 -22.79,-219.76 -26.66,-334.89 0,-6.98 -1.04,-13.09 -3,-18.28 -2,-5.25 -2.96,-11.36 -2.96,-18.34 -7.9,-219.78 -39.53,-417.71 -94.78,-593.9 -55.22,-176.11 -226.92,-264.21 -515.11,-264.21l-781.55 0 0 1512.15 -449.99 0zm449.99 -1873.18l698.72 0c224.96,3.49 396.65,-46.21 515.11,-148.23 118.36,-102.05 177.61,-240.71 177.61,-416.88l0 -94.19c-19.74,-193.55 -91.81,-329.62 -216.16,-408.97 -124.29,-79.35 -308.83,-119.47 -553.55,-119.47l-621.73 0 0 1187.74zm2421.71 1873.18l1101.24 -3427.2 615.81 0 1065.77 3427.2 -497.35 0 -284.2 -968 -1225.61 0 -284.25 968 -491.41 0zm1882.8 -1334.26l-491.42 -1768.51 -497.34 1768.51 988.76 0zm1397.39 1334.26l0 -3427.2 728.31 0 1231.55 3108.04 0 -3108.04 455.91 0 0 3427.2 -740.17 0 -1231.51 -3139.4 0 3139.4 -444.09 0zm3155.87 -1658.65c0,-87.19 0.96,-178.77 2.96,-274.69 1.96,-95.91 6.91,-192.74 14.76,-290.41 23.72,-320.92 116.5,-616.54 278.34,-886.88 161.82,-270.34 485.52,-412.5 970.99,-426.46 3.98,0 6.93,0 8.89,0 2,0 4.96,0 8.92,0 272.38,3.52 521.97,82.01 749.01,235.46 226.92,153.49 340.38,434.31 340.38,842.44l0 73.23 -414.48 0c0,-20.93 0,-44.51 0,-70.65 0,-26.13 -1.96,-51.44 -5.84,-75.87 -11.87,-160.43 -66.16,-306.95 -162.84,-439.52 -96.67,-132.54 -285.19,-198.8 -565.45,-198.8 -232.89,0 -401.68,86.34 -506.22,258.99 -104.62,172.69 -172.7,361.89 -204.3,567.68 -19.72,101.19 -31.52,201.47 -35.58,300.89 -3.87,99.45 -5.81,187.51 -5.81,264.27 0,10.44 0.95,21.76 2.91,34 1.97,12.16 2.9,23.52 2.9,33.98 0,10.49 1.07,20.07 3,28.78 2,8.74 2.95,18.32 2.95,28.81 0,13.92 0,28.76 0,44.43 0,15.71 0,30.54 0,44.48 3.98,313.95 45.43,602.61 124.36,865.95 78.94,263.38 284.22,402.05 615.79,416.01 232.89,0 396.7,-65.44 491.41,-196.24 94.79,-130.81 153.99,-274.72 177.64,-431.69 11.83,-62.77 18.74,-123.78 20.71,-183.1 1.97,-59.32 2.99,-115.14 2.99,-167.44l455.86 -5.21 0 125.56c0,320.89 -83.86,603.45 -251.59,847.61 -167.77,244.17 -452.91,366.29 -855.61,366.29 -552.59,-17.42 -901.87,-187.49 -1047.99,-510.14 -146.03,-322.66 -219.06,-728.19 -219.06,-1216.51l0 -5.25zm3049.31 1658.65l0 -3427.2 2001.29 0 0 361.03 -1551.26 0 0 1083.09 1432.8 0 0 361.07 -1432.8 0 0 1266.2 1509.8 0 0 355.81 -1959.83 0z"/>
  <path class="fil2" d="M14757.39 6554.46l578.42 0c0,32 1.4,60.06 4.26,84.09 2.77,24.01 7.04,49.36 12.67,76.11 0,42.7 2.87,82.72 8.56,121.42 5.67,37.4 8.53,77.42 8.53,120.12 28.33,229.61 107.71,440.5 238.12,634.09 130.49,192.19 414.02,288.28 850.64,288.28 294.96,0 534.53,-80.04 718.85,-240.24 184.26,-160.19 276.46,-391.12 276.46,-690.09l0 -161.51c0,-16.04 0,-34.74 0,-56.09 0,-21.35 -2.86,-42.73 -8.53,-64.08 -5.6,-128.14 -45.32,-248.26 -119.04,-360.41 -73.74,-112.09 -226.84,-198.84 -459.35,-257.59 -164.55,-53.4 -351.64,-114.8 -561.48,-184.2 -209.79,-69.42 -425.3,-144.15 -646.44,-224.24 -11.36,-5.34 -24.13,-10.71 -38.29,-16.05 -14.2,-5.3 -29.82,-10.64 -46.79,-16.01 -187.15,-81.41 -331.78,-168.16 -433.85,-261.61 -102.05,-93.43 -178.6,-188.23 -229.62,-284.31 -45.44,-85.43 -75.2,-169.52 -89.34,-249.62 -14.16,-80.1 -21.26,-157.51 -21.26,-232.27 0,-10.68 0,-20.01 0,-28 0,-8.02 0,-17.36 0,-28.06 0,-10.65 1.37,-22.7 4.23,-36.02 2.87,-13.33 4.27,-28.07 4.27,-44.08 0,-21.35 1.4,-41.36 4.23,-60.06 2.84,-18.66 4.27,-36.02 4.27,-52.06 0,-53.35 2.83,-109.44 8.5,-166.82 5.63,-58.74 16.99,-117.49 34.02,-176.23 56.69,-258.96 202.75,-497.88 438.09,-715.45 235.34,-217.57 605.38,-327.04 1110.05,-327.04 476.41,0 822.29,86.81 1037.8,258.96 215.51,172.21 362.91,364.43 442.38,577.98 39.69,121.48 65.16,241.63 76.58,357.72 11.27,117.49 17,214.94 17,295.04l-646.5 -8.02c0,-323.04 -89.28,-555.31 -267.99,-698.15 -178.6,-142.78 -398.37,-214.89 -659.27,-214.89 -328.88,0 -569.92,90.78 -723.05,273.63 -153.09,182.86 -229.67,381.76 -229.67,599.33l-17 32.06c0,256.27 106.37,441.84 319.02,553.93 212.64,112.13 460.75,210.92 744.28,296.36 51.02,16.01 100.64,31.99 148.89,48.04 48.19,16.01 100.64,32.05 157.42,48.04 340.22,108.13 652.11,257.61 935.67,449.83 283.53,192.2 425.29,513.89 425.29,963.73 0,582 -157.33,994.44 -472.05,1234.7 -314.72,241.61 -662.16,375.11 -1042.1,401.8 -33.99,5.34 -66.58,8.02 -97.81,8.02 -31.19,0 -63.81,0 -97.87,0 -788.17,0 -1268.84,-190.88 -1441.83,-573.98 -172.93,-381.75 -259.37,-803.56 -259.37,-1264.1 0,-5.31 0,-9.33 0,-11.96 0,-2.68 0,-6.71 0,-12.05l0 -7.99zm4295.74 -836.93c0,-827.6 127.63,-1504.34 382.8,-2030.27 255.23,-525.88 734.41,-788.87 1437.57,-788.87 618.17,0 1087.42,185.52 1407.83,556.63 320.36,371.08 480.64,1055.84 480.64,2054.28 0,432.48 -18.48,768.85 -55.28,1009.08 -36.89,240.29 -94.98,461.88 -174.42,664.78 -28.33,69.39 -58.09,138.78 -89.31,208.23 -31.22,69.4 -66.65,141.47 -106.34,216.23l655.03 488.54 -348.84 384.41 -654.97 -496.53c-56.68,58.71 -119.07,109.44 -187.09,152.17 -68.11,42.7 -133.29,77.41 -195.62,104.1 -130.46,53.41 -255.26,88.09 -374.33,104.14 -119.13,16.01 -218.34,24.03 -297.69,24.03 -793.97,0 -1305.8,-275 -1535.41,-824.91 -229.71,-549.98 -344.57,-1155.95 -344.57,-1818.05l0 -7.99zm638.03 56.03c0,21.38 0,41.39 0,60.09 0,18.7 0,38.71 0,60.06 5.63,480.52 86.45,922.33 242.37,1325.47 155.99,403.11 489.14,604.67 999.58,604.67 147.4,0 274.97,-22.7 382.77,-68.08 107.71,-45.36 175.79,-94.77 204.12,-148.15l-527.37 -392.46 348.71 -384.38 467.91 384.38c5.64,0 9.9,-2.63 12.76,-7.99 2.78,-5.34 7.07,-10.68 12.74,-15.99 51.02,-80.1 99.18,-212.26 144.59,-396.49 45.39,-184.2 79.39,-377.7 102.08,-580.62 5.69,-69.43 11.36,-138.82 17.06,-208.21 5.63,-69.45 8.5,-136.16 8.5,-200.24l0 -256.31c-28.33,-523.25 -102.11,-1002.4 -221.21,-1437.59 -119.07,-435.11 -456.49,-652.68 -1012.27,-652.68 -368.61,0 -635.14,126.8 -799.54,380.39 -164.55,253.62 -275.09,532.59 -331.78,836.93 -22.69,144.18 -38.26,285.65 -46.76,424.49 -8.56,138.81 -12.76,264.27 -12.76,376.39 0,32.06 0,62.74 0,92.11 0,29.38 2.77,57.41 8.5,84.1 0,21.35 0,44.04 0,68.08 0,24.03 0,44.04 0,60.05l0 -8.02zm4278.71 -2763.04l637.94 0 0 3764.19c0,416.47 95.01,695.41 284.96,836.94 189.99,141.46 449.48,212.2 778.34,212.2 379.97,0 650.79,-96.09 812.42,-288.31 161.62,-192.25 242.37,-480.52 242.37,-864.96l0 -3660.06 655 0 0 3980.42c0,80.07 -5.63,165.5 -16.96,256.27 -11.37,90.78 -31.2,181.55 -59.49,272.32 -73.78,213.54 -226.88,408.45 -459.38,584.62 -232.57,176.21 -603.98,264.33 -1114.35,264.33 -737.25,0 -1215.05,-140.15 -1433.34,-420.46 -218.37,-280.31 -327.51,-668.78 -327.51,-1165.31l0 -3772.19zm4176.64 5245.81l1582.22 -5245.81 884.65 0 1531.17 5245.81 -714.52 0 -408.39 -1481.62 -1760.84 0 -408.27 1481.62 -706.02 0zm2705.07 -2042.26l-706.05 -2706.99 -714.52 2706.99 1420.57 0zm2118.09 2042.26l0 -5245.81 1650.28 0c34.02,5.31 69.45,8.02 106.28,8.02 36.92,0 75.18,2.68 114.9,7.99 345.88,16.04 667.76,106.79 965.48,275 297.73,166.85 472.11,509.9 523.14,1030.44l0 96.14c0,304.31 -92.15,557.93 -276.47,758.14 -184.31,201.56 -387,331.07 -608.21,389.78 -28.36,10.68 -58.12,18.67 -89.31,24.01 -31.19,5.37 -60.98,8.02 -89.28,8.02 11.3,0 21.26,1.37 29.76,4 8.47,2.68 21.26,6.71 38.23,12.01 45.39,5.34 97.87,13.36 157.39,24.07 59.55,10.64 117.67,29.34 174.42,56.03 102.04,37.4 199.85,97.45 293.43,180.2 93.57,82.78 157.33,213.55 191.38,389.78 11.34,101.45 22.7,222.88 34.06,365.72 11.33,141.49 22.66,286.99 34.05,436.5 28.3,257.59 66.59,493.88 114.78,710.11 48.25,217.57 114.84,325.7 199.95,325.7l25.52 -16.02 0 160.17 -765.6 0c-68.05,-122.8 -112.03,-266.98 -131.87,-432.48 -19.86,-165.51 -32.65,-336.38 -38.25,-512.55 0,-10.71 -1.44,-20.04 -4.3,-28.06 -2.77,-8 -4.2,-17.36 -4.2,-28 -11.33,-336.38 -56.72,-639.41 -136.13,-909.01 -79.41,-269.67 -326.09,-404.45 -740.08,-404.45l-1122.85 0 0 2314.55 -646.5 0zm646.5 -2867.15l1003.78 0c323.22,5.31 569.92,-70.76 740.11,-226.96 170.06,-156.14 255.17,-368.37 255.17,-638.03l0 -144.15c-28.39,-296.33 -131.87,-504.56 -310.52,-626.05 -178.59,-121.42 -443.78,-182.85 -795.33,-182.85l-893.21 0 0 1818.04zm3947 2867.15l0 -5245.81 2875.19 0 0 552.6 -2228.72 0 0 1657.85 2058.57 0 0 552.59 -2058.57 0 0 1938.16 2169.14 0 0 544.61 -2815.61 0z"/>
  <path class="fil3" d="M22077.21 14895l0 837.92 -175.55 0 0 -375.61c-55.46,85.97 -96.73,147.19 -123,184.34 -49.86,67.4 -111.32,121.34 -184.5,162.11 -65.99,35.36 -138.37,53.19 -217.48,53.19 -154.53,0 -273.03,-65.21 -355.87,-195.26 -60.78,-95.09 -91.1,-209.45 -91.1,-342.42 0,-196.4 51.73,-382.56 154.88,-558.89 100.85,-173.05 235.82,-295.07 404.21,-366.88 79.53,-34.23 158.29,-51.35 235.88,-51.35 128.26,0 251.24,48.46 369,145.02l-129.36 121.63c-76.11,-71.39 -156.38,-107.05 -240.74,-107.05 -61.88,0 -126.38,18.22 -193.12,54.27 -66.76,36.44 -128.25,87.08 -185.69,152.62 -53.23,60.48 -98.55,129.33 -136.07,206.6 -58.53,124.58 -87.79,248.78 -87.79,373.4 0,110.01 23.26,201.08 69.42,272.86 49.48,76.16 116.27,114.03 199.47,114.03 105,0 203.97,-60.09 297.73,-179.97 26.3,-33.13 78.78,-117.31 157.15,-252.48l116.27 -201.08 116.26 -47zm756 4.75l68.2 -152.68c59.64,0 106.16,3.99 139.92,11.69 71.21,17.86 124.86,55.73 161.62,113.31 34.45,53.92 51.74,118.39 51.74,193.06 0,99.81 -21.02,198.54 -63.34,296.92 -42.01,98.37 -98.64,181.42 -169.52,249.92 -106.52,100.91 -225.74,151.55 -358.5,151.55 -139.92,0 -248.67,-48.46 -325.52,-145.35 -62.29,-79.44 -93.39,-178.17 -93.39,-295.49 0,-207.28 89.64,-398.9 269.27,-575.61l-202.15 0 63.79 -150.8 640.47 0 -28.5 71.03c-97.46,16.4 -187.1,53.52 -268.51,111.11 -100.13,70.7 -176.98,158.46 -229.49,263.76 -44.58,89.64 -67.1,180.71 -67.1,273.24 0,87.79 22.88,156.64 68.23,207.28 47.62,52.84 106.55,79.08 175.85,79.08 93.4,0 175.55,-39 246.82,-116.57 49.83,-54.66 89.55,-117.7 119.22,-189.12 29.61,-71 44.61,-139.85 44.61,-206.17 0,-56.84 -17.65,-103.09 -52.9,-138.81 -35.21,-35.7 -81.35,-53.56 -137.59,-53.56 -14.25,0 -31.87,0.74 -53.23,2.21zm1099.89 0l68.2 -152.68c59.64,0 106.16,3.99 139.92,11.69 71.24,17.86 124.85,55.73 161.62,113.31 34.44,53.92 51.74,118.39 51.74,193.06 0,99.81 -21.03,198.54 -63.34,296.92 -42.02,98.37 -98.64,181.42 -169.53,249.92 -106.51,100.91 -225.74,151.55 -358.49,151.55 -139.89,0 -248.65,-48.46 -325.52,-145.35 -62.24,-79.44 -93.37,-178.17 -93.37,-295.49 0,-207.28 89.64,-398.9 269.25,-575.61l-202.15 0 63.78 -150.8 640.48 0 -28.51 71.03c-97.45,16.4 -187.09,53.52 -268.5,111.11 -100.14,70.7 -176.98,158.46 -229.5,263.76 -44.61,89.64 -67.09,180.71 -67.09,273.24 0,87.79 22.84,156.64 68.23,207.28 47.62,52.84 106.55,79.08 175.85,79.08 93.39,0 175.52,-39 246.82,-116.57 49.83,-54.66 89.55,-117.7 119.22,-189.12 29.61,-71 44.61,-139.85 44.61,-206.17 0,-56.84 -17.65,-103.09 -52.87,-138.81 -35.25,-35.7 -81.38,-53.56 -137.62,-53.56 -14.25,0 -31.88,0.74 -53.23,2.21zm1541.58 -830.29l0 1663.46 -168.72 0 0 -406.6c-35.22,92.56 -83.97,173.08 -146.27,241.93 -112.09,122.77 -233.61,184.32 -364.85,184.32 -99.03,0 -181.87,-33.49 -248.25,-100.16 -68.26,-68.5 -102.37,-157.75 -102.37,-268.86 0,-165.77 57.37,-320.6 172.48,-464.9 109.88,-138.04 247.15,-233.49 410.98,-287.05 58.18,-18.93 134.67,-37.54 229.91,-55.37l-74.64 169.76c-124.86,29.88 -235.1,86.33 -331.12,169.41 -65.99,56.84 -119.25,122.38 -159.39,196.37 -46.85,84.51 -70.46,169.4 -70.46,254.99 0,51.77 14.64,98.4 43.89,139.56 35.22,49.17 82.07,73.59 140.99,73.59 44.58,0 92.59,-16.76 144.33,-50.63 51.74,-33.88 97.18,-77.62 135.77,-131.9 76.49,-107.11 133.51,-230.63 171.73,-369.8 31.52,-115.46 47.27,-226.57 47.27,-334.04l0 -624.08 168.72 0zm1941.38 817.52l-56.98 168.34 -113.26 0 0 677.6 -184.5 0 0 -677.6 -589.51 0 0 677.6 -184.5 0 0 -677.6 -192.37 0 58.54 -168.34 133.83 0 0 -612.06 184.5 0 0 612.06 589.51 0 0 -612.06 184.5 0 0 612.06 170.24 0zm1213.89 -286.36l-63.79 141.73c-67.09,-5.48 -116.2,-8.37 -146.98,-8.37 -209.25,0 -390.34,69.92 -543.32,209.84 -68.65,62.29 -122.62,133.33 -162.4,212.77 -35.61,73.2 -53.59,146.8 -53.59,221.5 0,68.11 20.96,122.02 62.59,161.74 36.38,35.34 77.6,53.17 122.98,53.17 46.91,0 90.39,-14.52 130.55,-44.07 40.05,-29.49 81.35,-77.56 122.95,-143.55 33.01,-50.25 76.55,-128.95 130.53,-235.32l164.57 -322.08 114.01 -70.29 0 955.23 -168.7 0 0 -435.34 -50.63 97.98c-55.53,107.48 -112.9,189.81 -171.44,247.39 -78.31,77.56 -171.34,116.18 -278.96,116.18 -82.85,0 -155.96,-24.03 -219,-72.49 -93.01,-71.78 -139.47,-178.53 -139.47,-320.21 0,-190.55 85.1,-365.06 255.02,-522.78 189,-175.28 423.71,-262.68 704.98,-262.68 63.72,0 127.12,6.53 190.1,19.65zm1010.99 1132.3l-168.78 0 0 -772.7c-0.75,-79.8 -1.85,-129.33 -3.7,-148.29 -1.91,-19.3 -6.8,-34.24 -15.03,-45.9 -8.64,-11.27 -19.53,-16.76 -31.9,-16.76 -29.26,0 -61.08,29.14 -94.86,87.44 -34.47,58.29 -88.84,166.84 -163.48,325.33 -74.64,158.83 -135.77,296.92 -183.39,414.23l-40.82 97.99 -162.05 111.86 0 -1189.85 168.76 0 0 691.47c57.37,-189.09 136.15,-362.89 236.62,-521.35 40.11,-62.65 77.23,-107.47 110.99,-134.46 46.85,-38.23 98.64,-57.52 155.24,-57.52 37.13,0 71.24,9.84 102.02,29.16 31.1,19.65 52.51,45.51 65.27,77.21 10.86,28.03 17.57,57.94 20.58,90.38 3.01,32.06 4.53,95.78 4.53,191.24l0 770.52zm1196.24 -1663.46l0 1663.46 -168.7 0 0 -406.6c-35.27,92.56 -84.03,173.08 -146.26,241.93 -112.13,122.77 -233.67,184.32 -364.85,184.32 -99.07,0 -181.91,-33.49 -248.29,-100.16 -68.22,-68.5 -102.4,-157.75 -102.4,-268.86 0,-165.77 57.44,-320.6 172.51,-464.9 109.89,-138.04 247.12,-233.49 411.01,-287.05 58.12,-18.93 134.61,-37.54 229.86,-55.37l-74.58 169.76c-124.92,29.88 -235.14,86.33 -331.19,169.41 -65.96,56.84 -119.22,122.38 -159.33,196.37 -46.9,84.51 -70.49,169.4 -70.49,254.99 0,51.77 14.61,98.4 43.87,139.56 35.27,49.17 82.12,73.59 140.98,73.59 44.59,0 92.63,-16.76 144.39,-50.63 51.71,-33.88 97.13,-77.62 135.72,-131.9 76.48,-107.11 133.53,-230.63 171.76,-369.8 31.49,-115.46 47.29,-226.57 47.29,-334.04l0 -624.08 168.7 0zm884.67 528.98l-46.13 148.3c-41.66,-8.38 -84.39,-12.76 -127.51,-12.76 -193.15,0 -289.47,45.17 -289.47,135.89 0,28.41 10.86,49.53 32.98,64.11 21.74,14.22 66.38,29.13 132.76,44.82 97.46,22.57 170.63,48.78 219.69,77.95 86.69,51.38 129.81,127.51 129.81,228.81 0,93.96 -35.67,182.11 -106.55,263.76 -115.43,134.07 -286.07,201.07 -511.48,201.07 -63.75,0 -137.23,-6.2 -220.87,-18.54l49.53 -164.34c66.38,14.22 127.87,21.11 184.11,21.11 140.96,0 248.97,-30.92 324.35,-92.86 62.65,-50.63 94.14,-109.29 94.14,-175.97 0,-57.19 -25.49,-98.37 -76.49,-123.87 -21.41,-10.95 -41.62,-18.97 -61.51,-24.78 -19.48,-5.46 -77.98,-20.04 -175.14,-43.72 -137.59,-33.49 -206.62,-102.73 -206.62,-208.02 0,-61.22 18.01,-117.67 53.64,-169.41 36,-51.38 84.72,-90.71 146.27,-117.67 77.59,-34.24 173.2,-51.35 286.48,-51.35 46.85,0 102.73,5.81 168.01,17.47zm674.65 472.14l-49.53 161.78 -514.13 0 48.43 -161.78 515.23 0z"/>
  <path class="fil2" d="M33595.75 14895l0 837.92 -175.49 0 0 -375.61c-55.5,85.97 -96.77,147.19 -123.04,184.34 -49.86,67.4 -111.35,121.34 -184.5,162.11 -65.99,35.36 -138.36,53.19 -217.51,53.19 -154.47,0 -273,-65.21 -355.84,-195.26 -60.77,-95.09 -91.13,-209.45 -91.13,-342.42 0,-196.4 51.77,-382.56 154.91,-558.89 100.86,-173.05 235.82,-295.07 404.19,-366.88 79.53,-34.23 158.28,-51.35 235.9,-51.35 128.23,0 251.21,48.46 369,145.02l-129.36 121.63c-76.1,-71.39 -156.44,-107.05 -240.74,-107.05 -61.88,0 -126.41,18.22 -193.14,54.27 -66.74,36.44 -128.23,87.08 -185.63,152.62 -53.26,60.48 -98.62,129.33 -136.1,206.6 -58.54,124.58 -87.79,248.78 -87.79,373.4 0,110.01 23.26,201.08 69.42,272.86 49.47,76.16 116.24,114.03 199.46,114.03 104.97,0 203.97,-60.09 297.73,-179.97 26.3,-33.13 78.78,-117.31 157.18,-252.48l116.21 -201.08 116.27 -47zm756 4.75l68.23 -152.68c59.64,0 106.16,3.99 139.91,11.69 71.21,17.86 124.86,55.73 161.6,113.31 34.47,53.92 51.77,118.39 51.77,193.06 0,99.81 -21.06,198.54 -63.37,296.92 -42.02,98.37 -98.65,181.42 -169.53,249.92 -106.52,100.91 -225.74,151.55 -358.47,151.55 -139.91,0 -248.67,-48.46 -325.51,-145.35 -62.27,-79.44 -93.4,-178.17 -93.4,-295.49 0,-207.28 89.64,-398.9 269.24,-575.61l-202.12 0 63.76 -150.8 640.48 0 -28.48 71.03c-97.48,16.4 -187.09,53.52 -268.47,111.11 -100.17,70.7 -177.04,158.46 -229.53,263.76 -44.64,89.64 -67.09,180.71 -67.09,273.24 0,87.79 22.87,156.64 68.2,207.28 47.62,52.84 106.54,79.08 175.87,79.08 93.37,0 175.56,-39 246.8,-116.57 49.86,-54.66 89.61,-117.7 119.22,-189.12 29.61,-71 44.64,-139.85 44.64,-206.17 0,-56.84 -17.63,-103.09 -52.9,-138.81 -35.22,-35.7 -81.35,-53.56 -137.62,-53.56 -14.23,0 -31.88,0.74 -53.23,2.21zm1099.88 0l68.23 -152.68c59.64,0 106.16,3.99 139.92,11.69 71.21,17.86 124.85,55.73 161.59,113.31 34.48,53.92 51.77,118.39 51.77,193.06 0,99.81 -21.05,198.54 -63.37,296.92 -41.98,98.37 -98.64,181.42 -169.55,249.92 -106.46,100.91 -225.68,151.55 -358.44,151.55 -139.92,0 -248.67,-48.46 -325.52,-145.35 -62.29,-79.44 -93.4,-178.17 -93.4,-295.49 0,-207.28 89.64,-398.9 269.25,-575.61l-202.12 0 63.76 -150.8 640.47 0 -28.48 71.03c-97.45,16.4 -187.09,53.52 -268.5,111.11 -100.13,70.7 -176.98,158.46 -229.49,263.76 -44.64,89.64 -67.1,180.71 -67.1,273.24 0,87.79 22.87,156.64 68.2,207.28 47.62,52.84 106.55,79.08 175.88,79.08 93.37,0 175.55,-39 246.79,-116.57 49.86,-54.66 89.58,-117.7 119.25,-189.12 29.58,-71 44.61,-139.85 44.61,-206.17 0,-56.84 -17.65,-103.09 -52.9,-138.81 -35.22,-35.7 -81.35,-53.56 -137.62,-53.56 -14.22,0 -31.88,0.74 -53.23,2.21zm1541.61 -830.29l0 1663.46 -168.69 0 0 -406.6c-35.27,92.56 -84.03,173.08 -146.3,241.93 -112.09,122.77 -233.61,184.32 -364.84,184.32 -99.04,0 -181.88,-33.49 -248.26,-100.16 -68.29,-68.5 -102.37,-157.75 -102.37,-268.86 0,-165.77 57.34,-320.6 172.45,-464.9 109.92,-138.04 247.15,-233.49 411.01,-287.05 58.18,-18.93 134.64,-37.54 229.88,-55.37l-74.61 169.76c-124.85,29.88 -235.1,86.33 -331.15,169.41 -65.99,56.84 -119.22,122.38 -159.33,196.37 -46.93,84.51 -70.49,169.4 -70.49,254.99 0,51.77 14.64,98.4 43.86,139.56 35.25,49.17 82.1,73.59 141.02,73.59 44.55,0 92.56,-16.76 144.3,-50.63 51.77,-33.88 97.19,-77.62 135.8,-131.9 76.46,-107.11 133.48,-230.63 171.71,-369.8 31.52,-115.46 47.32,-226.57 47.32,-334.04l0 -624.08 168.69 0zm1489.91 1495.13l-59.61 168.33 -694.16 0 0 -1458 184.5 0 0 1289.67 569.27 0zm301.09 168.33l-168.69 0 0 -1136.65 168.69 0 0 1136.65zm0 -1276.57l-168.69 0 0 -386.89 168.69 0 0 386.89zm823.9 -265.58c-107.98,7.67 -197.62,48.85 -268.5,123.9 -70.88,74.67 -108.72,168.28 -114,281.6l382.5 0 -50.63 159.56 -331.87 0 0 977.09 -168.75 0 0 -977.09 -137.23 0 47.23 -159.56 90 0c10.14,-165.03 64.89,-298.74 163.53,-401.47 98.62,-102.38 227.98,-159.21 387.72,-170.48l0 166.45zm714.37 1445.98c-123,69.93 -246.73,104.94 -370.84,104.94 -142.93,0 -253.89,-47.03 -333.78,-140.66 -66.38,-79.03 -99.74,-174.12 -99.74,-284.91 0,-164.28 55.52,-317.28 166.87,-458.63 67.54,-85.26 144.03,-151.58 229.52,-198.93 85.86,-47.35 172.48,-71.06 260.21,-71.06 84.43,0 150.78,25.52 199.89,76.88 42.37,44.1 63.72,98.73 63.72,163.95 0,76.13 -27.31,151.93 -82.48,227.34 -47.62,65.19 -107.62,120.6 -179.6,165.75 -72.41,44.81 -150.78,76.16 -235.14,93.24 -47.62,9.84 -104.25,16.4 -170.24,20.04 -1.85,-21.83 -3.04,-39.69 -3.04,-53.14 0,-26.63 6.02,-62.29 18.37,-107.86 118.92,-8.76 223.95,-44.82 314.66,-108.93 49.89,-34.62 89.25,-71.06 117.37,-109.29 28.15,-37.9 42.41,-72.88 42.41,-104.94 0,-68.85 -38.62,-103.47 -116.3,-103.47 -63.7,0 -133.12,30.62 -207.73,91.81 -75.38,62.68 -133.86,136.25 -175.88,220.79 -38.62,79.02 -58.09,161.75 -58.09,247.75 0,86.68 27.32,153.72 82.07,200.69 47.62,40.46 111.79,60.86 192.07,60.86 41.6,0 80.96,-5.46 118.12,-16.73 36.73,-10.94 95.21,-34.62 174.74,-71.06l52.84 155.57z"/>
  <path class="fil4 str0" d="M41686.64 423.32c653.12,0 1182.6,529.49 1182.6,1182.61 0,653.12 -529.48,1182.58 -1182.6,1182.58 -653.07,0 -1182.55,-529.46 -1182.55,-1182.58 0,-653.12 529.48,-1182.61 1182.55,-1182.61z"/>
  <path class="fil2" d="M41077.08 2298.47l0 -1385.41 614.03 0c123.51,0 217.36,12.58 281.53,37.42 64.17,24.81 115.43,68.68 153.81,131.57 38.41,62.89 57.38,132.52 57.38,208.62 0,98.41 -31.91,181.28 -95.43,248.7 -63.48,67.4 -161.56,109.95 -294.44,128.32 48.66,23.23 85.43,46.43 110.63,69 53.5,49.03 104.13,110.6 151.55,184.5l239.63 377.28 -228.96 0 -183.21 -288.27c-53.23,-83.55 -97.4,-147.07 -131.87,-191.26 -34.83,-44.17 -65.81,-74.79 -93.21,-92.57 -27.08,-17.41 -55.17,-29.67 -83.53,-36.76 -20.61,-4.21 -54.48,-6.45 -101.9,-6.45l-212.2 0 0 615.31 -183.81 0zm183.81 -773.95l393.45 0c83.85,0 148.98,-8.71 196.04,-26.12 47.08,-17.12 82.93,-44.82 107.11,-83.2 24.51,-38.08 36.77,-79.35 36.77,-124.17 0,-65.46 -23.56,-119.64 -70.97,-161.89 -47.45,-42.23 -122.2,-63.19 -224.46,-63.19l-437.94 0 0 458.57z"/>
 </g>
</svg>
