<?xml version="1.0" encoding="UTF-8"?>
<svg xmlns="http://www.w3.org/2000/svg" xmlns:xlink="http://www.w3.org/1999/xlink" xmlns:svgjs="http://svgjs.com/svgjs" version="1.1" width="512" height="512" x="0" y="0" viewBox="0 0 52 52" style="enable-background:new 0 0 512 512" xml:space="preserve" class="">
  <g>
    <path fill="#ff8e8e" d="M46.346 10.888v5.58c0 .6-.49 1.09-1.09 1.09h-.54v-7.75h.54c.6 0 1.09.48 1.09 1.08z" data-original="#474646" class=""/>
    <path fill="#1b1b1b" d="M44.716 9.808h.875v7.75h-.875z" data-original="#1b1b1b" class=""/>
    <path fill="#ff8e8e" d="M39.616 50H10.754a5.1 5.1 0 0 1-5.1-5.1V7.1a5.1 5.1 0 0 1 5.1-5.1h28.862a5.1 5.1 0 0 1 5.1 5.1v37.8a5.1 5.1 0 0 1-5.1 5.1z" data-original="#474646" class=""/>
    <path fill="#2d2c2c" d="M44.716 7.098v37.8c0 2.82-2.28 5.1-5.1 5.1h-28.86c-1.4 0-2.67-.56-3.59-1.47.64.3 1.37.47 2.13.47h28.87c2.81 0 5.1-2.28 5.1-5.1v-37.8c0-1.43-.59-2.72-1.55-3.65 1.77.8 3 2.59 3 4.65z" data-original="#2d2c2c" class=""/>
    <path fill="#ffffff" d="M10.753 44a1.1 1.1 0 0 1-1.1-1.1V7.1c0-.606.494-1.1 1.1-1.1h28.864c.606 0 1.1.494 1.1 1.1v35.8a1.1 1.1 0 0 1-1.1 1.1z" data-original="#ffffff" class=""/>
    <path fill="#e4e3ff" d="M40.716 7.098v.12h-28.59c-.6 0-1.1.5-1.1 1.11v35.67h-.27c-.61 0-1.1-.49-1.1-1.1v-35.8c0-.6.49-1.1 1.1-1.1h28.86c.61 0 1.1.5 1.1 1.1z" data-original="#e4e3ff" class=""/>
    <g fill="#fc6559">
      <path d="M13.771 12.263c0-1.548 1.039-2.512 2.448-2.512.532 0 1.008.101 1.596.434.18.097.198.323.077.451a.291.291 0 0 1-.329.053c-.476-.25-.834-.33-1.28-.33-1.189 0-1.875.777-1.875 1.904 0 1.132.687 1.902 1.875 1.902.426 0 .79-.071 1.28-.328a.297.297 0 0 1 .33.05.291.291 0 0 1-.078.453c-.565.322-1.04.435-1.596.435-1.415 0-2.448-.97-2.448-2.512z" fill="#fc6559" data-original="#fc6559" class=""/>
      <path d="M16.22 14.874c-1.462 0-2.548-1.006-2.548-2.611 0-1.582 1.061-2.611 2.547-2.611.556 0 1.052.11 1.645.446a.387.387 0 0 1 .1.606.395.395 0 0 1-.446.075c-.457-.241-.801-.32-1.235-.32-1.13 0-1.776.733-1.776 1.804 0 1.087.654 1.803 1.776 1.803.43 0 .773-.076 1.233-.318a.396.396 0 0 1 .447.068.39.39 0 0 1-.1.612c-.574.328-1.071.446-1.644.446zm0-.199c.543 0 1.002-.112 1.545-.422a.192.192 0 0 0 .057-.297.195.195 0 0 0-.214-.029c-.503.261-.88.338-1.325.338-1.234 0-1.975-.805-1.975-2.002 0-1.185.732-2.003 1.975-2.003.466 0 .838.084 1.327.34.06.032.158.02.21-.033a.187.187 0 0 0-.053-.294c-.55-.312-1.008-.422-1.548-.422-1.344 0-2.348.912-2.348 2.412 0 1.483.988 2.412 2.348 2.412zM19.102 14.264v-4.156c0-.171.13-.322.315-.322a.32.32 0 0 1 .322.322v3.96h2.287c.179 0 .322.143.322.322 0 .18-.145.314-.322.314h-2.483a.44.44 0 0 1-.44-.44z" fill="#fc6559" data-original="#fc6559" class=""/>
      <path d="M22.026 14.804h-2.483a.539.539 0 0 1-.54-.54v-4.156c0-.567.836-.545.836 0v3.86h2.187a.42.42 0 0 1 .422.422.414.414 0 0 1-.422.414zm-2.61-4.918a.216.216 0 0 0-.214.222v4.156c0 .192.156.34.34.34h2.484a.217.217 0 0 0 .223-.214.223.223 0 0 0-.223-.223h-2.387v-4.06a.22.22 0 0 0-.222-.22zM22.925 14.649c-.089-.093-.114-.218-.052-.364l1.784-4.212c.037-.083.09-.153.157-.206s.15-.08.248-.08h.07c.098 0 .181.026.249.08s.12.123.157.206l1.784 4.212a.378.378 0 0 1 .035.14.304.304 0 0 1-.314.315.328.328 0 0 1-.301-.197l-.455-1.09h-2.38l-.453 1.09a.33.33 0 0 1-.301.197.3.3 0 0 1-.228-.091zm1.228-1.778h1.889l-.945-2.273z" fill="#fc6559" data-original="#fc6559" class=""/>
      <path d="M27.043 14.84a.424.424 0 0 1-.392-.256l-.43-1.032h-2.247l-.427 1.03a.43.43 0 0 1-.694.136c-.113-.118-.151-.285-.072-.473l1.784-4.211a.643.643 0 0 1 .187-.246.486.486 0 0 1 .31-.101h.07c.122 0 .226.034.311.101a.64.64 0 0 1 .186.244l1.785 4.213c.029.07.043.127.043.18a.402.402 0 0 1-.414.414zm-3.202-1.487h2.512l.482 1.152a.22.22 0 0 0 .084.098c.137.09.338.014.338-.179a.284.284 0 0 0-.027-.1l-1.784-4.212a.453.453 0 0 0-.128-.167.285.285 0 0 0-.186-.059h-.07a.285.285 0 0 0-.185.059.456.456 0 0 0-.13.169l-1.782 4.21c-.04.096-.04.181.033.255.095.102.29.081.365-.078zm2.35-.382h-2.187l1.093-2.634zm-1.889-.2h1.59l-.795-1.912zM28.56 14.424v-4.316c0-.088.03-.164.091-.228.06-.062.135-.094.224-.094s.165.032.227.094a.31.31 0 0 1 .095.228v4.316a.315.315 0 0 1-.322.316.31.31 0 0 1-.315-.316z" fill="#fc6559" data-original="#fc6559" class=""/>
      <path d="M28.875 14.84a.408.408 0 0 1-.414-.416v-4.316a.416.416 0 0 1 .712-.298.405.405 0 0 1 .124.298v4.316a.413.413 0 0 1-.422.415zm0-4.954c-.062 0-.11.02-.152.064a.22.22 0 0 0-.063.158v4.316c0 .063.02.112.061.154.134.134.376.041.376-.154v-4.316a.213.213 0 0 0-.065-.157.214.214 0 0 0-.157-.065zM30.82 14.649a.306.306 0 0 1-.09-.225v-4.176c0-.126.043-.234.132-.326a.434.434 0 0 1 .322-.136h.23c.093 0 .18.028.256.084a.51.51 0 0 1 .171.21l1.588 3.96 1.588-3.96a.519.519 0 0 1 .172-.21.42.42 0 0 1 .255-.084h.231a.43.43 0 0 1 .322.136c.089.092.133.2.133.326v4.176c0 .089-.03.164-.091.225s-.135.09-.224.09a.317.317 0 0 1-.321-.315v-3.973l-1.616 3.995a.483.483 0 0 1-.718.213.461.461 0 0 1-.178-.213l-1.616-3.995v3.973a.298.298 0 0 1-.095.225c-.062.06-.139.09-.227.09s-.163-.03-.224-.09z" fill="#fc6559" data-original="#fc6559" class=""/>
      <path d="M35.815 14.84a.416.416 0 0 1-.42-.416v-3.46l-1.425 3.519a.592.592 0 0 1-.865.26.556.556 0 0 1-.215-.26l-1.425-3.519v3.46a.396.396 0 0 1-.125.297.427.427 0 0 1-.59-.002.4.4 0 0 1-.12-.295v-4.176c0-.152.053-.285.16-.395a.535.535 0 0 1 .394-.166h.23c.117 0 .222.034.315.103.091.066.16.15.204.25l1.496 3.73 1.495-3.727a.62.62 0 0 1 .207-.254.517.517 0 0 1 .313-.102h.231a.53.53 0 0 1 .394.166c.106.11.16.243.16.395v4.176a.4.4 0 0 1-.12.295.4.4 0 0 1-.294.12zm-.222-4.903v4.487c0 .063.02.111.064.153.09.085.227.085.311.001a.21.21 0 0 0 .062-.154v-4.176c0-.1-.034-.183-.106-.256a.331.331 0 0 0-.249-.106h-.231a.316.316 0 0 0-.195.066.417.417 0 0 0-.14.17l-1.68 4.186-1.68-4.19a.413.413 0 0 0-.138-.166.319.319 0 0 0-.196-.066h-.23c-.1 0-.182.035-.252.107a.352.352 0 0 0-.104.255v4.176c0 .063.02.112.061.154a.222.222 0 0 0 .312-.001.197.197 0 0 0 .064-.153V9.937l1.809 4.472a.36.36 0 0 0 .14.166.383.383 0 0 0 .43 0 .366.366 0 0 0 .14-.168z" fill="#fc6559" data-original="#fc6559" class=""/>
    </g>
    <circle cx="25.186" cy="46.669" r="1.375" fill="#2d2c2c" data-original="#2d2c2c" class=""/>
    <circle cx="17.672" cy="36.014" r="4.619" fill="#f9b938" data-original="#f9b938"/>
    <path fill="#e4e3ff" d="M37.317 33.652H25a.5.5 0 1 1 0-1h12.317a.5.5 0 1 1 0 1zM37.317 36.514H25a.5.5 0 1 1 0-1h12.317a.5.5 0 1 1 0 1zM30.917 39.376H25a.5.5 0 1 1 0-1h5.917a.5.5 0 1 1 0 1z" data-original="#e4e3ff" class=""/>
    <circle cx="17.672" cy="22.917" r="4.619" fill="#00d67f" data-original="#00d67f" class=""/>
    <path fill="#ecb021" d="M22.286 36.018c0 2.55-2.06 4.62-4.61 4.62-1.83 0-3.41-1.06-4.15-2.6.84.98 2.09 1.6 3.49 1.6 2.55 0 4.62-2.07 4.62-4.62 0-.72-.17-1.4-.47-2.01.7.81 1.12 1.87 1.12 3.01z" data-original="#ecb021" class=""/>
    <path fill="#00c179" d="M22.286 22.918c0 2.55-2.06 4.62-4.61 4.62-1.83 0-3.41-1.06-4.15-2.6.84.98 2.09 1.6 3.49 1.6 2.55 0 4.62-2.07 4.62-4.62 0-.72-.17-1.4-.47-2.01.7.81 1.12 1.87 1.12 3.01z" data-original="#00c179" class=""/>
    <path fill="#e4e3ff" d="M37.317 20.554H25a.5.5 0 1 1 0-1h12.317a.5.5 0 1 1 0 1zM37.317 23.416H25a.5.5 0 1 1 0-1h12.317a.5.5 0 1 1 0 1zM30.917 26.279H25a.5.5 0 1 1 0-1h5.917a.5.5 0 1 1 0 1z" data-original="#e4e3ff" class=""/>
    <path fill="#ffffff" d="M16.96 24.32a.502.502 0 0 1-.394-.191l-.83-1.06a.501.501 0 0 1 .787-.617l.52.663 1.858-1.492a.5.5 0 0 1 .625.78l-2.253 1.807a.494.494 0 0 1-.312.11zM16.96 37.418a.502.502 0 0 1-.394-.191l-.83-1.062a.501.501 0 0 1 .787-.617l.52.663 1.857-1.49a.5.5 0 0 1 .627.78l-2.253 1.807c-.09.072-.2.11-.313.11z" data-original="#ffffff" class=""/>
    <path fill="#ffffff" d="M7.571 21.972a.662.662 0 0 1-.662-.663v-7.102a.662.662 0 1 1 1.325 0v7.102a.662.662 0 0 1-.663.663zM7.571 11.66a.662.662 0 0 1-.662-.663V8.65a.662.662 0 1 1 1.325 0v2.347a.662.662 0 0 1-.663.663zM21.138 3.699a.662.662 0 0 1-.662.662H15.19a.662.662 0 1 1 0-1.325h5.286c.366 0 .662.296.662.663z" opacity=".3" data-original="#ffffff" class=""/>
  </g>
</svg>
