<svg height="512" viewBox="0 0 60 61" width="512" xmlns="http://www.w3.org/2000/svg"><g id="Page-1" fill="none" fill-rule="evenodd"><g id="023---Searching" transform="translate(-1)"><g id="Icons_copy" transform="translate(2 2)"><path id="Path" d="m19 52h7v4c0 1.1045695-.8954305 2-2 2h-3c-1.1045695 0-2-.8954305-2-2z" fill="#607d8b"/><path id="Path" d="m23 52v4c0 1.1045695-.8954305 2-2 2h3c1.1045695 0 2-.8954305 2-2v-4z" fill="#37474f"/><path id="Path" d="m46 52h7v4c0 1.1045695-.8954305 2-2 2h-3c-1.1045695 0-2-.8954305-2-2z" fill="#607d8b"/><path id="Path" d="m50 52v4c0 1.1045695-.8954305 2-2 2h3c1.1045695 0 2-.8954305 2-2v-4z" fill="#37474f"/><path id="Path" d="m21 35h30c2.209139 0 4 1.790861 4 4v11c0 1.1045695-.8954305 2-2 2h-34c-1.1045695 0-2-.8954305-2-2v-11c0-2.209139 1.790861-4 4-4z" fill="#f44335"/><path id="Path" d="m51 35h-3c2.209139 0 4 1.790861 4 4v11c0 1.1045695-.8954305 2-2 2h3c1.1045695 0 2-.8954305 2-2v-11c0-2.209139-1.790861-4-4-4z" fill="#c81e1e"/><path id="Path" d="m17 40h8c.3786657.0002022.7247365.2142706.894.553l1 2c.1548588.3099025.1382854.6778792-.0438055.9726057-.1820908.2947265-.5037544.4742093-.8501945.4743943h-9z" fill="#ffdc00"/><path id="Path" d="m26.894 42.553-1-2c-.1692635-.3387294-.5153343-.5527978-.894-.553h-3c.3786657.0002022.7247365.2142706.894.553l1 2c.1548588.3099025.1382854.6778792-.0438055.9726057-.1820908.2947265-.5037544.4742093-.8501945.4743943h3c.3464401-.000185.6681037-.1796678.8501945-.4743943.1820909-.2947265.1986643-.6627032.0438055-.9726057z" fill="#fec108"/><path id="Path" d="m55 40h-8c-.1854298.0000307-.3671992.0516186-.525.149-.1578152.0964109-.285605.2349364-.369.4l-.5 1-.5 1c-.1567656.3102365-.1411856.6796229.0411472.9755568.1823329.2959339.5052584.4759565.8528528.4754432l9 .0000011z" fill="#ffdc00"/><path id="Path" d="m52.001 40v2 2h3v-2-2z" fill="#fec108"/><rect id="Rectangle" fill="#f5f5f5" height="4" rx="1" width="12" x="30" y="44"/><path id="Path" d="m41 44h-3c.5522847 0 1 .4477153 1 1v2c0 .5522847-.4477153 1-1 1h3c.5522847 0 1-.4477153 1-1v-2c0-.5522847-.4477153-1-1-1z" fill="#cfd8dc"/><path id="Path" d="m21 35 1.81-6.78 1.14-4.27.46-1.72c.3460895-1.3127465 1.5323999-2.2281348 2.89-2.23h17.4c1.3576001.0018652 2.5439105.9172535 2.89 2.23l3.41 12.77" fill="#00bcd4"/><path id="Path" d="m47.59 22.23c-.3460895-1.3127465-1.5323999-2.2281348-2.89-2.23h-3c1.3576001.0018652 2.5439105.9172535 2.89 2.23l3.41 12.77h3z" fill="#00838f"/><path id="Path" d="m53 30h5v3c0 1.1045695-.8954305 2-2 2h-3c-1.1045695 0-2-.8954305-2-2v-1c0-1.1045695.8954305-2 2-2z" fill="#f44335" transform="matrix(-1 0 0 -1 109 65)"/><path id="Path" d="m56 30h-3c1.1045695 0 2 .8954305 2 2v1c0 1.1045695-.8954305 2-2 2h3c1.1045695 0 2-.8954305 2-2v-1c0-1.1045695-.8954305-2-2-2z" fill="#c81e1e"/><circle id="Oval" cx="16.004" cy="16.004" fill="#9e9e9e" r="16"/><path id="Path" d="m22.454 1.362c-2.5004513-1.10317515-5.2427217-1.54432149-7.963-1.281 8.218154.76464327 14.5046159 7.65751613 14.5113544 15.9111631.0067385 8.253647-6.2684599 15.1567756-14.4853544 15.9348369 7.8049162.7170922 14.9802959-4.3252637 16.9502473-11.9114505s-1.845537-15.48260846-9.0132473-18.6535495z" fill="#707070"/><path id="Path" d="m16 28.008c-6.62962607-.0033138-12.00131353-5.3803739-11.99799982-12.01.00331371-6.62962607 5.38037375-12.00131361 12.00999982-11.998 6.6296261.00331381 12.0013135 5.38037393 11.9979998 12.01-.0033137 6.6296261-5.3803737 12.0013136-12.0099998 11.998z" fill="#00bcd4"/><path id="Path" d="m20.841 5.022c-1.9874302-.88885572-4.1827337-1.2080593-6.341-.922 5.9978357.75074192 10.4997744 5.84742625 10.5043459 11.8920623.0045716 6.0446361-4.4896526 11.1481243-10.4863459 11.9079377.4914063.0644575.9863889.0978571 1.482.1 5.6721168-.0023525 10.5679258-3.9758703 11.737257-9.5261477 1.1693312-5.5502773-1.7072146-11.16127314-6.896257-13.4518523z" fill="#00838f"/><path id="Path" d="m12.412 31.6-4.144 9.407c-.6679884 1.5162978-2.43870222 2.2039884-3.955 1.536s-2.2039884-2.4387022-1.536-3.955l4.145-9.407z" fill="#f44335"/><path id="Path" d="m6.922 29.181-.488 1.107 2.978 1.312-4.144 9.407c-.25547546.578823-.68877524 1.0611624-1.237 1.377.09115824.058463.18565238.1115533.283.159 1.5160289.6673842 3.28606094-.0202155 3.954-1.536l4.144-9.407z" fill="#c81e1e"/></g><g id="Icons"><path id="Path" d="m11.053 22.971c-.3620472.0002593-.695959-.195192-.873-.511-2.45410617-4.3158667-.95252459-9.8037738 3.357-12.269.3107169-.1906535.7005648-.19711776 1.0174318-.0168706.3168671.1802472.5105433.5186444.5054598.8831549s-.2081213.697375-.5298916.8687157c-3.3558953 1.9206724-4.5220628 6.1964707-2.606 9.555.1739901.3095326.1707906.6881159-.0084061.9946636-.1791967.3065478-.5075124.4950799-.8625939.4953364z" fill="#fff"/><circle id="Oval" cx="18" cy="10" fill="#fff" r="1"/><g fill="#000"><path id="Shape" d="m30.117 13.3c-2.2481321-5.78031828-8.2664518-9.16754629-14.3742598-8.0901145-6.10780798 1.0774318-10.6039119 6.319429-10.73857308 12.5200777-.13466119 6.2006487 4.12962721 11.6328978 10.18490078 12.9744785 6.0552737 1.3415808 12.2149724-1.7811739 14.7119321-7.4584417 1.3968978-3.1535536 1.4746721-6.7347747.216-9.946zm-2.046 9.139c-2.2151458 5.0224037-7.7939149 7.643035-13.0737344 6.1413974-5.27981955-1.5016376-8.644487-6.6658786-7.88503132-12.1022963.75945568-5.4364176 5.41055792-9.48087313 10.89976572-9.4781011 3.7143197.00822128 7.1742174 1.88834073 9.2019256 5.0003558 2.0277082 3.1120151 2.3499657 7.0365394.8570744 10.4376442z" fill-rule="nonzero"/><path id="Shape" d="m43 45h-10c-1.1045695 0-2 .8954305-2 2v2c0 1.1045695.8954305 2 2 2h10c1.1045695 0 2-.8954305 2-2v-2c0-1.1045695-.8954305-2-2-2zm0 4h-10v-2h10z" fill-rule="nonzero"/><path id="Path" d="m36 43h4c.5522847 0 1-.4477153 1-1s-.4477153-1-1-1h-4c-.5522847 0-1 .4477153-1 1s.4477153 1 1 1z"/><path id="Shape" d="m58 31h-3c-.8814353.0031863-1.7162384.3964226-2.28 1.074l-2.163-8.1c-.4644098-1.7500099-2.0464216-2.9698448-3.857-2.974h-11.979c1.4858447-8.226455-3.2297299-16.31234588-11.1213483-19.07000012-7.8916183-2.75765423-16.61701239.6314124-20.57822313 7.99287328-3.96121073 7.36146084-1.98253286 16.51040114 4.66657143 21.57712684l-3.826 8.686c-.88972248 2.0216446.0275672 4.3817965 2.049 5.272.50570797.224267 1.05279459.3400886 1.606.34 1.58713286.0005652 3.0250983-.9354652 3.667-2.387l3.827-8.688c2.5503208.4772943 5.1773228.3453789 7.667-.385l-.467 1.742c-2.4208925.3843129-4.2049933 2.4688002-4.211 4.92v11c.0052514 1.2667854.8056491 2.3937454 2 2.816v3.184c0 1.6568542 1.3431458 3 3 3h3c1.6568542 0 3-1.3431458 3-3v-3h18v3c0 1.6568542 1.3431458 3 3 3h3c1.6568542 0 3-1.3431458 3-3v-3.184c1.1943509-.4222546 1.9947486-1.5492146 2-2.816v-11c-.0036768-1.0854693-.3641933-2.1396111-1.026-3h1.026c1.6568542 0 3-1.3431458 3-3v-1c0-1.6568542-1.3431458-3-3-3zm-48.646 11.6c-.28795607.6541533-.90302507 1.1049931-1.61351648 1.1826925-.7104914.0776994-1.40846466-.2295461-1.831-.806-.42253533-.5764539-.50543959-1.3345392-.21748352-1.9886925l3.68-8.354c.57474265.3419457 1.168729.650458 1.779.924.6129753.2665659 1.2410531.4969612 1.881.69zm2.6-10.873c-5.55238831-2.4454783-9.0848727-7.9949004-8.95019714-14.0604789s3.90998774-11.45274384 9.56544584-13.64937149c5.6554582-2.19662765 12.0772629-.77010855 16.2708201 3.61434781 4.1935573 4.38445638 5.3329779 10.86336468 2.8869312 16.41550258-1.5830967 3.6572412-4.5647469 6.5282722-8.2791975 7.9720396-3.7144507 1.4437675-7.8523603 1.3400336-11.4898025-.2880396zm21.6-6.874c.2651388-.6040069.495515-1.2226838.69-1.853h12.456c.9038998.00423 1.692609.6142089 1.924 1.488l3.076 11.512h-12.286l6.293-6.293c.3789722-.3923789.3735524-1.0160848-.0121814-1.4018186s-1.0094397-.3911536-1.4018186-.0121814l-7.707 7.707h-6.172l6.293-6.293c.3789722-.3923789.3735524-1.0160848-.0121814-1.4018186s-1.0094397-.3911536-1.4018186-.0121814l-7.707 7.707h-3.286l.669-2.5c3.8376953-1.7147477 6.9005465-4.7954207 8.593-8.643zm-13.554 18.147h7l1 2h-8zm7 15c0 .5522847-.4477153 1-1 1h-3c-.5522847 0-1-.4477153-1-1v-3h5zm27 0c0 .5522847-.4477153 1-1 1h-3c-.5522847 0-1-.4477153-1-1v-3h5zm1-5h-34c-.5522847 0-1-.4477153-1-1v-5h8c.6947884.0010227 1.3403254-.3586134 1.7051109-.9499369.3647854-.5913236.396545-1.3295969.0838891-1.9500631l-1-2c-.3385618-.6771006-1.0319813-1.1034625-1.789-1.1h-7c0-1.6568542 1.3431458-3 3-3h30c1.6568542 0 3 1.3431458 3 3h-7c-.7563578-.0011125-1.4486394.4245497-1.789 1.1l-1 2c-.3126559.6204662-.2808963 1.3587395.0838891 1.9500631.3647855.5913235 1.0103225.9509596 1.7051109.9499369h8v5c0 .5522847-.4477153 1-1 1zm1-8h-8l1-2h7zm3-10c0 .5522847-.4477153 1-1 1h-4v-2c0-.5522847.4477153-1 1-1h3c.5522847 0 1 .4477153 1 1z" fill-rule="nonzero"/></g></g></g></g></svg>