<?xml version="1.0" encoding="UTF-8"?>
<svg xmlns="http://www.w3.org/2000/svg" xmlns:xlink="http://www.w3.org/1999/xlink" xmlns:svgjs="http://svgjs.com/svgjs" version="1.1" width="512" height="512" x="0" y="0" viewBox="0 0 512 512" style="enable-background:new 0 0 512 512" xml:space="preserve" class="">
  <g>
    <rect width="272" height="392" x="24" y="24" fill="#ff8c8c" rx="24" data-original="#348fd9" class=""/>
    <path fill="#60d1e0" d="M88 456h224a24 24 0 0 0 24-24V88a24 24 0 0 0-24-24H136l-72 72v296a24 24 0 0 0 24 24z" data-original="#60d1e0" class=""/>
    <path fill="#8adbe6" d="M136 112V64l-72 72h48a24 24 0 0 0 24-24z" data-original="#8adbe6"/>
    <g fill="#4eb9c7">
      <path d="M280 160H120a24.028 24.028 0 0 0-24 24v208a24.028 24.028 0 0 0 24 24h160a24.028 24.028 0 0 0 24-24V184a24.028 24.028 0 0 0-24-24zm8 24v16H160v-24h120a8.009 8.009 0 0 1 8 8zm-144 72v24h-32v-24zm-32-16v-24h32v24zm32 56v24h-32v-24zm0 40v24h-32v-24zm16 0h128v24H160zm0-16v-24h128v24zm0-40v-24h128v24zm0-40v-24h128v24zm-40-64h24v24h-32v-16a8.009 8.009 0 0 1 8-8zm-8 216v-16h32v24h-24a8.009 8.009 0 0 1-8-8zm168 8H160v-24h128v16a8.009 8.009 0 0 1-8 8zM160 128h72v16h-72zM160 96h144v16H160z" fill="#4eb9c7" data-original="#4eb9c7" class=""/>
    </g>
    <path fill="#322b7d" d="M435.716 432H268.284A28.284 28.284 0 0 1 240 403.716a28.284 28.284 0 0 1 8.284-20A26.342 26.342 0 0 0 256 365.088V280a64 64 0 0 1 64-64h64a64 64 0 0 1 64 64v85.088a26.342 26.342 0 0 0 7.716 18.628 28.284 28.284 0 0 1 8.284 20A28.284 28.284 0 0 1 435.716 432z" data-original="#ffb531" class=""/>
    <path fill="#fcac1f" d="M400 168h-96l16 48h64z" data-original="#fcac1f" class=""/>
    <path fill="#ffffff" d="M384 296v-2.053A21.973 21.973 0 0 0 362.053 272H360v-8h-16v8h-2.053a21.948 21.948 0 0 0-6.94 42.769l28.926 9.642a5.947 5.947 0 0 1-1.88 11.589h-20.106a5.954 5.954 0 0 1-5.947-5.947V328h-16v2.053A21.973 21.973 0 0 0 341.947 352H344v8h16v-8h2.053a21.948 21.948 0 0 0 6.94-42.769l-28.926-9.642a5.947 5.947 0 0 1 1.88-11.589h20.106a5.954 5.954 0 0 1 5.947 5.947V296z" data-original="#f98500" class=""/>
    <path fill="#619cff" d="m299.216 268.012-13.842-8.024a40.249 40.249 0 0 1 14.614-14.614l8.024 13.842a24.229 24.229 0 0 0-8.796 8.796zM280 280h16v40h-16z" data-original="#ffc361" class=""/>
    <path fill="#b7e7eb" d="M464.577 250.984c-7.627-18.968-20.522-34-36.311-42.339l7.468-14.151c19.135 10.1 34.65 28.043 43.689 50.522z" data-original="#b7e7eb" class=""/>
    <path fill="#fec9a3" d="M445.762 393.175A54.621 54.621 0 0 0 415.46 384h-.833A54.626 54.626 0 0 0 376 400h-68a20 20 0 0 0-20 20 19.915 19.915 0 0 0 1.726 8.105l-27.749-23.124a21.526 21.526 0 0 0-13.757-4.99h-3.149A21.048 21.048 0 0 0 224 421.036v.368a21.537 21.537 0 0 0 8.3 17.064c14.489 11.262 44.093 34.286 57.2 44.481A23.978 23.978 0 0 0 304.235 488H456v-88z" data-original="#fec9a3" class=""/>
    <path fill="#ff8c8c" d="M456 400h32v88h-32z" data-original="#348fd9" class=""/>
    <rect width="80" height="16" x="296" y="432" fill="#feb784" rx="8" data-original="#feb784" class=""/>
  </g>
</svg>
