<svg height="442pt" viewBox="0 0 442 442.88009" width="442pt" xmlns="http://www.w3.org/2000/svg"><path d="m62.980469 9.761719h330.378906v433.117187h-330.378906zm0 0" fill="#3c51d1"/><path d="m80.039062 51.691406h276.5v372.1875h-236.097656c-22.316406 0-40.40625-18.09375-40.402344-40.410156zm0 0" fill="#2044b4"/><path d="m365.199219 42.910156v372.191406h-241.757813c-.628906 0-1.257812-.019531-1.890625-.0625-18.398437-.960937-32.828125-16.148437-32.851562-34.570312v-337.558594zm0 0" fill="#fff"/><path d="m393.359375 184.011719v59.777343l-28.160156 28.160157v-59.777344zm0 0" fill="#0c1e88"/><path d="m365.199219 212.171875v59.777344l-12.550781 12.550781-2.726563 2.71875-2.773437 2.769531-6.546876 6.550781-14.839843 33.292969-54.210938 11.40625-.75.160157-6.230469 1.3125 1.320313-6.300782.148437-.699218 11.390626-54.191407 33.308593-14.847656 6.550781-6.542969-.027343-.027344 2.046875-2.050781 16.421875-16.421875 3.449219-3.4375zm0 0" fill="#fed5c5"/><path d="m54.769531 9.761719h8.210938v433.117187h-8.210938zm0 0" fill="#6175e9"/><path d="m164.609375 9.761719h115.949219v25.078125h-115.949219zm0 0" fill="#0c1e88"/><path d="m175.351562 0h100.179688c2.761719 0 5 2.238281 5 5v21.339844h-110.210938v-21.308594c-.007812-1.335938.519532-2.621094 1.464844-3.566406.945313-.945313 2.226563-1.4726565 3.566406-1.464844zm0 0" fill="#ff8c5f"/><path d="m175.351562 4.738281h100.179688c2.761719 0 5 2.242188 5 5v19.851563h-110.210938v-19.828125c-.003906-1.335938.523438-2.617188 1.46875-3.5625.945313-.941407 2.226563-1.46875 3.5625-1.460938zm0 0" fill="#fed5c5"/><path d="m365.199219 368.921875v46.179687h-241.757813c-.628906 0-1.257812-.019531-1.890625-.0625 19.519531-6.933593 32.558594-25.402343 32.558594-46.117187zm0 0" fill="#fed5c5"/><path d="m349.191406 415.101562h31.328125c20.472657 0 37.070313-16.597656 37.070313-37.070312h-255.519532c0 20.46875-16.589843 37.0625-37.058593 37.070312" fill="#ff8c5f"/><path d="m251.058594 16.46875c.007812.601562-.113282 1.199219-.347656 1.75-.238282.539062-.578126 1.023438-1 1.429688-.835938.851562-1.980469 1.324218-3.171876 1.320312h-42.230468c-1.804688 0-3.4375-1.082031-4.136719-2.75-.238281-.550781-.355469-1.148438-.351563-1.75.003907-2.476562 2.011719-4.488281 4.488282-4.5h42.261718c2.480469.007812 4.488282 2.019531 4.488282 4.5zm0 0" fill="#030303"/><path d="m250.710938 18.171875c-.238282.535156-.578126 1.019531-1 1.429687-.835938.847657-1.980469 1.324219-3.171876 1.320313h-42.230468c-1.804688 0-3.4375-1.085937-4.136719-2.75.234375-.539063.574219-1.023437 1-1.433594.835937-.816406 1.964844-1.273437 3.136719-1.269531h42.261718c1.792969-.003906 3.421876 1.054688 4.140626 2.703125zm0 0" fill="#2044b4"/><g fill="#383838"><path d="m185.191406 126.269531h-9.480468c-2.761719 0-5-2.238281-5-5s2.238281-5 5-5h9.480468c2.761719 0 5 2.238281 5 5s-2.238281 5-5 5zm0 0"/><path d="m326.53125 126.269531h-121c-2.761719 0-5-2.238281-5-5s2.238281-5 5-5h121c2.761719 0 5 2.238281 5 5s-2.238281 5-5 5zm0 0"/><path d="m185.191406 182.53125h-9.480468c-2.761719 0-5-2.238281-5-5s2.238281-5 5-5h9.480468c2.761719 0 5 2.238281 5 5s-2.238281 5-5 5zm0 0"/><path d="m326.53125 182.53125h-121c-2.761719 0-5-2.238281-5-5s2.238281-5 5-5h121c2.761719 0 5 2.238281 5 5s-2.238281 5-5 5zm0 0"/><path d="m326.53125 154.929688h-15.820312c-2.761719 0-5-2.238282-5-5 0-2.761719 2.238281-5 5-5h15.820312c2.761719 0 5 2.238281 5 5 0 2.761718-2.238281 5-5 5zm0 0"/><path d="m292.769531 154.929688h-117.058593c-2.761719 0-5-2.238282-5-5 0-2.761719 2.238281-5 5-5h117.058593c2.761719 0 5 2.238281 5 5 0 2.761718-2.238281 5-5 5zm0 0"/><path d="m293.769531 210.800781h-117.730469c-2.761718 0-5-2.238281-5-5s2.238282-5 5-5h117.730469c2.761719 0 5 2.238281 5 5s-2.238281 5-5 5zm0 0"/></g><path d="m120.621094 326.558594c-1.882813.003906-3.605469-1.050782-4.460938-2.726563-.855468-1.675781-.695312-3.691406.410156-5.210937l22.359376-30.820313c.933593-1.292969 1.066406-3 .339843-4.421875-.722656-1.421875-2.183593-2.316406-3.78125-2.320312h-14.867187c-2.761719 0-5-2.238282-5-5 0-2.761719 2.238281-5 5-5h14.867187c5.359375-.003906 10.261719 3 12.695313 7.773437 2.433594 4.769531 1.984375 10.503907-1.164063 14.839844l-6.878906 9.488281 60.789063-38.820312c2.328124-1.484375 5.417968-.800782 6.90625 1.523437 1.484374 2.328125.800781 5.421875-1.527344 6.90625l-83 53c-.800782.515625-1.734375.789063-2.6875.789063zm0 0" fill="#fcc924"/><path d="m197.109375 344.96875h-76.488281c-2.761719 0-5-2.238281-5-5s2.238281-5 5-5h76.488281c2.761719 0 5 2.238281 5 5s-2.238281 5-5 5zm0 0" fill="#383838"/><path d="m340.890625 278.441406-29.890625-29.890625-2.78125 2.769531.03125.019532-6.550781 6.550781-33.308594 14.847656-11.121094 52.921875-.269531 1.269532-.148438.699218-1.320312 6.300782 6.230469-1.308594.75-.160156 54.207031-11.410157 14.839844-33.289062 6.550781-6.550781.011719.007812zm0 0" fill="#ff8c5f"/><path d="m334.230469 271.941406-9.320313 9.320313-14.839844 33.289062-52.800781 11.109375 11.121094-52.921875 33.308594-14.847656 9.242187-9.242187zm0 0" fill="#ffb69f"/><path d="m441.441406 169.171875c.007813 5.601563-2.21875 10.976563-6.191406 14.929687l-78.640625 78.636719-29.890625-29.886719 78.640625-78.640624c7.371094-7.371094 19.011719-8.265626 27.421875-2.109376.339844.238282.667969.5 1 .769532 4.863281 4.011718 7.671875 9.992187 7.660156 16.300781zm0 0" fill="#3c51d1"/><path d="m435.078125 161.75c.015625 5.605469-2.214844 10.984375-6.1875 14.941406l-78.628906 78.640625-23-23 78.097656-78.101562c7.371094-7.371094 19.011719-8.265625 27.421875-2.109375 1.515625 2.984375 2.300781 6.28125 2.296875 9.628906zm0 0" fill="#6175e9"/><path d="m343.617188 275.71875-29.886719-29.890625 16.417969-16.417969 29.890624 29.890625zm0 0" fill="#0c1e88"/><path d="m282.109375 311.789062-21 21-5.609375 1.179688 1.191406-5.679688 20.929688-20.917968c1.230468-1.234375 3.226562-1.234375 4.457031 0 1.234375 1.230468 1.234375 3.226562 0 4.460937zm0 0" fill="#0c1e88"/><path d="m356.589844 262.738281-16.417969 16.421875-6.730469-6.730468h-.011718l-23.148438-23.160157 16.417969-16.417969zm0 0" fill="#eaae06"/><path d="m349.859375 256.011719-16.417969 16.417969h-.011718l-23.148438-23.160157 16.417969-16.417969zm0 0" fill="#fcc924"/><path d="m300.058594 297.898438c0 4.703124-3.808594 8.511718-8.507813 8.511718s-8.511719-3.808594-8.511719-8.511718c0-4.699219 3.8125-8.507813 8.511719-8.507813s8.507813 3.808594 8.507813 8.507813zm0 0" fill="#0c1e88"/><path d="m295.011719 297.898438c0 1.914062-1.550781 3.460937-3.460938 3.460937-1.910156 0-3.460937-1.546875-3.460937-3.460937 0-1.910157 1.550781-3.457032 3.460937-3.457032 1.910157 0 3.460938 1.546875 3.460938 3.457032zm0 0" fill="#fcc924"/><path d="m129.769531 92.609375v58.859375c.011719 34.769531-20.171875 66.382812-51.71875 81l-10 4.632812c-1.875.875-4.042969.875-5.921875 0l-3.558594-1.632812-6.441406-3c-31.535156-14.625-51.707031-46.234375-51.6875-81v-58.859375c.027344-3.855469 3.144532-6.972656 7-7h26.480469c12.632813 0 24.148437-7.242187 29.617187-18.628906.277344-.605469.882813-.992188 1.546876-.992188.664062 0 1.265624.386719 1.542968.992188 5.492188 11.355469 16.996094 18.574219 29.609375 18.570312h26.472657c3.898437 0 7.058593 3.160157 7.058593 7.058594zm0 0" fill="#fe5e22"/><path d="m129.769531 92.609375v58.859375c.011719 34.769531-20.171875 66.382812-51.71875 81l-10 4.632812c-1.875.875-4.042969.875-5.921875 0l-3.558594-1.632812 6.429688-3c31.550781-14.613281 51.738281-46.226562 51.730469-81v-65.910156h6c3.886719.011718 7.035156 3.164062 7.039062 7.050781zm0 0" fill="#ff8c5f"/><path d="m101.089844 153.179688c0 23.484374-19.035156 42.519531-42.519532 42.519531-1.84375 0-3.683593-.117188-5.511718-.347657-21.171875-2.773437-37.007813-20.816406-37.007813-42.171874 0-21.355469 15.835938-39.398438 37.007813-42.167969 1.828125-.242188 3.667968-.363281 5.511718-.363281 23.484376.007812 42.519532 19.046874 42.519532 42.53125zm0 0" fill="#030303"/><path d="m107.609375 153.179688c0 23.484374-19.035156 42.519531-42.519531 42.519531-1.84375 0-3.683594-.117188-5.511719-.347657-21.171875-2.773437-37.007813-20.816406-37.007813-42.171874 0-21.355469 15.835938-39.398438 37.007813-42.167969 1.828125-.242188 3.667969-.363281 5.511719-.363281 23.484375.007812 42.519531 19.046874 42.519531 42.53125zm0 0" fill="#fff"/><path d="m97.339844 153.179688c0 17.820312-14.445313 32.261718-32.261719 32.261718-17.820313-.003906-32.261719-14.449218-32.257813-32.269531.003907-17.816406 14.453126-32.257813 32.269532-32.25 17.816406 0 32.253906 14.441406 32.25 32.257813zm0 0" fill="#fcc924"/><path d="m64.75 177.210938c-1.328125 0-2.601562-.523438-3.539062-1.460938l-22-22c-1.957032-1.953125-1.957032-5.121094-.007813-7.074219 1.953125-1.957031 5.121094-1.957031 7.078125-.003906l18.488281 18.488281 49.070313-49.070312c1.960937-1.894532 5.082031-1.867188 7.007812.0625 1.929688 1.925781 1.957032 5.046875.0625 7.007812l-52.628906 52.589844c-.9375.933594-2.207031 1.460938-3.53125 1.460938zm0 0" fill="#060b6f"/></svg>