<?xml version="1.0" encoding="UTF-8"?>
<svg xmlns="http://www.w3.org/2000/svg" xmlns:xlink="http://www.w3.org/1999/xlink" xmlns:svgjs="http://svgjs.com/svgjs" version="1.1" width="512" height="512" x="0" y="0" viewBox="0 0 24 24" style="enable-background:new 0 0 512 512" xml:space="preserve" class="">
  <g>
    <path fill="#4fc473" d="M23.28 12.001a.76.76 0 0 0-.798.699c-.366 5.495-4.971 9.8-10.482 9.8-5.79 0-10.5-4.71-10.5-10.5S6.21 1.5 12 1.5c2.571 0 4.982.93 6.863 2.576l-.643.644c-.472.47-.138 1.28.53 1.28h2.5a.75.75 0 0 0 .75-.75v-2.5c0-.663-.806-1.004-1.28-.53l-.796.796A11.858 11.858 0 0 0 12 0C5.383 0 0 5.383 0 12s5.383 12 12 12c6.299 0 11.561-4.92 11.979-11.2a.751.751 0 0 0-.699-.799" data-original="#eceff1" class=""/>
    <path fill="#4caf50" d="m17.491 7.826-5.25-1.786a.737.737 0 0 0-.482 0l-5.25 1.786a.748.748 0 0 0-.509.71v4.018c0 4.904 5.474 7.288 5.707 7.387.188.08.397.08.586 0 .233-.1 5.707-2.483 5.707-7.387V8.536a.748.748 0 0 0-.509-.71" data-original="#4caf50" class=""/>
    <path fill="#ffffff" d="m15.286 11.618-2.75 3.5a1 1 0 0 1-1.436.142l-1.75-1.5a1 1 0 1 1 1.301-1.518l.958.821 2.105-2.679a1 1 0 1 1 1.572 1.234" data-original="#ffffff" class=""/>
    <path fill="#78aaff" d="M12 0C5.383 0 0 5.383 0 12s5.383 12 12 12v-1.5C6.21 22.5 1.5 17.79 1.5 12S6.21 1.5 12 1.5z" data-original="#cdd0d2" class=""/>
    <path fill="#429846" d="M12 6a.734.734 0 0 0-.241.04l-5.25 1.786a.748.748 0 0 0-.509.71v4.018c0 4.904 5.474 7.288 5.707 7.387A.767.767 0 0 0 12 20v-4.532a.99.99 0 0 1-.9-.209l-1.75-1.5A.998.998 0 0 1 10.001 12c.23 0 .462.079.65.24l.958.821.391-.498z" data-original="#429846" class=""/>
    <path fill="#dedede" d="M10.001 12a1 1 0 0 0-.652 1.759l1.75 1.5a.99.99 0 0 0 .9.209v-2.905l-.392.498-.958-.821a.99.99 0 0 0-.648-.24" data-original="#dedede"/>
  </g>
</svg>
