<svg viewBox="-4 0 512 512" xmlns="http://www.w3.org/2000/svg"><path d="m45.465 96.5-4.074 4.14L0 149.044l10.398 7.2 66.16-38.2zm0 0" fill="#23292e"/><path d="m61.3 113.04-28.882 17.616-22.02 25.586L0 149.043l41.39-48.402zm0 0" fill="#2e373d"/><path d="M440.617 410.992c-4.847 0-9.293-3.222-10.633-8.125l-69.96-255.941c-1.606-5.88 1.855-11.942 7.73-13.551 5.875-1.602 11.941 1.855 13.55 7.734l69.962 255.942c1.605 5.875-1.856 11.941-7.735 13.547-.972.27-1.949.394-2.914.394zm0 0" fill="#cecece"/><path d="M129.992 103.469c-16.648-9.61-31.808-9.887-43.195-2.574l-29.598 16.828c-15.078 6.914-24.781 25.715-24.781 53.144 0 47.145 28.664 101.918 64.023 122.332 16.457 9.5 31.461 9.883 42.805 2.828l31.344-17.742c14.3-7.398 23.426-25.883 23.426-52.48 0-47.149-28.664-101.918-64.024-122.336zm0 0" fill="#23292e"/><path d="M160.469 244.797c0 47.148-28.664 68.816-64.028 48.402-35.359-20.414-64.023-75.187-64.023-122.332 0-47.148 28.664-68.82 64.023-48.406 35.364 20.418 64.028 75.187 64.028 122.336zm0 0" fill="#2e373d"/><path d="M135.93 230.629c0 29.078-17.68 42.445-39.489 29.851-21.808-12.59-39.488-46.37-39.488-75.449s17.68-42.441 39.488-29.851c21.809 12.593 39.489 46.37 39.489 75.449zm0 0" fill="#cecece"/><path d="M239.07 256.508 115.86 185.37a23.62 23.62 0 0 0-23.008-.336c-6.176 1.172-11.332 6.508-11.332 13.637a37.557 37.557 0 0 0 18.757 32.508l138.797 80.234zm0 0" fill="#23292e"/><path d="M152.223 155.047v39.57a23.363 23.363 0 0 0 11.68 20.23l43.468 25.098a38.95 38.95 0 0 1 18.383 33.078v20.645a35.634 35.634 0 0 0 17.816 30.86l35.274 20.367c4.547 2.625 9.66 2.292 13.633-.004l73.023-42.028c.324-.172.645-.355.957-.55h.004c3.73-2.356 6.36-6.465 6.36-11.504a111.98 111.98 0 0 1 6.171-36.66l12.211-35.258zm0 0" fill="#cecece"/><path d="m207.371 197.492-55.148-31.844v28.97a23.363 23.363 0 0 0 11.68 20.23l43.468 25.097zM261.96 278.95l-159.636-92.282c-9.242-5.34-20.804 1.328-20.804 12.004a37.552 37.552 0 0 0 18.757 32.508l161.684 93.465zm0 0" fill="#525e65"/><path d="m189.55 59.91-10.62-18.398a57.917 57.917 0 0 0-21.203-21.203L127.157 2.66c-7.266-4.195-15.52-3.148-21.458 1.176L35.04 43.87c-6.594 3.031-11.5 9.606-11.5 17.89a51.258 51.258 0 0 0 25.629 44.391l121.437 70.11 91.356-73.176zm0 0" fill="#627681"/><path d="m187.863 145.148-72.406-43.18-10.625-18.398a57.917 57.917 0 0 0-21.203-21.203L53.062 44.72c-13.12-7.574-29.523 1.894-29.523 17.043a51.258 51.258 0 0 0 25.629 44.39l121.437 70.114zm0 0" fill="#2e373d"/><path d="m115.457 101.969 74.094-42.059 72.41 43.18-74.098 42.058zm0 0" fill="#525e65"/><path d="M340.879 104.18a80.983 80.983 0 0 0-81.695-.418c-.688.398-64.582 37.476-70.825 41.097-.91.48-1.812.973-2.707 1.493a30.086 30.086 0 0 0-15.047 26.058v3.852l147.067 84.91 73.531-42.586v-26.578a101.801 101.801 0 0 0-50.324-87.828zm0 0" fill="#e33400"/><path d="m170.605 176.262 147.067 84.91v-26.574a101.796 101.796 0 0 0-50.328-87.828 80.967 80.967 0 0 0-81.692-.422 30.097 30.097 0 0 0-15.047 26.062zm0 0" fill="#872e02"/><path d="m207.371 197.492 110.3 63.68-12.214 35.258a112.062 112.062 0 0 0-6.168 36.66c0 10.492-11.36 17.047-20.441 11.805l-35.274-20.368a35.636 35.636 0 0 1-17.82-30.863V273.02c0-13.461-6.95-25.97-18.383-33.075zm0 0" fill="#82a5b9"/><path d="M439.238 314.59c-16.644-9.613-31.808-9.89-43.195-2.578l-29.598 16.828c-15.078 6.914-24.78 25.715-24.78 53.144 0 47.145 28.663 101.918 64.022 122.332 16.458 9.5 31.461 9.883 42.801 2.829l31.348-17.739c14.305-7.398 23.43-25.883 23.43-52.484 0-47.149-28.664-101.918-64.028-122.332zm0 0" fill="#23292e"/><path d="M446.582 298.004c-19.73-11.39-37.625-11.258-50.746-1.848l-38.785 22.395c-16.196 8.465-26.52 29.469-26.52 59.648 0 22.922 5.973 47.418 15.93 69.781l4.41-2.148c9.414-4.586 14.149-15.234 11.356-25.324-2.426-8.746-3.778-17.645-3.778-26.192 0-33.082 20.117-48.289 44.93-33.964 5.05 2.918 9.902 6.843 14.426 11.52 7.449 7.698 20.058 6.905 26.906-1.333l2.34-2.812 26.937-15.668c5.176-.082 10.34-2.332 13.922-6.645l2.34-2.812c-12.168-19.196-27.285-35.141-43.668-44.598zm0 0" fill="#e33400"/><path d="M469.715 455.914c0 47.149-28.664 68.82-64.024 48.402-35.359-20.414-64.027-75.183-64.027-122.332s28.668-68.82 64.027-48.402c35.36 20.414 64.024 75.184 64.024 122.332zm0 0" fill="#2e373d"/><path d="M445.18 441.746c0 29.078-17.68 42.445-39.489 29.852-21.808-12.59-39.488-46.371-39.488-75.45 0-29.078 17.68-42.441 39.488-29.851 21.809 12.594 39.489 46.371 39.489 75.45zm0 0" fill="#cecece"/><path d="M422.766 428.809c0 12.57-7.645 18.347-17.075 12.906-9.43-5.445-17.074-20.05-17.074-32.625 0-12.57 7.645-18.348 17.074-12.906 9.43 5.445 17.075 20.05 17.075 32.625zm0 0" fill="#627681"/><path d="M358.45 394.316c0-33.082 20.116-48.289 44.929-33.964 5.055 2.918 9.902 6.843 14.43 11.52 7.449 7.698 20.054 6.905 26.906-1.333l2.336-2.812c-12.168-19.2-27.285-35.141-43.672-44.598-40.23-23.23-72.848 1.426-72.848 55.07 0 22.922 5.973 47.418 15.93 69.781l4.41-2.148c9.414-4.586 14.149-15.23 11.356-25.324-2.426-8.746-3.778-17.645-3.778-26.192zm0 0" fill="#872e02"/><path d="M404.895 432.625c-4.848 0-9.293-3.223-10.633-8.125L324.3 168.559c-1.606-5.875 1.855-11.942 7.734-13.551 5.875-1.602 11.942 1.855 13.547 7.734l69.961 255.942c1.605 5.875-1.856 11.941-7.73 13.546-.977.27-1.954.395-2.918.395zm0 0" fill="#cecece"/><path d="M372.832 59.527c-3.812 0-7.52-1.98-9.562-5.52-3.047-5.273-1.239-12.019 4.035-15.066l28.355-16.367c5.274-3.047 12.02-1.238 15.067 4.035 3.046 5.278 1.238 12.02-4.04 15.067l-28.351 16.37a10.981 10.981 0 0 1-5.504 1.481zm0 0" fill="#2e373d"/><path d="M414.918 55.809h-36.664a5.954 5.954 0 0 1 0-11.906h36.664a5.954 5.954 0 0 1 0 11.906zm0 0" fill="#2e373d"/><path d="M312.316 183.125c-15.222 0-30.27-5.98-41.492-17.445l-34.265-35c-4.262-4.356-4.192-11.336.164-15.598 4.351-4.262 11.336-4.187 15.597.164l34.27 35c11.496 11.746 29.472 14.211 43.707 5.992l35.082-20.254a21.095 21.095 0 0 0 10.101-22.78l-13.44-62.388c-1.282-5.953 2.503-11.82 8.46-13.105 5.953-1.285 11.82 2.504 13.105 8.46l13.442 62.384c3.969 18.414-4.328 37.113-20.64 46.53l-35.083 20.255a57.886 57.886 0 0 1-29.008 7.785zm0 0" fill="#cecece"/><path d="M207.98 155.047c-3.812 0-7.52-1.977-9.562-5.516-3.047-5.277-1.238-12.02 4.035-15.066l36.469-21.055c5.273-3.047 12.02-1.238 15.066 4.04 3.047 5.273 1.239 12.019-4.039 15.066l-36.465 21.054a10.956 10.956 0 0 1-5.504 1.477zm0 0" fill="#2e373d"/><path d="m418.102 137.527-18.926-10.93a57.907 57.907 0 0 0-57.906 0c-33.028 19.071-33.028 66.739 0 85.81l33.968 20c6.067 4.007 14.188 3.913 23.117-1.243 18.782-10.844 34.004-39.93 34.004-64.969 0-15.218-5.629-25.425-14.257-28.668zm0 0" fill="#82a5b9"/><path d="M432.36 166.195c0 25.04-15.223 54.125-34.005 64.97-18.78 10.839-34.003-.669-34.003-25.708 0-25.039 15.222-54.129 34.003-64.969 18.782-10.843 34.004.668 34.004 25.707zm0 0" fill="#cecece"/><path d="M422.465 171.906c0 17.754-10.793 38.38-24.11 46.063-13.312 7.687-24.105-.473-24.105-18.223 0-17.754 10.793-38.379 24.105-46.066 13.317-7.688 24.11.472 24.11 18.226zM241.113 286.43c0 15.351 9.332 33.183 20.848 39.828 11.512 6.648 20.844-.406 20.844-15.758s-9.332-33.184-20.844-39.832c-11.516-6.645-20.848.41-20.848 15.762zm0 0" fill="#fff"/><path d="M239.078 173.824c-.45 0-.906-.05-1.363-.16a5.955 5.955 0 0 1-4.442-7.152l9.516-40.668a5.955 5.955 0 1 1 11.594 2.715l-9.516 40.668a5.954 5.954 0 0 1-5.789 4.597zm0 0" fill="#2e373d"/></svg>