<svg xmlns="http://www.w3.org/2000/svg" version="1.1" xmlns:xlink="http://www.w3.org/1999/xlink" width="512" height="512" x="0" y="0" viewBox="0 0 512 512" style="enable-background:new 0 0 512 512" xml:space="preserve" class=""><g><path fill="#c9beb9" d="M80.636 345.728C36.173 345.728 0 309.555 0 265.092s36.173-80.636 80.636-80.636 80.636 36.173 80.636 80.636-36.173 80.636-80.636 80.636zm0-130.369c-27.423 0-49.733 22.31-49.733 49.734s22.31 49.733 49.733 49.733 49.733-22.31 49.733-49.733-22.31-49.734-49.733-49.734zM431.364 345.728c-44.463 0-80.636-36.173-80.636-80.636s36.173-80.636 80.636-80.636S512 220.629 512 265.092s-36.173 80.636-80.636 80.636zm0-130.369c-27.423 0-49.733 22.31-49.733 49.734s22.31 49.733 49.733 49.733 49.733-22.31 49.733-49.733-22.31-49.734-49.733-49.734z" opacity="1" data-original="#c9beb9"></path><path fill="#9e9595" d="M135.629 206.196c7.825 12.423 12.373 27.109 12.373 42.845 0 44.463-36.173 80.636-80.636 80.636-21.241 0-40.576-8.269-54.994-21.739 14.286 22.68 39.536 37.791 68.263 37.791 44.463 0 80.636-36.173 80.636-80.636.001-23.223-9.88-44.17-25.642-58.897zM486.358 206.196c7.825 12.423 12.373 27.109 12.373 42.845 0 44.463-36.173 80.636-80.636 80.636-21.241 0-40.576-8.269-54.994-21.739 14.286 22.68 39.536 37.791 68.263 37.791 44.463 0 80.636-36.173 80.636-80.636 0-23.223-9.88-44.17-25.642-58.897z" opacity="1" data-original="#9e9595" class=""></path><circle cx="68.033" cy="133.12" r="22.319" fill="#0d398f" opacity="1" data-original="#da4a54" class=""></circle><path fill="#06225a" d="M72.526 111.253a22.256 22.256 0 0 1 1.665 8.462c0 12.327-9.993 22.319-22.319 22.319a22.39 22.39 0 0 1-4.493-.453c3.334 8.13 11.324 13.858 20.655 13.858 12.327 0 22.319-9.993 22.319-22.319-.001-10.788-7.654-19.788-17.827-21.867z" opacity="1" data-original="#d82e3d" class=""></path><path fill="#0d398f" d="m61.587 271.118-.42-1.26c-3.846-11.533 2.385-24.001 13.919-27.847l107.737-35.93 14.349 43.027-107.737 35.93c-11.534 3.845-24.001-2.387-27.848-13.92z" opacity="1" data-original="#da4a54" class=""></path><path fill="#06225a" d="M189.781 226.945 89.035 260.543c-9.771 3.259-20.189-.508-25.787-8.557-3.123 5.421-4.006 12.099-1.871 18.5 3.962 11.882 16.806 18.301 28.688 14.339l107.107-35.719z" opacity="1" data-original="#d82e3d" class=""></path><circle cx="377.899" cy="57.763" r="24.181" fill="#ffe541" opacity="1" data-original="#ffe541" class=""></circle><path fill="#ffc50d" d="M387.091 35.395a24.102 24.102 0 0 1 1.813 9.192c0 13.355-10.826 24.181-24.181 24.181-3.255 0-6.358-.647-9.192-1.813 3.618 8.795 12.268 14.99 22.368 14.99 13.355 0 24.181-10.826 24.181-24.181.001-10.101-6.193-18.751-14.989-22.369z" opacity="1" data-original="#ffc50d"></path><path fill="#0d398f" d="m352.547 15.339 23.409 37.868a19.855 19.855 0 0 1 2.967 10.442v56.066h-61.708l20.405-52.067a26.48 26.48 0 0 0-2.06-23.473c-6.652-10.886-2.77-25.125 8.486-31.129a6.434 6.434 0 0 1 8.501 2.293z" opacity="1" data-original="#da4a54" class=""></path><path fill="#06225a" d="m375.956 53.207-23.409-37.868a6.435 6.435 0 0 0-8.501-2.294 22.043 22.043 0 0 0-8.715 8.389l19.642 31.773a19.855 19.855 0 0 1 2.967 10.442v56.066h20.984V63.649a19.872 19.872 0 0 0-2.968-10.442z" opacity="1" data-original="#d82e3d" class=""></path><path fill="#c9beb9" d="M431.37 276.063a7.725 7.725 0 0 1-6.943-4.328l-69.406-141.668a7.726 7.726 0 0 1 13.876-6.798l69.406 141.668a7.726 7.726 0 0 1-6.933 11.126z" opacity="1" data-original="#c9beb9"></path><path fill="#0d398f" d="m88.898 84.981 134.769 34.022a25.261 25.261 0 0 0 28.298-12.285l6.143-11.13c8.893-16.11 27.641-24.061 45.404-19.254l96.788 26.194c13.47 3.645 22.824 15.867 22.824 29.822a6.484 6.484 0 0 1-6.485 6.485h-46.815a20.824 20.824 0 0 0-19.077 12.475l-37.824 86.415a38.04 38.04 0 0 1-34.85 22.788H202.14a38.042 38.042 0 0 1-35.649-24.762l-9.77-26.226a77.67 77.67 0 0 0-27.237-35.798l-82.243-59.533a6.485 6.485 0 0 1-2.048-8.051l.405-.846c7.756-16.216 25.87-24.716 43.3-20.316z" opacity="1" data-original="#da4a54" class=""></path><path fill="#06225a" d="M402.05 103.082a6.484 6.484 0 0 1-6.454 5.881h-46.815a20.824 20.824 0 0 0-19.077 12.475l-37.824 86.415a38.04 38.04 0 0 1-34.85 22.788h-75.932c-6.537 0-12.777-1.694-18.261-4.698l3.654 9.809a38.042 38.042 0 0 0 35.649 24.762h75.933a38.042 38.042 0 0 0 34.85-22.788l37.824-86.415a20.825 20.825 0 0 1 19.077-12.475h46.815a6.484 6.484 0 0 0 6.485-6.485c0-13.338-8.557-25.073-21.074-29.269z" opacity="1" data-original="#d82e3d" class=""></path><path fill="#c9beb9" d="m268.788 106.989-13.154-6.919-3.67 6.648a25.261 25.261 0 0 1-28.298 12.285L88.897 84.981c-17.429-4.4-35.544 4.099-43.3 20.316l-.405.846a6.484 6.484 0 0 0 2.048 8.051l82.243 59.533a77.658 77.658 0 0 1 24.937 30.292h41.152a38.66 38.66 0 0 0 27.887-11.886l50.59-52.7c9.478-9.871 6.85-26.073-5.261-32.444z" opacity="1" data-original="#c9beb9"></path><path fill="#9e9595" d="M269.281 107.267a20.371 20.371 0 0 1-5.635 12.279l-50.59 52.7a38.656 38.656 0 0 1-27.887 11.886h-44.014a77.671 77.671 0 0 1 13.265 19.888h41.152a38.66 38.66 0 0 0 27.887-11.886l50.59-52.7c9.346-9.735 6.914-25.618-4.768-32.167z" opacity="1" data-original="#9e9595" class=""></path><path fill="#f9f6f6" d="M352.804 288.019c-10.644 15.909-41.086 27.454-77.141 27.716v65.338a90.135 90.135 0 0 0 34.871 71.205l37.564 29.154a7.676 7.676 0 0 0 9.412 0l37.564-29.154a90.135 90.135 0 0 0 34.871-71.205v-65.338c-36.055-.262-66.497-11.807-77.141-27.716z" opacity="1" data-original="#f9f6f6" class=""></path><path fill="#eedfda" d="M385.206 308.906v57.822a90.135 90.135 0 0 1-34.871 71.205l-29.142 22.617 26.904 20.881a7.676 7.676 0 0 0 9.412 0l37.564-29.154a90.135 90.135 0 0 0 34.871-71.205v-65.338c-16.554-.119-31.923-2.62-44.738-6.828z" opacity="1" data-original="#eedfda" class=""></path><path fill="#766e6e" d="M352.804 499.713a24.297 24.297 0 0 1-14.925-5.115l-37.564-29.154c-12.79-9.927-23.314-22.859-30.434-37.399s-10.884-30.783-10.884-46.973v-76.756a5.165 5.165 0 0 1 5.127-5.165l11.418-.083c32.514-.236 52.803-9.711 63.409-20.318a67.847 67.847 0 0 0 6.282-7.229c3.806-5.07 11.414-5.075 15.196.012a65.148 65.148 0 0 0 6.227 7.216c10.171 10.171 30.896 20.082 63.41 20.318l11.418.083a5.165 5.165 0 0 1 5.127 5.165v76.756c0 16.19-3.764 32.433-10.884 46.973-7.121 14.54-17.645 27.472-30.435 37.399l-37.564 29.153a24.29 24.29 0 0 1-14.924 5.117zm-63.661-174.107a3.28 3.28 0 0 0-2.907 3.262v51.564c0 25.169 11.404 48.455 31.287 63.887l33.266 25.818c1.186.92 2.845.92 4.03 0l33.265-25.818c19.883-15.432 31.287-38.717 31.287-63.887v-51.564a3.28 3.28 0 0 0-2.907-3.262c-13.598-1.535-26.474-4.456-37.982-8.656-7.822-2.854-14.84-6.244-20.946-10.092a8.863 8.863 0 0 0-9.466 0c-6.106 3.848-13.124 7.238-20.946 10.092-11.508 4.2-24.384 7.121-37.981 8.656z" opacity="1" data-original="#766e6e" class=""></path><path fill="#5b5353" d="m441.483 299.151-11.418-.083c-10.147-.074-19.146-1.09-27.034-2.762v27.284c4.381.825 8.865 1.5 13.433 2.016a3.28 3.28 0 0 1 2.907 3.262v51.564c0 25.169-11.404 48.455-31.287 63.887l-33.265 25.818a3.287 3.287 0 0 1-4.03 0l-8.155-6.329-21.801 16.92c-.139.108-.281.209-.422.313l17.468 13.557a24.3 24.3 0 0 0 14.925 5.115 24.305 24.305 0 0 0 14.925-5.115l37.564-29.153c12.79-9.927 23.314-22.859 30.435-37.399 7.12-14.54 10.884-30.783 10.884-46.973v-76.756a5.167 5.167 0 0 0-5.129-5.166z" opacity="1" data-original="#5b5353"></path><path fill="#9bd069" d="M347.976 413.106h-.052a7.498 7.498 0 0 1-5.902-2.94l-24.038-31.388a7.5 7.5 0 0 1 11.908-9.12l18.168 23.724 37.374-47.429a7.499 7.499 0 0 1 10.532-1.248 7.499 7.499 0 0 1 1.248 10.532l-43.349 55.01a7.493 7.493 0 0 1-5.889 2.859z" opacity="1" data-original="#9bd069"></path></g></svg>