<svg xmlns="http://www.w3.org/2000/svg" version="1.1" xmlns:xlink="http://www.w3.org/1999/xlink" width="512" height="512" x="0" y="0" viewBox="0 0 1.707 1.707" style="enable-background:new 0 0 512 512" xml:space="preserve" fill-rule="evenodd" class=""><g><path fill="#81d4fa" d="M1.165.823a1.357 1.357 0 0 0-.21-.131.682.682 0 0 0-.288-.057C.511.635.312.68.235.802l.93.021z" opacity="1" data-original="#81d4fa"></path><path fill="#0d398f" d="M.663.851a.02.02 0 0 1-.02-.02V.615a.02.02 0 0 1 .04 0v.216a.02.02 0 0 1-.02.02z" opacity="1" data-original="#1f88e5" class=""></path><path fill="#0d398f" d="M1.53 1.177h-.208a.02.02 0 0 1-.02-.02.14.14 0 1 0-.281 0 .02.02 0 0 1-.02.02H.56a.02.02 0 0 1-.02-.02v-.005a.14.14 0 0 0-.28 0v.001a.02.02 0 0 1-.02.024H.136a.128.128 0 0 1-.1-.04C.007 1.102-.005 1.046.004.97.004.957.003.9.044.856.076.821.125.802.189.8.266.65.493.595.667.595c.117 0 .226.022.306.061.08.04.167.096.26.169a.79.79 0 0 1 .06.002.02.02 0 0 1 .015.007.49.49 0 0 0 .124.107.463.463 0 0 0 .072-.053.02.02 0 0 1 .023-.002c.068.037.108.09.117.156v.003c-.002.068-.017.132-.113.132zM1.166.823a1.357 1.357 0 0 0-.21-.131.682.682 0 0 0-.288-.057C.511.635.312.68.235.802l.93.021z" opacity="1" data-original="#1f88e5" class=""></path><path fill="#1c7ace" d="m1.206.804.026.02a.79.79 0 0 1 .062.003.02.02 0 0 1 .014.007.49.49 0 0 0 .124.107.463.463 0 0 0 .072-.053.02.02 0 0 1 .023-.002.286.286 0 0 1 .045.03.578.578 0 0 1-.119.09.047.047 0 0 1-.041 0 .58.58 0 0 1-.206-.201zM1.367 1.177h-.045a.02.02 0 0 1-.02-.02.14.14 0 1 0-.281 0 .02.02 0 0 1-.02.02H.955a.207.207 0 1 1 .411 0z" opacity="1" data-original="#1c7ace" class=""></path><path fill="#59a6ea" d="M.927 1.047H.663a.02.02 0 0 1-.02-.02V.81l.04.001v.195h.244a.02.02 0 0 1 0 .04z" opacity="1" data-original="#59a6ea" class=""></path><path fill="#ffc108" d="M1.432.983A.519.519 0 0 1 1.16.495a.02.02 0 0 1 .012-.017l.253-.102a.02.02 0 0 1 .015 0l.252.102a.02.02 0 0 1 .013.017.519.519 0 0 1-.273.488z" opacity="1" data-original="#ffc108"></path><path fill="#ffae07" d="M1.432.983V.374a.02.02 0 0 1 .008.002l.252.102a.02.02 0 0 1 .013.017.519.519 0 0 1-.273.488z" opacity="1" data-original="#ffae07"></path><path fill="#59a6ea" d="M.855.923H.766a.02.02 0 0 1 0-.04h.09a.02.02 0 0 1 0 .04zM.41.923H.32a.02.02 0 0 1 0-.04h.09a.02.02 0 0 1 0 .04z" opacity="1" data-original="#59a6ea" class=""></path><path fill="#1c7ace" d="M.606 1.177H.561a.02.02 0 0 1-.02-.02v-.005a.14.14 0 0 0-.28 0v.001a.02.02 0 0 1-.02.024H.194a.207.207 0 1 1 .411 0z" opacity="1" data-original="#1c7ace" class=""></path><path fill="#253238" d="M.4 1.332A.18.18 0 1 1 .402.971a.18.18 0 0 1 0 .361z" opacity="1" data-original="#253238" class=""></path><path fill="#cfd8dc" d="M.4 1.257a.105.105 0 1 1 .001-.21.105.105 0 0 1 0 .21z" opacity="1" data-original="#cfd8dc" class=""></path><path fill="#e64a19" d="M1.403.756A.02.02 0 0 1 1.39.75L1.336.697a.02.02 0 1 1 .029-.028l.038.038.156-.155a.02.02 0 1 1 .028.028l-.17.17a.02.02 0 0 1-.014.006z" opacity="1" data-original="#e64a19" class=""></path><path fill="#d24519" d="M1.432.678 1.56.552a.02.02 0 1 1 .028.028l-.155.155V.678z" opacity="1" data-original="#d24519" class=""></path><path fill="#253238" d="M1.161 1.332a.18.18 0 1 1 0-.361.18.18 0 0 1 0 .361z" opacity="1" data-original="#253238" class=""></path><path fill="#cfd8dc" d="M1.161 1.257a.105.105 0 1 1 0-.21.105.105 0 0 1 0 .21z" opacity="1" data-original="#cfd8dc" class=""></path></g></svg>