<svg xmlns="http://www.w3.org/2000/svg" version="1.1" xmlns:xlink="http://www.w3.org/1999/xlink" width="512" height="512" x="0" y="0" viewBox="0 0 468.293 468.293" style="enable-background:new 0 0 512 512" xml:space="preserve" class=""><g><path d="M468.293 313.988v12.578a4.777 4.777 0 0 1-4.783 4.783h-7.001v-22.145h7.001a4.78 4.78 0 0 1 4.783 4.784z" style="" fill="#f7be56" data-original="#f7be56" class=""></path><path d="M313.286 281.144v45.449H39.858v-3.561h-7.714V300.48h7.714v-19.336z" style="" fill="#3a556a" data-original="#3a556a"></path><path d="M461.169 300.473v30.897a6.634 6.634 0 0 1-6.634 6.634H302.086v-37.532h159.083z" style="" fill="#64798a" data-original="#64798a"></path><path d="M33.853 300.48v22.552h-5.772a3.143 3.143 0 0 1-3.143-3.143v-16.266a3.143 3.143 0 0 1 3.143-3.143h5.772z" style="" fill="#0d398f" data-original="#e56353" class="" opacity="1"></path><path d="M0 110.151h298.69v184.707H0z" style="" fill="#f7be56" data-original="#f7be56" class=""></path><path d="M461.169 268.259v33.578H302.086v-144.51h71.53c5.106 0 10.008 2.112 13.413 5.917 11.104 12.408 20.684 33.493 28.69 63.712l37.73 26.46a18.13 18.13 0 0 1 7.72 14.843z" style="" fill="#0d398f" data-original="#e56353" class="" opacity="1"></path><path d="M401.635 233.979h-66.658v-59.534h7.124c32.891 0 59.534 26.663 59.534 59.534z" style="" fill="#82a3e2" data-original="#27a2db" class="" opacity="1"></path><path d="M353.272 250.479c-2.541 1.426-5.207 2.17-7.997 2.17-2.665 0-5.455-.682-8.244-2.108l1.426-5.083c4.215 2.232 8.554 2.046 12.956 0l1.859 5.021zM365.024 319.639c0 21.278 17.225 38.503 38.507 38.503 21.274 0 38.499-17.225 38.499-38.503s-17.225-38.501-38.499-38.501c-21.282 0-38.507 17.223-38.507 38.501z" style="" fill="#2f4859" data-original="#2f4859" class=""></path><path d="M384.361 319.529c0 10.63 8.64 19.267 19.27 19.267 10.408 0 19.043-8.638 19.043-19.267s-8.635-19.046-19.043-19.046c-10.63 0-19.27 8.416-19.27 19.046z" style="" fill="#64798a" data-original="#64798a"></path><path d="M384.361 319.524c0 1.511.138 2.954.548 4.327 2.611-.549 5.29.206 6.732 2.679 1.374 2.405.756 5.221-1.099 7.145 2.061 1.923 4.533 3.366 7.282 4.259.755-2.542 2.885-4.534 5.702-4.534 2.816 0 4.944 1.992 5.701 4.603 2.749-.893 5.221-2.336 7.282-4.328-1.855-1.924-2.474-4.672-1.099-7.145 1.442-2.473 4.121-3.229 6.732-2.679.411-1.374.548-2.816.548-4.327 0-1.443-.137-2.817-.481-4.122-2.61.618-5.357-.206-6.799-2.61-1.444-2.473-.756-5.358 1.099-7.282a20.21 20.21 0 0 0-7.282-4.19c-.823 2.611-2.885 4.603-5.701 4.603-2.818 0-4.879-1.992-5.702-4.534a19.934 19.934 0 0 0-7.351 4.19c1.924 1.992 2.541 4.809 1.167 7.213-1.374 2.336-4.19 3.16-6.801 2.61-.34 1.305-.478 2.679-.478 4.122z" style="" fill="#ebf0f3" data-original="#ebf0f3"></path><path d="M49.545 319.639c0 21.278 17.225 38.503 38.507 38.503 21.274 0 38.499-17.225 38.499-38.503s-17.225-38.501-38.499-38.501c-21.282 0-38.507 17.223-38.507 38.501z" style="" fill="#2f4859" data-original="#2f4859" class=""></path><path d="M68.882 319.529c0 10.63 8.64 19.267 19.27 19.267 10.408 0 19.043-8.638 19.043-19.267s-8.635-19.046-19.043-19.046c-10.63 0-19.27 8.416-19.27 19.046z" style="" fill="#64798a" data-original="#64798a"></path><path d="M68.883 319.524c0 1.511.138 2.954.548 4.327 2.611-.549 5.29.206 6.732 2.679 1.374 2.405.756 5.221-1.099 7.145 2.061 1.923 4.533 3.366 7.282 4.259.755-2.542 2.885-4.534 5.702-4.534 2.816 0 4.944 1.992 5.701 4.603 2.749-.893 5.221-2.336 7.282-4.328-1.855-1.924-2.474-4.672-1.099-7.145 1.442-2.473 4.121-3.229 6.732-2.679.411-1.374.548-2.816.548-4.327 0-1.443-.138-2.817-.481-4.122-2.61.618-5.357-.206-6.799-2.61-1.444-2.473-.756-5.358 1.099-7.282a20.21 20.21 0 0 0-7.282-4.19c-.823 2.611-2.885 4.603-5.701 4.603-2.818 0-4.879-1.992-5.702-4.534a19.934 19.934 0 0 0-7.351 4.19c1.924 1.992 2.541 4.809 1.167 7.213-1.374 2.336-4.19 3.16-6.801 2.61-.341 1.305-.478 2.679-.478 4.122z" style="" fill="#ebf0f3" data-original="#ebf0f3"></path><path d="M263.848 316.905v11.54c0 7.775-6.31 14.085-14.085 14.085h-77.689c-7.775 0-14.064-6.31-14.064-14.085v-11.54c0-7.775 6.289-14.084 14.064-14.084h77.689c7.775 0 14.085 6.309 14.085 14.084z" style="" fill="#64798a" data-original="#64798a"></path><path d="M183.958 302.819h53.935v39.711h-53.935z" style="" fill="#d5d6db" data-original="#d5d6db"></path><path d="M308.611 305.211h41.216v6.244h-41.216zM308.611 312.454h41.216v6.244h-41.216zM308.611 319.765h41.216v6.244h-41.216zM308.611 327.052h41.216v6.244h-41.216z" style="" fill="#f7be56" data-original="#f7be56" class=""></path><path d="M12.563 141.059v-12.098h273.561zM286.124 263.986v12.097H12.563z" style="" fill="#fcd462" data-original="#fcd462"></path></g></svg>