<?xml version="1.0"?>
<svg xmlns="http://www.w3.org/2000/svg" id="Layer_1" data-name="Layer 1" viewBox="0 0 512 512" width="512" height="512"><title>Goods Transport</title><path d="M118.71,425H100.28A19.344,19.344,0,0,1,81,405.71V383.54H431v22.17A19.344,19.344,0,0,1,411.72,425H118.71Z" style="fill:#f8ec7d"/><path d="M417.02,304.47v59.78a19.344,19.344,0,0,1-19.28,19.29H282.51v-40.5a38.688,38.688,0,0,1,38.57-38.57h95.94Zm-22.39,47.57a11.886,11.886,0,0,0-11.89-11.89H364.52a11.885,11.885,0,1,0,0,23.77h18.22a11.881,11.881,0,0,0,11.89-11.88Z" style="fill:#af593c"/><path d="M417.02,303.51v.96H321.08a38.688,38.688,0,0,0-38.57,38.57v11.57H229.48V343.04a38.681,38.681,0,0,0-38.57-38.57H94.98v-.96c.43,0,40.5-38.57,40.5-38.57H376.52l.03.03C377.76,266.14,416.5,303.51,417.02,303.51Z" style="fill:#e48e66"/><path d="M403.47,159.94v75.72a10,10,0,0,1-10,10H376.8V149.94h16.67A10,10,0,0,1,403.47,159.94Z" style="fill:#e48e66"/><path d="M393.29,425v29.73a22.043,22.043,0,0,1-21.98,21.98h-.34a21.973,21.973,0,0,1-21.98-21.98V425Z" style="fill:#6fe3ff"/><path d="M382.74,340.15a11.885,11.885,0,1,1,0,23.77H364.52a11.885,11.885,0,1,1,0-23.77Z" style="fill:#6fe3ff"/><path d="M376.8,245.66v19.28l-.25.03-.03-.03H135.75V150.02h.91a37.386,37.386,0,0,1,36.52-29.95H339.72a37.408,37.408,0,0,1,36.54,29.95h.44v-.08h.1Z" style="fill:#f8ec7d"/><path d="M135.75,150.02h-.1V51.68c0-9.02,8.68-16.39,19.29-16.39H357.42c10.6,0,19.28,7.37,19.28,16.39v98.34h-.44a37.408,37.408,0,0,0-36.54-29.95H173.18a37.386,37.386,0,0,0-36.52,29.95Z" style="fill:#6fe3ff"/><path d="M349.11,457.03l-.28.04H338.25c-5.82,0-10.58-7.18-10.58-15.97V425h21.32v29.73A21.861,21.861,0,0,0,349.11,457.03Z" style="fill:#6fe3ff"/><polygon points="282.51 354.61 282.51 383.54 229.49 383.54 229.48 383.54 229.48 354.61 229.49 354.61 282.51 354.61" style="fill:#f8ec7d"/><path d="M229.48,354.61v28.93H114.26a19.344,19.344,0,0,1-19.28-19.29V304.47h95.93a38.681,38.681,0,0,1,38.57,38.57Zm-70.11-2.57a11.886,11.886,0,0,0-11.89-11.89H129.26a11.885,11.885,0,1,0,0,23.77h18.22a11.881,11.881,0,0,0,11.89-11.88Z" style="fill:#af593c"/><path d="M184.33,425.13V441.1c0,8.79-4.76,15.97-10.58,15.97H163.17l-.28-.04a21.861,21.861,0,0,0,.12-2.3V425h21.32Z" style="fill:#6fe3ff"/><path d="M163.01,425.13v29.6a21.973,21.973,0,0,1-21.98,21.98h-.34a22.043,22.043,0,0,1-21.98-21.98V425h44.3Z" style="fill:#6fe3ff"/><path d="M147.48,340.15a11.885,11.885,0,1,1,0,23.77H129.26a11.885,11.885,0,1,1,0-23.77Z" style="fill:#6fe3ff"/><path d="M135.75,150.02v95.64H118.43a10,10,0,0,1-10-10V159.94a10,10,0,0,1,10-10h17.22v.08Z" style="fill:#e48e66"/><path d="M382.74,333H364.52a19,19,0,0,0,0,38h18.22a19,19,0,0,0,0-38Zm3.46,22.53a4.9,4.9,0,0,1-3.46,1.47H364.52a4.925,4.925,0,0,1-4.89-4.92,5.083,5.083,0,0,1,1.43-3.555A4.951,4.951,0,0,1,364.52,347h18.22a4.977,4.977,0,0,1,4.89,4.985A5.069,5.069,0,0,1,386.2,355.53Z" style="fill:#63316d"/><path d="M147.48,333H129.26a19,19,0,0,0,0,38h18.22a19,19,0,0,0,0-38Zm3.46,22.53a4.9,4.9,0,0,1-3.46,1.47H129.26a4.924,4.924,0,0,1-4.89-4.92,5.083,5.083,0,0,1,1.43-3.555A4.954,4.954,0,0,1,129.26,347h18.22a4.978,4.978,0,0,1,4.89,4.985A5.069,5.069,0,0,1,150.94,355.53Z" style="fill:#63316d"/><path d="M100.28,432H112v22.73c0,15.979,12.71,29.27,28.69,29.27h.34a28.644,28.644,0,0,0,27.438-20h5.282c9.858,0,17.25-10.02,17.25-22.9V432H321v9.1c0,12.88,7.392,22.9,17.25,22.9h5.282a28.645,28.645,0,0,0,27.438,20h.34c15.98,0,28.69-13.291,28.69-29.27V432h11.72A26.314,26.314,0,0,0,438,405.71V383.54c0-3.866-3.134-6.54-7-6.54H420.962A29.043,29.043,0,0,0,424,364.25V303.51a6.9,6.9,0,0,0-2.813-5.691C418.014,295.071,393,271.148,384,262.239V253h9.47c9.374,0,16.53-7.966,16.53-17.34V159.94c0-9.374-7.156-16.94-16.53-16.94H384V51.68C384,38.783,371.911,28,357.42,28H154.94C140.443,28,129,38.783,129,51.68V143H118.43c-9.374,0-17.43,7.566-17.43,16.94v75.72A17.685,17.685,0,0,0,118.43,253H129v8.7c-14,13.6-35.347,33.812-38.057,36.187A7.1,7.1,0,0,0,88,303.51v60.74A29.043,29.043,0,0,0,91.038,377H81c-3.866,0-7,2.674-7,6.54v22.17A26.314,26.314,0,0,0,100.28,432Zm55.644,24.442A15.26,15.26,0,0,1,141.03,470h-.34c-8.26,0-14.69-7.01-14.69-15.27V432h30v22.73C156,455.266,155.979,455.923,155.924,456.442ZM177,441.1c0,5.98-2.566,8.9-3.25,8.9H170V432h7Zm158,0V432h7v18h-3.75C337.566,450,335,447.08,335,441.1Zm51,13.63c0,8.26-6.43,15.27-14.69,15.27h-.34a15.26,15.26,0,0,1-14.894-13.559c-.055-.518-.076-1.175-.076-1.711V432h30ZM236,377V362h40v15Zm-121.74,0c-6.771,0-12.26-5.973-12.26-12.75V311h88.91c17.408,0,31.09,14.632,31.09,32.04V377ZM290,343.04c0-17.408,13.672-32.04,31.08-32.04H410v53.25c0,6.777-5.489,12.75-12.26,12.75H290ZM143,153.44a14.565,14.565,0,0,1,.649-2.08A30.235,30.235,0,0,1,173.18,127H339.72A30.508,30.508,0,0,1,369.5,151.364c.091.452.5.916.5,1.328v90.846c0,.669-.33,1.382-.33,2.122s.33,1.453.33,2.123V258H143Zm253,6.5v75.72c0,1.654-.875,3.34-2.53,3.34H384V157h9.47C395.125,157,396,158.286,396,159.94ZM143,51.68c0-5.09,5.278-9.68,11.94-9.68H357.42c6.657,0,12.58,4.59,12.58,9.68v73.145A45.115,45.115,0,0,0,339.72,113H173.18A43.4,43.4,0,0,0,143,125.347ZM118.43,239a3.705,3.705,0,0,1-3.43-3.34V159.94c0-1.654,1.776-2.94,3.43-2.94H129v82Zm19.87,33H373.692c3.508,3,11.033,10.363,18.508,17.527,2.777,2.661,5.538,5.473,8.093,7.473H321.08C295.953,297,276,317.913,276,343.04V348H236v-4.96c0-25.127-19.962-46.04-45.09-46.04H111.662a104.015,104.015,0,0,0,8.57-7.924C127.562,282.059,134.863,275,138.3,272ZM92.15,297.11a7.064,7.064,0,0,0-.731.372A6.952,6.952,0,0,1,92.15,297.11ZM93.9,296.6c-.134.021-.264.056-.4.084C93.637,296.652,93.761,296.619,93.9,296.6Zm-.927.211c-.163.049-.322.109-.479.17C92.65,296.918,92.8,296.86,92.974,296.808ZM88,391H424v14.71A12.3,12.3,0,0,1,411.72,418H100.28A12.3,12.3,0,0,1,88,405.71Z" style="fill:#63316d"/></svg>
