<svg xmlns="http://www.w3.org/2000/svg" version="1.1" xmlns:xlink="http://www.w3.org/1999/xlink" width="512" height="512" x="0" y="0" viewBox="0 0 512 512" style="enable-background:new 0 0 512 512" xml:space="preserve" class=""><g><path d="M241.137 457.464v3.165c-4.205 14.059-17.254 24.339-32.663 24.339-18.798 0-34.09-15.292-34.09-34.091 0-7.465-6.051-13.516-13.516-13.516s-13.516 6.051-13.516 13.516c0 33.703 27.42 61.123 61.123 61.123 23.883 0 44.596-13.775 54.648-33.792v-3.527l-21.986-17.217z" style="" fill="#707487" data-original="#707487"></path><path d="M167.65 450.877c0-3.416 1.277-6.526 3.367-8.906-2.477-2.82-6.1-4.61-10.149-4.61-7.465 0-13.516 6.051-13.516 13.516 0 33.703 27.42 61.123 61.123 61.123 3.464 0 6.859-.299 10.167-.855-28.897-4.843-50.992-30.017-50.992-60.268z" style="" fill="#676a77" data-original="#676a77" class=""></path><path d="M256 291.776a7.612 7.612 0 0 1-7.612-7.612V192.82a7.612 7.612 0 1 1 15.224 0v91.344a7.611 7.611 0 0 1-7.612 7.612z" style="" fill="#e4eaf8" data-original="#e4eaf8"></path><path d="M380.463 275.493c-25.481-.027-46.842 13.754-58.179 33.801l-.003-.004s-3.703 4.588-8.636 4.61c-4.933-.023-8.636-4.61-8.636-4.61l-.003.004c-11.239-19.876-32.514-33.828-58.179-33.801-38.027.041-66.814 30.83-66.684 66.819.087 73.707 63.252 131.849 128.939 163.52h.001c1.651.545 3.217.705 4.563.689a13.964 13.964 0 0 0 4.563-.689c18.509-8.923 90.481-47.005 118.081-111.534 29.235-68.34-5.593-118.752-55.827-118.805z" style="" fill="#ff5050" data-original="#ff5050" class=""></path><path d="M200.451 343.308c-.315-35.177 24.98-62.188 56.252-67.125l.583-.009c-1.813-.284-7.264-.685-10.458-.681-37.705.041-66.684 30.359-66.684 66.819.109 73.674 63.114 131.783 128.939 163.52 1.651.545 3.217.705 4.562.689a13.99 13.99 0 0 0 4.563-.689 245.14 245.14 0 0 0 5.586-2.787c-62.909-32.349-122.775-88.498-123.343-159.737z" style="" fill="#ed3a3a" data-original="#ed3a3a" class=""></path><path d="M256 41.258a7.612 7.612 0 0 1-7.612-7.612V7.612a7.612 7.612 0 1 1 15.224 0v26.034A7.612 7.612 0 0 1 256 41.258z" style="" fill="#707487" data-original="#707487"></path><path d="M294.275 436.179h-.032a7.612 7.612 0 0 1-7.127-5.026l-24.966-69.125-8.385 17.578a7.611 7.611 0 0 1-6.87 4.334h-83.827a7.612 7.612 0 1 1 0-15.224h79.023l14.16-29.682a7.592 7.592 0 0 1 7.245-4.325 7.61 7.61 0 0 1 6.784 5.017l24.088 66.694 12.139-32.738a7.611 7.611 0 0 1 7.137-4.965h38.943c2.8 0 5.374 1.538 6.702 4.003l9.994 18.562 8.991-18.309a7.611 7.611 0 0 1 6.832-4.256h82.285a7.612 7.612 0 1 1 0 15.224h-77.542l-13.422 27.33a7.61 7.61 0 0 1-6.69 4.255 7.6 7.6 0 0 1-6.844-4.002l-14.852-27.584H318.94l-17.527 47.275a7.615 7.615 0 0 1-7.138 4.964z" style="" fill="#e4eaf8" data-original="#e4eaf8"></path><path d="M61.381 177.685c26.049 0 49.058 12.958 62.973 32.769a2.321 2.321 0 0 0 3.798 0c13.917-19.811 36.925-32.769 62.974-32.769s49.058 12.958 62.974 32.769a2.321 2.321 0 0 0 3.798 0c13.916-19.811 36.925-32.769 62.974-32.769s49.058 12.958 62.974 32.769a2.321 2.321 0 0 0 3.798 0c13.916-19.811 36.925-32.769 62.974-32.769 14.031 0 27.177 3.767 38.499 10.332 1.998 1.159 4.318-.9 3.35-2.998C451.244 95.662 360.866 33.646 256 33.646c-104.865 0-195.244 62.017-236.468 151.373-.968 2.098 1.351 4.156 3.35 2.998 11.322-6.566 24.469-10.332 38.499-10.332z" style="" fill="#06b0f2" data-original="#06b0f2" class="" opacity="1"></path><path d="M215.221 36.833C128.083 50.546 55.302 107.484 19.532 185.019c-.968 2.098 1.351 4.156 3.35 2.998a76.556 76.556 0 0 1 17.53-7.423c33.35-72.892 97.592-127.111 174.809-143.761z" style="" fill="#03a6d8" data-original="#03a6d8" class="" opacity="1"></path><path d="M256.001 33.646V211.44c.718 0 1.437-.329 1.898-.986 13.916-19.811 36.925-32.769 62.974-32.769s49.058 12.958 62.974 32.769a2.321 2.321 0 0 0 3.798 0c13.916-19.811 36.925-32.769 62.974-32.769 14.031 0 27.177 3.767 38.499 10.332 1.999 1.159 4.318-.9 3.35-2.998C451.244 95.663 360.866 33.646 256.001 33.646z" style="" fill="#29d4fc" data-original="#29d4fc" class="" opacity="1"></path><path d="M126.892 211.341a2.28 2.28 0 0 0 1.261-.887c14.424-20.513 37.953-32.769 62.974-32.769h.003c25.665 0 49.034 12.869 62.971 32.769a2.322 2.322 0 0 0 3.798 0c14.11-20.056 37.384-32.769 62.974-32.769h.004c21.223 0 41.69 8.835 56.309 24.589 6.625 7.13 6.213 8.584 7.923 9.067C360.16 105.469 311.701 33.646 256 33.646c-55.701 0-104.16 71.823-129.108 177.695z" style="" fill="#06b0f2" data-original="#06b0f2" class="" opacity="1"></path><path d="M256 33.646c-55.701 0-104.16 71.823-129.108 177.695a2.28 2.28 0 0 0 1.261-.887c14.424-20.513 37.953-32.769 62.974-32.769h.003c25.665 0 49.034 12.869 62.971 32.769a2.307 2.307 0 0 0 1.899.986V33.646z" style="" fill="#29d4fc" data-original="#29d4fc" class="" opacity="1"></path><path d="M153.083 187.785C175.061 94.958 212.944 33.646 256 33.646c-55.701 0-104.16 71.823-129.108 177.695a2.28 2.28 0 0 0 1.261-.887c6.786-9.657 15.252-17.076 24.93-22.669z" style="" fill="#00c3ff" data-original="#00c3ff" class="" opacity="1"></path></g></svg>