<svg xmlns="http://www.w3.org/2000/svg" version="1.1" xmlns:xlink="http://www.w3.org/1999/xlink" width="512" height="512" x="0" y="0" viewBox="0 0 468 468" style="enable-background:new 0 0 512 512" xml:space="preserve" class=""><g><path fill="#0d398f" d="M137.163 28.193v69.84c0 50.497 36.638 93.577 86.589 101.817 49.952-8.239 86.589-51.32 86.589-101.817v-69.84c0-5.207-3.104-9.915-7.897-11.978a199.058 199.058 0 0 0-157.385 0 13.045 13.045 0 0 0-7.896 11.978z" opacity="1" data-original="#35c9ad" class=""></path><ellipse cx="223.751" cy="89.965" fill="#ffffff" rx="51.042" ry="51.003" opacity="1" data-original="#ffffff"></ellipse><path fill="#0d398f" d="M246.556 83.965h-16.803v-16.9a6 6 0 0 0-12 0v16.899H200.95a6 6 0 0 0 0 12h16.803v16.899a6 6 0 0 0 12 0V95.965h16.803a6 6 0 0 0 0-12z" opacity="1" data-original="#35c9ad" class=""></path><path fill="#0d398f" d="M405.218 344.238h-60.536c-33.017 0-59.782 26.765-59.782 59.782v45.778H465V404.02c0-33.017-26.765-59.782-59.782-59.782z" opacity="1" data-original="#ffd085" class=""></path><path fill="#3a3a3a" d="M423.715 311.845h-97.53c-13.94 0-25.241-11.301-25.241-25.241v-37.499c0-40.872 33.133-74.006 74.006-74.006 40.872 0 74.006 33.133 74.006 74.006v37.499c0 13.941-11.301 25.241-25.241 25.241z" opacity="1" data-original="#3a3a3a" class=""></path><path fill="#f9b995" d="M400.145 303.788h-50.391v33.913c0 13.753 11.149 24.902 24.902 24.902h.588c13.753 0 24.902-11.149 24.902-24.902v-33.913z" opacity="1" data-original="#f9b995" class=""></path><path fill="#fdd2b5" d="M375.469 326.459h-1.038c-24.301 0-44-19.699-44-44v-42.526h89.038v42.526c0 24.301-19.699 44-44 44z" opacity="1" data-original="#fdd2b5" class=""></path><path fill="#0d398f" d="M123.318 344.238H62.782C29.765 344.238 3 371.003 3 404.02v45.778h180.1V404.02c0-33.017-26.765-59.782-59.782-59.782z" opacity="1" data-original="#35c9ad" class=""></path><path fill="#3a3a3a" d="M111.469 301.113H74.631c-29.611 0-53.615-24.004-53.615-53.615-.428-40.042 31.982-72.815 72.034-72.789 40.052-.025 72.463 32.748 72.034 72.789 0 29.611-24.004 53.615-53.615 53.615z" opacity="1" data-original="#3a3a3a" class=""></path><path fill="#f9b995" d="M118.245 303.788h-50.39v33.913c0 13.753 11.149 24.902 24.902 24.902h.588c13.753 0 24.902-11.149 24.902-24.902v-33.913z" opacity="1" data-original="#f9b995" class=""></path><path fill="#fdd2b5" d="M93.05 326.459c-24.587 0-44.519-19.921-44.519-44.494v-40.009l33.504 11.621.816-31.397 54.719 19.776v40.009c-.001 24.574-19.933 44.494-44.52 44.494z" opacity="1" data-original="#fdd2b5" class=""></path><path fill="#f761a6" d="M258.184 394.8v-40.45h-48.367v40.45h-17.272c-21.25 0-38.477 17.217-38.477 38.456V468h159.864v-34.745c0-21.238-17.227-38.456-38.477-38.456h-17.271z" opacity="1" data-original="#f761a6" class=""></path><path fill="#f9b995" d="M234 435.579c22.082 0 39.982-18.706 39.982-40.776v-.003h-15.799v-40.45h-48.367v40.45h-15.799v.004c.001 22.069 17.901 40.775 39.983 40.775z" opacity="1" data-original="#f9b995" class=""></path><ellipse cx="234" cy="334.949" fill="#fdd2b5" rx="51.602" ry="51.573" opacity="1" data-original="#fdd2b5" class=""></ellipse><path fill="#3a3a3a" d="M234 283.376a51.5 51.5 0 0 0-17.257 2.966l3.47 12.11c8.193 28.588 34.098 48.481 63.847 49.028a51.648 51.648 0 0 0 1.542-12.53c0-28.484-23.103-51.574-51.602-51.574z" opacity="1" data-original="#3a3a3a" class=""></path></g></svg>