<svg xmlns="http://www.w3.org/2000/svg" version="1.1" xmlns:xlink="http://www.w3.org/1999/xlink" width="512" height="512" x="0" y="0" viewBox="0 0 64 64" style="enable-background:new 0 0 512 512" xml:space="preserve" class=""><g><path fill="#5c9eff" d="M20 37.5h7c-2.76 0-5 2.24-5 5h-3.99c0-2.76-2.24-5-5-5z" opacity="1" data-original="#5c9eff" class=""></path><path fill="#ffffff" d="M36 22.5h-6l3-3z" opacity="1" data-original="#d7e9ff" class=""></path><path fill="#ecff94" d="M48 22.51h7l5 9v5.99h-9c-2.76 0-5 2.24-5 5V22.51zm1 7h6v-.01l-2.22-3.98v-.01H49z" opacity="1" data-original="#94c1ff" class=""></path><path fill="#5c9eff" d="M5 37.5v2.01H1V36.5h4zM1 33.5h4v3H1z" opacity="1" data-original="#5c9eff" class=""></path><path fill="#ffffff" d="m36.002 22.505-3-3 3-3 3 3zM5 26.5v4H1v-10h4v3z" opacity="1" data-original="#d7e9ff" class=""></path><path fill="#ecff94" d="M36 30.51v6.99H20v-6.99h8z" opacity="1" data-original="#94c1ff" class=""></path><path fill="#ffffff" d="m45 19.5-2.99 3H42l-3-3 3-3z" opacity="1" data-original="#d7e9ff" class=""></path><path fill="#5c9eff" d="M5 30.51v2.99H1v-3h4z" opacity="1" data-original="#5c9eff" class=""></path><path fill="#ffffff" d="m54 16.5-3 3-3-3z" opacity="1" data-original="#d7e9ff" class=""></path><path fill="#5c9eff" d="M1 39.51h4v2.99H1z" opacity="1" data-original="#5c9eff" class=""></path><path fill="#ecff94" d="M41 37.49v.01h-5V22.51h5z" opacity="1" data-original="#94c1ff" class=""></path><path fill="#5c9eff" d="M51 37.5h9v3h-4.41c-.78-1.76-2.54-3-4.59-3zM5 37.5h8.01c-2.77 0-5 2.24-5 5H5v-2.99z" opacity="1" data-original="#5c9eff" class=""></path><path fill="#ffffff" d="m60 16.5 3 6.01h-2.99v-.01l-3-3z" opacity="1" data-original="#d7e9ff" class=""></path><path fill="#ffffff" d="m60 16.5-2.99 3-3-3zM42 16.5l-3 3-3-3z" opacity="1" data-original="#d7e9ff" class=""></path><circle cx="27" cy="42.5" r="5" fill="#ffffff" opacity="1" data-original="#d7e9ff" class=""></circle><path fill="#ffffff" d="M55 29.5v.01h-6v-4h3.78v.01zM42 22.5h.01v.01H36v-.01l3-3zM54 22.5v.01h-6v-.01l3-3zM44.993 19.503l3-3 3 3-3 3z" opacity="1" data-original="#d7e9ff" class=""></path><path fill="#ecff94" d="M20 22.51h8v7.99h-8z" opacity="1" data-original="#94c1ff" class=""></path><path fill="#ffffff" d="M28 16.5v6h-8v.01h-8V16.5z" opacity="1" data-original="#d7e9ff" class=""></path><path fill="#5c9eff" d="M5 26.5v-10h7v14H5z" opacity="1" data-original="#5c9eff" class=""></path><path fill="#ffffff" d="m54 22.5 3.01-3 3 3v.01H54zM19.99 22.51l-7.98 7.99H12v-7.99z" opacity="1" data-original="#d7e9ff" class=""></path><path fill="#ecff94" d="M28 22.51h8v7.99h-8z" opacity="1" data-original="#94c1ff" class=""></path><path fill="#ffffff" d="M55.59 40.5c.26.61.41 1.29.41 2 0 2.76-2.24 5-5 5s-5-2.24-5-5 2.24-5 5-5c2.05 0 3.81 1.24 4.59 3z" opacity="1" data-original="#d7e9ff" class=""></path><path fill="#ecff94" d="M20 30.51v6.99H5v-6.99h7v-.01h8zM46 22.51V37.5h-5V22.51h4z" opacity="1" data-original="#94c1ff" class=""></path><path fill="#ffffff" d="m30 16.5 3 3-3 3h-2v-6z" opacity="1" data-original="#d7e9ff" class=""></path><path fill="#ffffff" d="m36 16.5-3 3-3-3zM42.01 22.5l2.99-3 3 3v.01h-5.99zM48 16.5l-3 3-3-3z" opacity="1" data-original="#d7e9ff" class=""></path><path fill="#5c9eff" d="M36 37.5v5h-4c0-2.76-2.24-5-5-5h8zM46 37.5v5H36v-5h5z" opacity="1" data-original="#5c9eff" class=""></path><path fill="#ffffff" d="m54.01 16.5 3 3-3.01 3-3-3 3-3zM13.01 37.5c2.76 0 5 2.24 5 5s-2.24 5-5 5c-2.77 0-5-2.24-5-5s2.23-5 5-5z" opacity="1" data-original="#d7e9ff" class=""></path><path fill="#0d398f" d="M59.996 41.504a1 1 0 0 1-1-1v-8.99a1 1 0 1 1 2 0v8.99a1 1 0 0 1-1 1z" opacity="1" data-original="#116fff" class=""></path><path fill="#0d398f" d="M59.997 32.514a1 1 0 0 1-.875-.515l-5-9a.998.998 0 0 1 .389-1.359.997.997 0 0 1 1.359.389l5 9a.998.998 0 0 1-.873 1.485zM54.999 30.506a1 1 0 0 1-.875-.515l-2.215-3.988a.997.997 0 0 1 .389-1.359.998.998 0 0 1 1.359.389l2.215 3.988a.997.997 0 0 1-.873 1.485zM59.996 38.502h-8.994a1 1 0 1 1 0-2h8.994a1 1 0 1 1 0 2zM59.996 41.504h-4.408a1 1 0 1 1 0-2h4.408a1 1 0 1 1 0 2zM35.002 38.502 5 38.5a1 1 0 1 1 0-2l30.002.002a1 1 0 1 1 0 2z" opacity="1" data-original="#116fff" class=""></path><path fill="#0d398f" d="M55.996 23.514H45.002a1 1 0 1 1 0-2h10.994a1 1 0 1 1 0 2z" opacity="1" data-original="#116fff" class=""></path><path fill="#0d398f" d="M46.004 43.5a1 1 0 0 1-1-1V22.514a1 1 0 1 1 2 0V42.5a1 1 0 0 1-1 1zM54.998 30.512h-5.994a1 1 0 0 1-1-1v-3.998a1 1 0 0 1 1-1h3.777a1 1 0 1 1 0 2h-2.777v1.998h4.994a1 1 0 1 1 0 2zM22 43.5h-3.994a1 1 0 1 1 0-2H22a1 1 0 1 1 0 2z" opacity="1" data-original="#116fff" class=""></path><path fill="#0d398f" d="M46.004 43.5H32a1 1 0 1 1 0-2h14.004a1 1 0 1 1 0 2zM8.006 43.5H1.002a1 1 0 1 1 0-2h7.004a1 1 0 1 1 0 2z" opacity="1" data-original="#116fff" class=""></path><path fill="#0d398f" d="M1.002 43.5a1 1 0 0 1-1-1v-4.998a1 1 0 1 1 2 0V42.5a1 1 0 0 1-1 1zM49.998 33.51h-1a1 1 0 1 1 0-2h1a1 1 0 1 1 0 2z" opacity="1" data-original="#116fff" class=""></path><path fill="#0d398f" d="M36.004 43.5a1 1 0 0 1-1-1V31.506H2.002v5.996a1 1 0 1 1-2 0v-6.996a1 1 0 0 1 1-1h35.002a1 1 0 0 1 1 1V42.5a1 1 0 0 1-1 1z" opacity="1" data-original="#116fff" class=""></path><path fill="#0d398f" d="M36.004 31.508H28a1 1 0 0 1-1-1v-8.002a1 1 0 0 1 1-1h8.004a1 1 0 0 1 1 1v8.002a1 1 0 0 1-1 1zm-7.004-2h6.004v-6.002H29z" opacity="1" data-original="#116fff" class=""></path><path fill="#0d398f" d="M28 31.508h-8a1 1 0 0 1-1-1v-8.002a1 1 0 0 1 1-1h8a1 1 0 0 1 1 1v8.002a1 1 0 0 1-1 1zm-7-2h6v-6.002h-6zM5 43.5a1 1 0 0 1-1-1V30.508a1 1 0 1 1 2 0V42.5a1 1 0 0 1-1 1z" opacity="1" data-original="#116fff" class=""></path><path fill="#0d398f" d="M5 34.504H1.002a1 1 0 1 1 0-2H5a1 1 0 1 1 0 2zM5 37.506H1.002a1 1 0 1 1 0-2H5a1 1 0 1 1 0 2zM5 40.508H1.002a1 1 0 1 1 0-2H5a1 1 0 1 1 0 2zM12 31.508H5a1 1 0 0 1-1-1V16.5a1 1 0 0 1 1-1h7a1 1 0 0 1 1 1v14.008a1 1 0 0 1-1 1zm-6-2h5V17.5H6z" opacity="1" data-original="#116fff" class=""></path><path fill="#0d398f" d="M5 21.504H1a1 1 0 1 1 0-2h4a1 1 0 1 1 0 2z" opacity="1" data-original="#116fff" class=""></path><path fill="#0d398f" d="M1 31.506a1 1 0 0 1-1-1V20.504a1 1 0 1 1 2 0v10.002a1 1 0 0 1-1 1zM63.02 23.514a.067.067 0 0 1-.02 0H12a1 1 0 0 1-1-1V16.5a1 1 0 0 1 1-1h47.996a1 1 0 0 1 .895.553l2.924 5.854a1 1 0 0 1-.795 1.607zm-50.02-2h48.383L59.378 17.5H13z" opacity="1" data-original="#116fff" class=""></path><path fill="#0d398f" d="M27.996 23.506a1 1 0 0 1-1-1V16.5a1 1 0 1 1 2 0v6.006a1 1 0 0 1-1 1zM42.006 23.502a.997.997 0 0 1-.707-.293l-6.002-6.002a.999.999 0 1 1 1.414-1.414l6.002 6.002a.999.999 0 0 1-.707 1.707z" opacity="1" data-original="#116fff" class=""></path><path fill="#0d398f" d="M36 23.502a.999.999 0 0 1-.707-1.707l6.002-6.002a.999.999 0 1 1 1.414 1.414l-6.002 6.002a.997.997 0 0 1-.707.293z" opacity="1" data-original="#116fff" class=""></path><path fill="#0d398f" d="M36.004 23.502a.997.997 0 0 1-.707-.293l-6.002-6.002a.999.999 0 1 1 1.414-1.414l6.002 6.002a.999.999 0 0 1-.707 1.707z" opacity="1" data-original="#116fff" class=""></path><path fill="#0d398f" d="M29.998 23.502a.999.999 0 0 1-.707-1.707l6.002-6.002a.999.999 0 1 1 1.414 1.414l-6.002 6.002a.997.997 0 0 1-.707.293zM48.004 23.502a.997.997 0 0 1-.707-.293l-6.002-6.002a.999.999 0 1 1 1.414-1.414l6.002 6.002a.999.999 0 0 1-.707 1.707z" opacity="1" data-original="#116fff" class=""></path><path fill="#0d398f" d="M41.998 23.502a.999.999 0 0 1-.707-1.707l6.002-6.002a.999.999 0 1 1 1.414 1.414l-6.002 6.002a.997.997 0 0 1-.707.293z" opacity="1" data-original="#116fff" class=""></path><path fill="#0d398f" d="M54.004 23.502a.997.997 0 0 1-.707-.293l-6.002-6.002a.999.999 0 1 1 1.414-1.414l6.002 6.002a.999.999 0 0 1-.707 1.707z" opacity="1" data-original="#116fff" class=""></path><path fill="#0d398f" d="M47.998 23.502a.999.999 0 0 1-.707-1.707l6.002-6.002a.999.999 0 1 1 1.414 1.414l-6.002 6.002a.997.997 0 0 1-.707.293z" opacity="1" data-original="#116fff" class=""></path><path fill="#0d398f" d="M60.008 23.502a.997.997 0 0 1-.707-.293l-6.002-6.002a.999.999 0 1 1 1.414-1.414l6.002 6.002a.999.999 0 0 1-.707 1.707z" opacity="1" data-original="#116fff" class=""></path><path fill="#0d398f" d="M54.002 23.502a.999.999 0 0 1-.707-1.707l6.002-6.002a.999.999 0 1 1 1.414 1.414l-6.002 6.002a.997.997 0 0 1-.707.293zM12 31.508a.999.999 0 0 1-.707-1.707l8-8.002a.999.999 0 1 1 1.414 1.414l-8 8.002a.997.997 0 0 1-.707.293zM20 38.5a1 1 0 0 1-1-1v-6.992a1 1 0 1 1 2 0V37.5a1 1 0 0 1-1 1zM51.002 48.5c-3.309 0-6-2.691-6-6s2.691-6 6-6 6 2.691 6 6-2.691 6-6 6zm0-10c-2.206 0-4 1.794-4 4s1.794 4 4 4 4-1.794 4-4-1.794-4-4-4z" opacity="1" data-original="#116fff" class=""></path><path fill="#0d398f" d="M51.032 43.5c-.553 0-1.005-.447-1.005-1s.442-1 .994-1h.011a1 1 0 1 1 0 2zM27 48.5c-3.309 0-6-2.691-6-6s2.691-6 6-6 6 2.691 6 6-2.691 6-6 6zm0-10c-2.206 0-4 1.794-4 4s1.794 4 4 4 4-1.794 4-4-1.794-4-4-4z" opacity="1" data-original="#116fff" class=""></path><path fill="#0d398f" d="M27.03 43.5c-.553 0-1.005-.447-1.005-1s.442-1 .994-1h.011a1 1 0 1 1 0 2zM13.006 48.5c-3.309 0-6-2.691-6-6s2.691-6 6-6 6 2.691 6 6-2.692 6-6 6zm0-10c-2.206 0-4 1.794-4 4s1.794 4 4 4 4-1.794 4-4-1.794-4-4-4z" opacity="1" data-original="#116fff" class=""></path><path fill="#0d398f" d="M13.036 43.5c-.553 0-1.005-.447-1.005-1s.442-1 .994-1h.011a1 1 0 1 1 0 2zM46 38.502H35.002a1 1 0 1 1 0-2H46a1 1 0 1 1 0 2z" opacity="1" data-original="#116fff" class=""></path><path fill="#0d398f" d="M41 38.494a1 1 0 0 1-1-1V22.502a1 1 0 1 1 2 0v14.992a1 1 0 0 1-1 1zM6 21.506H5a1 1 0 1 1 0-2h1a1 1 0 1 1 0 2zM6 24.502H5a1 1 0 1 1 0-2h1a1 1 0 1 1 0 2zM6 27.5H5a1 1 0 1 1 0-2h1a1 1 0 1 1 0 2z" opacity="1" data-original="#116fff" class=""></path></g></svg>