<svg xmlns="http://www.w3.org/2000/svg" version="1.1" xmlns:xlink="http://www.w3.org/1999/xlink" width="512" height="512" x="0" y="0" viewBox="0 0 64 64" style="enable-background:new 0 0 512 512" xml:space="preserve" class=""><g><circle cx="21" cy="12" r="9" fill="#36474f" opacity="1" data-original="#36474f" class=""></circle><path fill="#0d398f" d="M10 45h22v16H10z" opacity="1" data-original="#bbdefb" class=""></path><path fill="#cfd8dc" d="M10 47h22v2H10z" opacity="1" data-original="#cfd8dc"></path><path fill="#0d398f" d="M39 47V31a9 9 0 0 0-9-9h-2.08a12.972 12.972 0 0 1-13.84 0H12a9 9 0 0 0-9 9v12a4 4 0 0 0 4 4z" opacity="1" data-original="#bbdefb" class=""></path><path fill="#b2d9f9" d="M32 42a4.995 4.995 0 0 0-5-5H10v2h17a3 3 0 0 1 0 6H7c-1.654 0-4-1.346-4-3v1a4 4 0 0 0 3.193 3.918A4.883 4.883 0 0 0 7 47h20a5.006 5.006 0 0 0 5-5z" opacity="1" data-original="#64b5f6" class=""></path><path fill="#e0e0e0" d="M26 47h-8L6.14 24.18A8.92 8.92 0 0 1 12 22h1z" opacity="1" data-original="#e0e0e0" class=""></path><path fill="#b2d9f9" d="M20 28h2v2h-2zM20 53h2v8h-2z" opacity="1" data-original="#64b5f6" class=""></path><path fill="#ffd54f" d="M48 59a20.877 20.877 0 0 1-13-19.156V28a36.076 36.076 0 0 0 13-4 36.07 36.07 0 0 0 13 4v11.844A20.877 20.877 0 0 1 48 59z" opacity="1" data-original="#ffd54f"></path><path fill="#ffc108" d="M48 24v35a20.877 20.877 0 0 0 13-19.156V28a36.07 36.07 0 0 1-13-4z" opacity="1" data-original="#ffc108"></path><path fill="#ff7043" d="m45 44.586-5.293-5.293-1.414 1.414 6 6a1 1 0 0 0 1.414 0L48 44.414v-2.828z" opacity="1" data-original="#ff7043"></path><path fill="#e64a19" d="M56.293 33.293 48 41.586v2.828l9.707-9.707z" opacity="1" data-original="#e64a19" class=""></path></g></svg>