<svg xmlns="http://www.w3.org/2000/svg" version="1.1" xmlns:xlink="http://www.w3.org/1999/xlink" width="512" height="512" x="0" y="0" viewBox="0 0 64 64" style="enable-background:new 0 0 512 512" xml:space="preserve" class=""><g><path fill="#ffe148" d="m38.32 20.75-2.637-9.231A1.751 1.751 0 0 0 34 10.25h-4a1.751 1.751 0 0 0-1.683 1.269L25.68 20.75zM8.625 31.646 3.98 33.389a5.749 5.749 0 0 0-3.73 5.383V47A1.751 1.751 0 0 0 2 48.75h60A1.751 1.751 0 0 0 63.75 47v-7.887a5.75 5.75 0 0 0-4.307-5.566l-7.334-1.9z" opacity="1" data-original="#ffe148"></path><path fill="#fac71b" d="M39.816 17.25h-22a5.75 5.75 0 0 0-5.416 3.816l-3.775 10.58h43.484L44.672 19.92a5.753 5.753 0 0 0-4.856-2.67z" opacity="1" data-original="#fac71b" class=""></path><circle cx="52" cy="48.25" r="5.5" fill="#6e6870" opacity="1" data-original="#6e6870"></circle><circle cx="52" cy="48.25" r="1.75" fill="#f3f9ff" opacity="1" data-original="#f3f9ff"></circle><circle cx="12" cy="48.25" r="5.5" fill="#6e6870" opacity="1" data-original="#6e6870"></circle><circle cx="12" cy="48.25" r="1.75" fill="#f3f9ff" opacity="1" data-original="#f3f9ff"></circle><path fill="#0d398f" d="M17.819 20.75a2.255 2.255 0 0 0-2.119 1.493l-3.359 9.4H27.25V20.75zM47.965 31.646l-6.257-9.863a2.24 2.24 0 0 0-1.892-1.033H30.75v10.9z" opacity="1" data-original="#40beff" class=""></path><g fill="#6e6870"><path d="M25 37h3v3h-3zM28 40h3v3h-3zM31 37h3v3h-3zM37 37h3v3h-3zM34 40h3v3h-3z" fill="#6e6870" opacity="1" data-original="#6e6870"></path></g></g></svg>