<svg viewBox="0 -78 512 512" xmlns="http://www.w3.org/2000/svg"><path d="m121.012 188.129-41.809-29.414c-6.148-15.371-16.394-29.031-28.004-35.73-18.812-10.864-34.062.667-34.062 25.75 0 25.085 15.25 54.226 34.062 65.085 8.918 5.149 17.031 5.262 23.106 1.29zM360.742 325.945l-41.808-29.414c-6.149-15.37-16.395-29.031-28-35.734-18.813-10.86-34.067.668-34.067 25.754 0 25.086 15.254 54.222 34.067 65.086 8.918 5.148 17.03 5.258 23.101 1.285zm0 0" fill="#23292e"/><path d="M511.957 231.113a57.099 57.099 0 0 0-.531-6.508c-2.168-15.593-10.625-29.773-23.63-39.058l-75.765-54.102c-4.738-5.25-6.902-14.43-9.996-20.925-9.234-19.403-21.574-37.157-36.836-52.317-20.133-20-47.586-37.308-73.96-48.34-34.926-14.61-67.2-3.488-101.024 6.801-9.078-5.191-29.715-18.352-34.242-16.14-6.555 3.203-141.684 82.96-151.45 88.695C1.903 90.617 0 93.348 0 96.739v23.327a46.89 46.89 0 0 0 23.465 40.618s310.848 180.34 320.648 185.191l.317.184a70.438 70.438 0 0 0 35.273 9.828 70.369 70.369 0 0 0 36.004-9.555l82.574-48.062A27.604 27.604 0 0 0 512 274.41s-.016-42.758-.043-43.297zm0 0" fill="#ffd613"/><path d="m12.785 89.324 27.16 15.54 150.27-88.204L163.05 1.121c-2.723-1.555-5.746-1.394-8.176-.121l-.027-.012L4.523 89.218c2.446-1.308 5.512-1.464 8.262.106zM487.797 185.547l-76.399-54.555-4.699 2.758 70.781 86.398c5.665 6.915 3.743 17.262-4.03 21.68l-55.352 31.469a30.81 30.81 0 0 1-29.04.746l-119.292-59.914-8.637 5.066 76.402 54.555c11.95 8.535 20.055 21.203 22.977 35.305a71.396 71.396 0 0 0 19.37 2.687 71.46 71.46 0 0 0 35.712-9.566L512 246.512V232.57a57.786 57.786 0 0 0-24.203-47.023zm0 0" fill="#e7c712"/><path d="M415.59 302.176a71.42 71.42 0 0 1-35.711 9.566 71.393 71.393 0 0 1-19.371-2.683c-2.922-14.106-11.028-26.774-22.98-35.309l-76.4-54.55-8.526-18.7a183.651 183.651 0 0 0-74.73-82.535L152.64 103.87a99.674 99.674 0 0 0-79.141-9.21l-33.555 10.206-27.164-15.539C7.09 86.066 0 90.18 0 96.738v23.328a46.89 46.89 0 0 0 23.465 40.618L344.43 346.059a70.438 70.438 0 0 0 35.273 9.828 70.369 70.369 0 0 0 36.004-9.555l82.574-48.062A27.604 27.604 0 0 0 512 274.41v-27.898zm0 0" fill="#c98000"/><path d="m358.89 303 .012.035a61.996 61.996 0 0 1 .782 2.637c.097.355.199.715.289 1.074.191.766.37 1.535.535 2.313a71.396 71.396 0 0 0 19.37 2.687 71.4 71.4 0 0 0 35.708-9.57l.266-.153c-2.309.098-3.848-9.082-6.454-11.835-9.375-9.93-18.703.613-30.003.687-11.555.082-23.72-6.652-34.336-10.687.035.035.062.07.097.105A57.744 57.744 0 0 1 358.891 303zm0 0" fill="#fff"/><g fill="#2e373d"><path d="M100.188 170.77 79.71 158.95v-27.302l20.477 11.82zM141.121 194.402l-20.476-11.82v-27.3l20.476 11.82zM182.04 218.027l-20.474-11.82v-27.3l20.473 11.82zM222.977 241.66 202.5 229.84v-27.3l20.477 11.823zM263.895 265.285l-20.473-11.82v-27.3l20.473 11.82zm0 0"/><path d="m120.66 209.89-20.472-11.82v-27.3l20.472 11.82zM161.598 233.527l-20.477-11.824v-27.3l20.477 11.824zM202.516 257.148l-20.477-11.82v-27.3l20.477 11.824zM243.453 280.785l-20.476-11.824v-27.3l20.476 11.823zM324.996 325.883c0 25.086-15.25 36.613-34.062 25.754-18.817-10.864-34.067-40.004-34.067-65.09 0-25.082 15.25-36.613 34.067-25.75 18.812 10.863 34.062 40.004 34.062 65.086zm0 0"/></g><path d="M307.68 315.887c0 12.332-7.496 18.004-16.746 12.66-9.25-5.34-16.75-19.668-16.75-32s7.5-18.004 16.75-12.66c9.25 5.34 16.746 19.668 16.746 32zm0 0" fill="#cecece"/><path d="M300.016 311.46c0 6.692-4.067 9.767-9.082 6.868-5.02-2.894-9.086-10.668-9.086-17.355s4.066-9.766 9.086-6.868c5.015 2.895 9.082 10.668 9.082 17.356zm0 0" fill="#627681"/><path d="M85.266 188.07c0 25.082-15.25 36.614-34.067 25.75-18.812-10.86-34.062-40-34.062-65.086 0-25.082 15.25-36.613 34.062-25.75 18.817 10.86 34.067 40 34.067 65.086zm0 0" fill="#2e373d"/><path d="M67.95 178.07c0 12.336-7.5 18.004-16.75 12.664s-16.747-19.668-16.747-32.004c0-12.332 7.5-18 16.746-12.66 9.25 5.34 16.75 19.668 16.75 32zm0 0" fill="#cecece"/><path d="M60.285 173.648c0 6.688-4.066 9.762-9.086 6.868-5.015-2.899-9.082-10.668-9.082-17.36 0-6.687 4.067-9.761 9.082-6.867 5.02 2.899 9.086 10.668 9.086 17.36zm0 0" fill="#627681"/><path d="m264.848 210.586-24.301-44.836c-5.156-9.512-1.8-21.395 7.566-26.805l104.653-60.418c8.71-5.03 19.851-2.05 24.89 6.66l26.121 45.188zm0 0" fill="#304e75"/><path d="m156.598 165.164 87.875 45.422-13.93-25.813a146.658 146.658 0 0 0-55.742-57.367l-9.903-5.719c-2.714-1.566-5.492-2.976-8.3-4.308zm0 0" fill="#243b58"/><path d="M360.418 76.2c-2.617.206-5.23.925-7.652 2.327l-25.586 14.77 63.515 32.832-13.93-25.813c-4.648-8.605-10.148-16.664-16.347-24.117zm0 0" fill="#59718b"/><path d="M143.992 112.273c-22.922-7.714-47.89-8.117-71.34-.77l-12.367 3.876 83.707 43.27zm0 0" fill="#243b58"/><path d="m511.55 225.453-16.89 10.555a12.633 12.633 0 0 0-5.879 9.465l-1.52 15.32L512 246.512V232.57c0-2.398-.16-4.773-.45-7.117zm0 0" fill="#fff"/><path d="m291.875 17.305-108.719 62.77v12.491l38.39 22.164 109.032-62.949V39.652zm0 0" fill="#cecece"/><path d="M183.156 80.074v12.492l38.39 22.164v-12.128zm0 0" fill="#525e65"/><path d="m221.547 102.602 109.031-62.95v12.13L221.547 114.73zm0 0" fill="#627681"/><path d="m314.766 42.227-6.383-29.7a11.978 11.978 0 0 0-5.727-7.863l-3.328-1.922c-1.683-.972-3.676-.656-5.015.508l-86.825 49.914a4.32 4.32 0 0 0-2.367 2.719l-6.152 20.824 27.933 16.125zm0 0" fill="#fff"/><path d="m198.973 76.707 6.148-20.824c.8-2.696 3.91-3.942 6.348-2.531l3.328 1.921a11.985 11.985 0 0 1 5.726 7.864l6.38 29.695zm0 0" fill="#627681"/><path d="m247.293 48.766-3.91 2.257V46.09l11.48-6.63v4.935l-3.89 2.246v27.582l-3.68 2.125zM259.195 62l-.89 7.988-3.832 2.211 4.144-34.906 5.063-2.922 4.086 30.156-3.868 2.23-.859-6.976zm1.934-18.707-1.36 13.602 2.723-1.57zM283.86 55.234l-3.95 2.282-2.82-8.727-2.844 11.996-3.95 2.281 4.786-19.113-4.785-13.398 4.066-2.352 2.727 8.469 2.703-11.602 4.066-2.347-4.785 18.93zM290.594 51.348l-3.68 2.125V20.957l3.68-2.125zm0 0" fill="#2e373d"/></svg>