<svg id="flat" height="512" viewBox="0 0 64 64" width="512" xmlns="http://www.w3.org/2000/svg"><path d="m12 48.5a9.5 9.5 0 1 1 9.5-9.5 9.511 9.511 0 0 1 -9.5 9.5zm0-16a6.5 6.5 0 1 0 6.5 6.5 6.508 6.508 0 0 0 -6.5-6.5z" fill="#394d5c"/><path d="m28 39a1 1 0 0 1 -.775-.367l-9.952-12.164a1 1 0 0 1 1.549-1.269l9.952 12.164a1 1 0 0 1 -.774 1.636z" fill="#5a6470"/><path d="m22.125 37.76h-5.425a4.636 4.636 0 0 0 -9.271 0h-5.429a10.063 10.063 0 0 1 20.125 0z" fill="#3d76f8"/><path d="m12 40a1 1 0 0 1 -.062-2l16-1a1 1 0 1 1 .125 2l-16 1c-.022 0-.042 0-.063 0z" fill="#5a6470"/><path d="m12 40a1 1 0 0 1 -.948-1.316l4-12a1 1 0 1 1 1.9.632l-4 12a1 1 0 0 1 -.952.684z" fill="#5a6470"/><path d="m23.275 44-14.784-4.171a1 1 0 0 1 -.676-1.283l.622-1.834a1 1 0 0 1 1.277-.623l14.473 4.911z" fill="#7c8c9a"/><path d="m22.03 23.4-4.03-.4-.95-.32-5.05-1.68c-2 0-3 2.04-3 3.23v.77l5.851 2.286 3.675.714h8.474l1-4z" fill="#394d5c"/><path d="m42 27h-.767v-5h3.376l1.304 3z" fill="#394d5c"/><path d="m42 28h-15v-3.307a2 2 0 0 1 1.3-1.873l5.82-2.183a10.018 10.018 0 0 1 3.512-.637h1.134a4.234 4.234 0 0 1 4.234 4.234v2.766a1 1 0 0 1 -1 1z" fill="#3d76f8"/><path d="m52 49a10 10 0 1 1 10-10 10.011 10.011 0 0 1 -10 10zm0-16.842a6.842 6.842 0 1 0 6.842 6.842 6.849 6.849 0 0 0 -6.842-6.842z" fill="#394d5c"/><path d="m4.5 26.417h3.5v3.5h-3.5z" fill="#da3e46"/><path d="m36 42h-8v-7l6 1a3.579 3.579 0 0 1 2.378 4.1z" fill="#7c8c9a"/><path d="m52 44a5 5 0 1 1 5-5 5.006 5.006 0 0 1 -5 5z" fill="#7c8c9a"/><path d="m39.82 43h-12.82v-17h15a1 1 0 0 1 .98 1.2zm-10.82-2h9.181l2.6-13h-11.781z" fill="#5a6470"/><path d="m43.76 20.048 5.24-1.048a1.959 1.959 0 0 1 2 2v2a1.959 1.959 0 0 1 -2 2h-3.087z" fill="#3d76f8"/><path d="m38.417 46h-12.417a1 1 0 0 1 -1-1v-1.279l-1.575-.321.524-2.123 2.367.779a1 1 0 0 1 .684.944v1h10.6l2.057-10.36-2.879-.666.452-1.948 3.822.883a1 1 0 0 1 .756 1.169l-2.408 12.122a1 1 0 0 1 -.983.8z" fill="#a8bccb"/><path d="m34.008 37a.934.934 0 0 1 -.167-.014l-2.964-.5a1 1 0 0 1 -.809-1.209l.617-2.69-.532-.847a1 1 0 0 1 -.128-.754l.223-.975a2.012 2.012 0 0 1 2.4-1.5l3.9.893a2 2 0 0 1 1.5 2.4l-.224.976a2 2 0 0 1 -2.4 1.5l-.447 1.949a1 1 0 0 1 -.969.771z" fill="#394d5c"/><circle cx="52" cy="39" fill="#a8bccb" r="2"/><path d="m51.083 39.4-9.662-22.224-3.179.794-.484-1.94 4-1a1 1 0 0 1 1.159.571l10 23z" fill="#5a6470"/><path d="m29 32h-7.202l-3.272-4h10.474z" fill="#3d76f8"/></svg>