<svg id="svg5950" height="100" width="100" xmlns="http://www.w3.org/2000/svg" xmlns:cc="http://creativecommons.org/ns#" xmlns:dc="http://purl.org/dc/elements/1.1/" xmlns:inkscape="http://www.inkscape.org/namespaces/inkscape" xmlns:rdf="http://www.w3.org/1999/02/22-rdf-syntax-ns#" xmlns:sodipodi="http://sodipodi.sourceforge.net/DTD/sodipodi-0.dtd" xmlns:svg="http://www.w3.org/2000/svg"><g id="layer1" transform="translate(0 -952.362)"><g id="g3851" transform="matrix(.692 0 0 .692 130.012 316.713)"><rect id="rect3825" fill="#fcd116" height="65.155" ry="7.324" transform="matrix(.706 -.708 .708 .706 0 0)" width="12.122" x="-788.308" y="559.974"/><rect id="rect2983" fill="#fcd116" height="24.244" ry="12.122" width="82.327" x="-129.3" y="1009.178"/><path id="path2985" d="m-112.88455 42.92638c0 6.973648-5.65325 12.626907-12.6269 12.626907s-12.62691-5.653259-12.62691-12.626907 5.65326-12.626906 12.62691-12.626906 12.6269 5.653258 12.6269 12.626906z" fill="#f8f6de" stroke="#3b3c3d" stroke-width="5" transform="matrix(.683 0 0 .683 -29.963 992.242)"/><path id="path3755" d="m-112.88455 42.92638c0 6.973648-5.65325 12.626907-12.6269 12.626907s-12.62691-5.653259-12.62691-12.626907 5.65326-12.626906 12.62691-12.626906 12.6269 5.653258 12.6269 12.626906z" fill="#f8f6de" stroke="#3b3c3d" stroke-width="5" transform="matrix(.683 0 0 .683 25.09 992.242)"/><g id="g3765" transform="translate(70.206 48.487)"/><path id="rect3757" d="m59.655 993.718h50.003v31.798h-50.003z" fill="#fcd116" transform="matrix(1 0 -.174 .985 0 0)"/><path id="rect3763" d="m235.422 993.718h50.003v31.798h-50.003z" fill="#fcd116" transform="matrix(-1 0 .174 .985 0 0)"/><path id="rect3769" d="m64.667 951.924h33.745v25.111h-33.745z" fill="#4bb7c0" stroke="#3b3c3d" stroke-width="3.469" transform="scale(-1 1)"/><path id="path3773" d="m-100.13463 950.15661 1.028103 28.5907-14.013813-.12627z" fill="#3b3c3d"/><path id="path3775" d="m-99.022044 953.48453v22.07804l-10.270286.0893z" fill="#4bb7c0"/><rect id="rect3827" fill="#fcd116" height="65.155" ry="7.324" transform="matrix(-.925 -.38 -.38 .925 0 0)" width="12.122" x="-227.853" y="934.099"/><path id="path3839" d="m-178.72252 1001.9359-.71875 2.1562c-.12407.3698-.0579.7191-.0937 1.0938-2.84738 2.1033-4.6875 5.5602-4.6875 9.5312 0 6.2696 4.54102 11.5939 10.4375 11.5938h6.5625c1.60827 0 3.1633-.372 4.53125-1.0938l2.25-1.1875-1.78125-1.8125c-.86567-.8779-2.03125-3.9468-2.03125-7.5 0-3.5545 1.16248-6.5569 2.03125-7.4375l1.78125-1.8125-2.25-1.2187c-.28094-.1482-.57729-.2583-.875-.375h-10.1875c-1.92553 0-3.66411-.7308-4.96875-1.9375z" text-indent="0" text-align="start" text-transform="none" block-progression="tb"/><path id="path3847" d="m-145.99519 3.7829707c0 2.2315674-2.92709 4.0406103-6.53785 4.0406103-3.61075 0-6.53784-1.8090429-6.53784-4.0406103 0-2.2315675 2.92709-4.04061035 6.53784-4.04061035 3.61076 0 6.53785 1.80904285 6.53785 4.04061035z" fill="#ffb61c" transform="matrix(.765 0 0 1.237 -35.144 949.999)"/><path id="path3849" d="m-145.99519 3.7829707c0 2.2315674-2.92709 4.0406103-6.53785 4.0406103-3.61075 0-6.53784-1.8090429-6.53784-4.0406103 0-2.2315675 2.92709-4.04061035 6.53784-4.04061035 3.61076 0 6.53785 1.80904285 6.53785 4.04061035z" fill="#d97b16" transform="matrix(.494 0 0 .8 -76.388 951.655)"/></g></g></svg>