<svg xmlns="http://www.w3.org/2000/svg" version="1.1" xmlns:xlink="http://www.w3.org/1999/xlink" width="512" height="512" x="0" y="0" viewBox="0 0 512.001 512.001" style="enable-background:new 0 0 512 512" xml:space="preserve" class=""><g><path d="M101.501 384.806 25.402 324.95c-4.157-3.127-5.518-8.647-3.023-12.26 12.197-17.664 35.693-23.697 58.779-15.092l68.824 39.041-48.481 48.167zM127.039 410.344l60.013 76.256c3.127 4.157 8.647 5.518 12.26 3.023l4.537-3.133c14.941-10.316 20.043-30.19 12.765-49.717l-41.251-74.754-48.324 48.325z" style="" fill="#ff2c5c" data-original="#ff2c5c" class=""></path><path d="m105.941 311.655-43.056 42.777 38.616 30.374 48.482-48.168z" style="" fill="#e62753" data-original="#e62753" class=""></path><path d="M122.118 150.38c-9.557-9.557-10.313-24.785-1.775-35.262 12.212-14.986 27.512-31.673 36.69-40.851 12.556-12.556 13.653-11.056 27.068-19.279a5.01 5.01 0 0 1 6.162.719l26.529 26.529a5.011 5.011 0 0 1 .719 6.162c-8.223 13.415-6.723 14.511-19.279 27.067-9.178 9.178-25.865 24.478-40.851 36.69-10.478 8.537-25.707 7.782-35.263-1.775zM361.622 389.884c-9.557-9.557-10.313-24.785-1.775-35.262 12.212-14.986 27.512-31.673 36.69-40.851 12.556-12.556 13.652-11.056 27.068-19.279a5.01 5.01 0 0 1 6.162.719l26.529 26.529a5.011 5.011 0 0 1 .719 6.162c-8.223 13.415-6.723 14.511-19.279 27.068-9.178 9.178-25.865 24.478-40.851 36.69-10.478 8.537-25.706 7.781-35.263-1.776z" style="" fill="#0d398f" data-original="#c3d3db" class="" opacity="1"></path><path d="m241.923 240.842 93.887-93.887-290.842-91.38c-5.989-1.529-11.943-.073-15.905 3.889L4.491 84.036c-8.229 8.229-4.697 23.314 6.92 29.552l230.512 127.254z" style="" fill="#ff2c5c" data-original="#ff2c5c" class=""></path><path d="m270.094 126.308-83.816 83.816 55.645 30.718 93.887-93.887z" style="" fill="#e62753" data-original="#e62753" class=""></path><path d="m271.16 270.079 93.887-93.887 91.38 290.842c1.529 5.989.073 11.943-3.889 15.905l-24.572 24.572c-8.229 8.229-23.314 4.697-29.552-6.92L271.16 270.079z" style="" fill="#ff2c5c" data-original="#ff2c5c" class=""></path><path d="M448.371 136.723 290.643 294.45c-26.466 26.466-54.603 51.152-84.061 73.75l-75.044 57.568c-17.373 13.328-38.035 14.94-49.14 3.835-11.105-11.105-9.493-31.767 3.835-49.14l57.568-75.044c22.598-29.458 47.283-57.594 73.75-84.061L375.279 63.631c21.562-21.562 46.326-39.527 72.487-51.861 22.529-10.621 46.476-17.275 58.108-5.643 11.632 11.632 4.978 35.579-5.643 58.108-12.333 26.163-30.298 50.926-51.86 72.488z" style="" fill="#e0f3fc" data-original="#e0f3fc" class=""></path><path d="M505.874 6.128C501.78 2.034 496.156.212 489.609.025c.471 12.114-4.782 27.478-11.739 42.234-12.333 26.161-30.298 50.925-51.861 72.487L268.282 272.473c-26.466 26.466-54.603 51.152-84.061 73.749l-75.044 57.568c-11.05 8.477-23.428 12.206-33.834 10.946.782 5.775 3.113 10.924 7.055 14.866 11.105 11.105 31.767 9.493 49.14-3.835l75.044-57.568c29.458-22.598 57.594-47.283 84.061-73.75l157.728-157.726c21.562-21.562 39.527-46.326 51.861-72.487 10.62-22.529 17.274-46.476 5.642-58.108z" style="" fill="#0d398f" data-original="#c3d3db" class="" opacity="1"></path><path d="m461.44 106.517-5.386 5.386c-5.002 5.002-60.956-50.952-55.954-55.954l5.386-5.386c3.395-3.395 8.378-4.465 12.436-2.67 20.219 8.944 37.244 25.97 46.189 46.189 1.793 4.057.724 9.04-2.671 12.435z" style="" fill="#51c4f5" data-original="#51c4f5"></path><path d="M99.44 420.062a7.474 7.474 0 0 1-5.303-2.197 7.5 7.5 0 0 1 0-10.606l65.496-65.496a7.5 7.5 0 0 1 10.606 0 7.5 7.5 0 0 1 0 10.606l-65.496 65.496a7.476 7.476 0 0 1-5.303 2.197z" style="" fill="#e62753" data-original="#e62753" class=""></path></g></svg>