<svg clip-rule="evenodd" fill-rule="evenodd" height="512" stroke-linejoin="round" stroke-miterlimit="2" viewBox="0 0 64 64" width="512" xmlns="http://www.w3.org/2000/svg"><g fill="#444a6e"><path d="m21.161 3h-9.032c-5.042 0-9.129 4.087-9.129 9.129v9.032c0 2.048 1.662 3.71 3.71 3.71 2.047 0 3.709-1.662 3.709-3.71v-9.032c0-.944.766-1.71 1.71-1.71h9.032c2.048 0 3.71-1.662 3.71-3.709 0-2.048-1.662-3.71-3.71-3.71z"/><path d="m61 21.161v-9.032c0-5.042-4.087-9.129-9.129-9.129h-9.032c-2.048 0-3.71 1.662-3.71 3.71 0 2.047 1.662 3.709 3.71 3.709h9.032c.944 0 1.71.766 1.71 1.71v9.032c0 2.048 1.662 3.71 3.709 3.71 2.048 0 3.71-1.662 3.71-3.71z"/><path d="m42.839 61h9.032c5.042 0 9.129-4.087 9.129-9.129v-9.032c0-2.048-1.662-3.71-3.71-3.71-2.047 0-3.709 1.662-3.709 3.71v9.032c0 .944-.766 1.71-1.71 1.71h-9.032c-2.048 0-3.71 1.662-3.71 3.709 0 2.048 1.662 3.71 3.71 3.71z"/><path d="m3 42.839v9.032c0 5.042 4.087 9.129 9.129 9.129h9.032c2.048 0 3.71-1.662 3.71-3.71 0-2.047-1.662-3.709-3.71-3.709h-9.032c-.944 0-1.71-.766-1.71-1.71v-9.032c0-2.048-1.662-3.71-3.709-3.71-2.048 0-3.71 1.662-3.71 3.71z"/></g><path d="m28 28h-7c-2.208 0-4 1.792-4 4s1.792 4 4 4h7v7c0 2.208 1.792 4 4 4s4-1.792 4-4v-7h7c2.208 0 4-1.792 4-4s-1.792-4-4-4h-7v-7c0-2.208-1.792-4-4-4s-4 1.792-4 4z" fill="#f8bc38"/></svg>