<svg id="Layer_1" height="512" viewBox="0 0 512 512" width="512" xmlns="http://www.w3.org/2000/svg" data-name="Layer 1"><g fill-rule="evenodd"><path d="m358.247 217.408a105.222 105.222 0 0 0 105.012-105.008c0-57.806-47.179-104.985-105.012-104.985a105.193 105.193 0 0 0 -104.985 104.985c0 57.833 47.151 105.012 104.985 105.012z" fill="#ffba57"/><path d="m206.526 366.12a137.884 137.884 0 0 1 137.883 137.88h-275.794a137.908 137.908 0 0 1 137.911-137.88z" fill="#e6404d"/><path d="m206.526 504h-137.911a137.908 137.908 0 0 1 137.911-137.88z" fill="#cf3a45"/><path d="m209.822 366.314a55.747 55.747 0 1 0 -55.746-55.746 55.858 55.858 0 0 0 55.746 55.746z" fill="#fbbd80"/><path d="m104.089 417.912a86.105 86.105 0 0 1 86.091 86.088h-172.21a86.111 86.111 0 0 1 86.119-86.091z" fill="#56a5e6"/><path d="m104.089 504h-86.119a86.111 86.111 0 0 1 86.119-86.091z" fill="#4d95cf"/><path d="m104.089 417.912a34.808 34.808 0 1 0 -34.821-34.794 34.855 34.855 0 0 0 34.821 34.794z" fill="#fbbd80"/><path d="m280.257 112.4a105.02 105.02 0 0 1 91.5-104.133 109.328 109.328 0 0 0 -13.511-.852 105 105 0 0 0 0 210 109.328 109.328 0 0 0 13.511-.852 105.027 105.027 0 0 1 -91.5-104.16z" fill="#e6a74e"/></g><path d="m470.67 112.423a112.41 112.41 0 1 0 -112.423 112.4 112.551 112.551 0 0 0 112.423-112.4zm-112.423 98.392a98.406 98.406 0 1 1 98.419-98.392 98.5 98.5 0 0 1 -98.419 98.392zm20.182-125.576a7 7 0 0 0 14 0 34.243 34.243 0 0 0 -27.184-33.463v-11.892a7 7 0 0 0 -14 0v11.893a34.193 34.193 0 0 0 0 66.923v39.781a20.2 20.2 0 0 1 -13.153-18.9 7 7 0 0 0 -14 0 34.238 34.238 0 0 0 27.157 33.462v11.893a7 7 0 0 0 14 0v-11.893a34.172 34.172 0 0 0 0-66.9v-39.808a20.2 20.2 0 0 1 13.18 18.904zm-40.337 0a20.2 20.2 0 0 1 13.153-18.9v37.8a20.2 20.2 0 0 1 -13.153-18.9zm40.337 54.341a20.2 20.2 0 0 1 -13.18 18.9v-37.78a20.17 20.17 0 0 1 13.18 18.88zm121.853 112.967a7 7 0 0 1 -9.661 2.167l-19.06-12.079a154.43 154.43 0 0 1 -96.883 211.849 7 7 0 1 1 -3.949-13.436c65.942-19.38 108.631-85.437 99.3-153.654a139.538 139.538 0 0 0 -12.516-41.735l-1.106 26.986a7 7 0 0 1 -6.99 6.713c-.1 0-.195 0-.294-.007a7 7 0 0 1 -6.706-7.284l2.068-50.733a7 7 0 0 1 10.746-5.632l42.886 27.184a7 7 0 0 1 2.165 9.661zm-256.488 111.019a62.988 62.988 0 1 0 -67.95 0 144.791 144.791 0 0 0 -30.744 11.177 41.948 41.948 0 1 0 -68.132 40.814 93.625 93.625 0 0 0 -66.338 89.443 7 7 0 0 0 7 7h330.638a7 7 0 0 0 7-7c.002-68.507-47.608-126.094-111.474-141.434zm-82.955-53a48.983 48.983 0 1 1 48.983 48.983 49.038 49.038 0 0 1 -48.983-48.982zm-84.7 73.021a27.95 27.95 0 1 1 27.95 27.95 27.981 27.981 0 0 1 -27.95-27.949zm-51.2 114.413a79.444 79.444 0 0 1 158.272 0zm172.32 0a93.668 93.668 0 0 0 -66.048-82.437 41.943 41.943 0 0 0 14.274-25.182 131.165 131.165 0 0 1 64.337-16.823c70.13 0 127.608 55.207 131.261 124.442zm-137.197-223.478a7 7 0 0 1 9.858-.923l17.406 14.433a154.409 154.409 0 0 1 123.067-197.8 7 7 0 0 1 2.205 13.828c-67.888 10.825-118.643 70.9-118.062 139.748a139.687 139.687 0 0 0 7.083 42.937l4.525-26.56a7 7 0 1 1 13.8 2.347l-8.533 50.039a7 7 0 0 1 -11.374 4.206l-39.057-32.4a7 7 0 0 1 -.918-9.855z"/></svg>