<svg id="Icon_Set" height="512" viewBox="0 0 256 256" width="512" xmlns="http://www.w3.org/2000/svg"><g><g><path d="m136.065 7.523v42.14c36.29 3.68 65.37 32.17 69.95 68.19l42.21-.16c-4.93-59.22-52.65-106.29-112.16-110.17z" fill="#ff4975"/><path d="m248.225 117.693-42.21.16c0-.02 0-.03-.01-.05l29.22-.11c-4.57-54.84-45.82-99.26-99.16-108.6v-1.57c59.51 3.88 107.23 50.95 112.16 110.17z" fill="#ff256c"/><path d="m206.415 133.833c-1.59 20.93-11.42 39.6-26.25 52.76l24.12 34.66c25.67-20.95 42.54-52.28 44.21-87.58z" fill="#ffd30f"/><path d="m248.495 133.673c-1.67 35.3-18.54 66.63-44.21 87.58l-4.99-7.17c21.12-20.59 34.7-48.9 36.2-80.36z" fill="#ffc300"/><path d="m128.075 206.393c-43.32 0-78.57-35.25-78.57-78.57 0-40.62 31-74.15 70.58-78.16v-42.14c-62.86 4.1-112.58 56.39-112.58 120.3 0 66.59 53.98 120.57 120.57 120.57 23.18 0 44.82-6.54 63.2-17.87l-24.07-34.58c-11.53 6.64-24.89 10.45-39.13 10.45z" fill="#5fcdff"/><path d="m134.625 248.223c-2.17.11-4.35.17-6.55.17-66.59 0-120.57-53.98-120.57-120.57 0-63.91 49.72-116.2 112.58-120.3v1.57c-56.58 9.91-99.58 59.3-99.58 118.73 0 64.43 50.53 117.05 114.12 120.4z" fill="#73d7f9"/></g><g fill="#5f266d"><path d="m135.662 53.643c34.138 3.461 62.057 30.678 66.385 64.715.254 1.999 1.954 3.496 3.968 3.496h.016l42.21-.16c2.331-.009 4.165-2.006 3.971-4.332-5.092-61.163-54.398-109.82-115.886-113.83-2.311-.147-4.26 1.683-4.26 3.992v42.14c0 2.052 1.553 3.772 3.596 3.979zm4.404-41.771c53.68 5.514 97.227 48.271 103.731 101.837l-34.339.13c-5.996-34.837-33.888-62.49-69.393-67.71v-34.257z"/><path d="m248.495 129.673c-.005 0-.01 0-.016 0l-42.08.16c-2.085.008-3.814 1.617-3.973 3.697-1.469 19.334-10.317 37.116-24.917 50.071-1.516 1.345-1.786 3.612-.628 5.276l24.12 34.66c1.339 1.923 4.016 2.279 5.813.814 27.364-22.333 44.012-55.315 45.676-90.49.108-2.284-1.716-4.188-3.995-4.188zm-43.439 85.685-19.62-28.194c13.71-13.237 22.333-30.531 24.605-49.344l34.183-.13c-2.511 29.892-16.581 57.793-39.168 77.668z"/><path d="m170.488 193.658c-1.187-1.704-3.479-2.218-5.279-1.181-49.533 28.523-111.704-7.454-111.704-64.654 0-38.421 28.797-70.312 66.983-74.18 2.042-.207 3.597-1.926 3.597-3.979v-42.141c0-2.275-1.907-4.132-4.261-3.992-65.225 4.255-116.319 58.85-116.319 124.292 0 97.678 107.618 156.81 189.869 106.105 1.963-1.209 2.49-3.814 1.185-5.69zm-158.983-65.835c0-59.807 45.597-109.933 104.58-115.952v34.257c-40.292 5.886-70.58 40.667-70.58 81.695 0 61.797 65.747 101.668 120.468 73.351l19.56 28.1c-77.162 43.76-174.028-12.057-174.028-101.451z"/><path d="m152.439 82.577c-1.947-1.048-4.372-.318-5.418 1.625l-44.934 83.449c-1.048 1.945-.32 4.371 1.625 5.418 1.957 1.053 4.378.308 5.418-1.625l44.934-83.449c1.047-1.945.32-4.371-1.625-5.418z"/><path d="m110.247 82.099c-4.764 0-8.639 3.875-8.639 8.639v16.398c0 4.764 3.875 8.639 8.639 8.639h9.979c4.764 0 8.64-3.875 8.64-8.639v-16.398c0-4.764-3.876-8.639-8.64-8.639zm10.618 8.639v16.398c0 .353-.287.639-.64.639h-9.979c-.353 0-.639-.287-.639-.639v-16.398c0-.353.286-.639.639-.639h9.979c.353 0 .64.287.64.639z"/><path d="m135.924 173.548h9.979c4.764 0 8.64-3.875 8.64-8.639v-16.398c0-4.764-3.876-8.639-8.64-8.639h-9.979c-4.764 0-8.64 3.875-8.64 8.639v16.398c0 4.763 3.876 8.639 8.64 8.639zm-.64-25.037c0-.353.287-.639.64-.639h9.979c.353 0 .64.287.64.639v16.398c0 .353-.287.639-.64.639h-9.979c-.353 0-.64-.287-.64-.639z"/><path d="m38.47 91.239c-1.999-.942-4.382-.082-5.322 1.917-6.855 14.58-9.467 31.405-6.396 48.272.398 2.184 2.49 3.613 4.651 3.219 2.174-.396 3.615-2.479 3.22-4.652-2.754-15.131-.408-30.308 5.766-43.435.938-1.998.08-4.381-1.919-5.321z"/><path d="m38.533 153.632c-.815-2.053-3.144-3.057-5.193-2.242-2.054.815-3.058 3.14-2.242 5.194.634 1.596 1.325 3.187 2.055 4.728.949 2 3.337 2.846 5.328 1.902 1.996-.946 2.848-3.331 1.902-5.328-.657-1.386-1.279-2.817-1.85-4.254z"/></g></g></svg>